<?xml version="1.0" encoding="UTF-8" standalone="no"?>
<!DOCTYPE svg  PUBLIC '-//W3C//DTD SVG 1.1//EN'  'http://www.w3.org/Graphics/SVG/1.1/DTD/svg11.dtd'>
<svg version="1.1" xmlns="http://www.w3.org/2000/svg">
<defs>
<font id="SimplonBP-Medium" horiz-adv-x="292">
<font-face font-family="P" font-weight="500" descent="-184" unicode-range="U+0020-00FE" bbox="-53 -194 852 874" units-per-em="1000" x-height="516" cap-height="700" underline-position="0" panose-1="0 0 0 0 0 0 0 0 0 0" ascent="816" underline-thickness="0"/>
<missing-glyph/>
<glyph glyph-name="space" horiz-adv-x="219" unicode=" "/>
<glyph glyph-name="exclam" d="M198 700h-105v-490h105v490zM79 0h134v134h-134v-134z" unicode="!"/>
<glyph glyph-name="quotedbl" d="M179 476v224h-105v-224h105zM389 476v224h-105v-224h105z" horiz-adv-x="463" unicode='&quot;'/>
<glyph glyph-name="numbersign" d="M99 507v-91h89l-33 -132h-88v-91h66l-48 -193h100l48 193h156l-48 -193h100l48 193h112v91h-90l33 132h89v91h-66l48 193h-100l-48 -193h-156l48 193h-100l-48 -193h-112zM288 416h156l-33 -132h-156z" horiz-adv-x="700" unicode="#"/>
<glyph glyph-name="dollar" d="M239 -100h43v91q98 5 146 57.5t48 133.5q0 69 -31.5 119.5t-110.5 81.5l-52 20v204q34 -7 53.5 -32t24.5 -62h105q-6 82 -54 135.5t-129 60.5v91h-43v-91q-84 -5 -138.5 -54.5t-54.5 -136.5q0 -75 39 -122t105 -72l49 -19v-213q-44 7 -70 40t-29 85h-105q3 -92 56 -155.5 t148 -70.5v-91zM285 287q50 -19 68 -46.5t18 -58.5q0 -37 -23 -61.5t-66 -28.5v196zM151 518q0 35 22 60t66 30v-188l-8 3q-33 13 -56.5 34t-23.5 61v0z" horiz-adv-x="517" unicode="$"/>
<glyph glyph-name="percent" d="M200 363q-27 0 -40 16t-13 38v160q0 22 13 38t40 16t40 -16t13 -38v-160q0 -22 -13 -38t-40 -16v0zM200 288q78 0 108 44.5t30 100.5v128q0 56 -30 100.5t-108 44.5t-108 -44.5t-30 -100.5v-128q0 -56 30 -100.5t108 -44.5v0zM631 700l-481 -700h95l481 700h-95zM675 69 q-27 0 -40 16t-13 38v160q0 22 13 38t40 16t40 -16t13 -38v-160q0 -22 -13 -38t-40 -16v0zM675 -6q78 0 108 44.5t30 100.5v128q0 56 -30 100.5t-108 44.5t-108 -44.5t-30 -100.5v-128q0 -56 30 -100.5t108 -44.5v0z" horiz-adv-x="876" unicode="%"/>
<glyph glyph-name="ampersand" d="M601 299v101h-123v80h-105v-80h-110q-51 0 -80.5 26.5t-29.5 72.5q0 48 30.5 74t79.5 26h110v101h-110q-67 0 -141 -42.5t-74 -158.5q0 -49 23 -89.5t60 -59.5q-38 -20 -60.5 -60.5t-22.5 -89.5q0 -111 70 -155.5t141 -44.5h219v299h123zM259 101q-49 0 -77.5 26 t-28.5 73t28.5 73t77.5 26h114v-198h-114z" horiz-adv-x="603" unicode="&amp;"/>
<glyph glyph-name="quotesingle" d="M179 476v224h-105v-224h105z" horiz-adv-x="253" unicode="&apos;"/>
<glyph glyph-name="parenleft" d="M90 577q0 60 29.5 91.5t93.5 31.5h46v-94h-24q-30 0 -40 -11.5t-10 -39.5v-554q0 -28 10 -39.5t40 -11.5h24v-94h-46q-64 0 -93.5 31.5t-29.5 91.5v598z" unicode="("/>
<glyph glyph-name="parenright" d="M202 577q0 60 -29.5 91.5t-93.5 31.5h-46v-94h24q30 0 40 -11.5t10 -39.5v-554q0 -28 -10 -39.5t-40 -11.5h-24v-94h46q64 0 93.5 31.5t29.5 91.5v598z" unicode=")"/>
<glyph glyph-name="asterisk" d="M207 576v124h91v-124l118 38l28 -86l-118 -38l73 -101l-73 -53l-73 100l-74 -100l-73 53l73 101l-118 38l28 86z" horiz-adv-x="505" unicode="*"/>
<glyph glyph-name="plus" d="M325 495h-91v-169h-170v-91h170v-170h91v170h169v91h-169v169z" horiz-adv-x="558" unicode="+"/>
<glyph glyph-name="comma" d="M79 0h55l-39 -104h79l39 104v134h-134v-134z" unicode=","/>
<glyph glyph-name="hyphen" d="M49 326v-91h290v91h-290z" horiz-adv-x="388" unicode="-"/>
<glyph glyph-name="period" d="M79 0h134v134h-134v-134z" unicode="."/>
<glyph glyph-name="slash" d="M-11 0h104l283 700h-104z" horiz-adv-x="365" unicode="/"/>
<glyph glyph-name="zero" d="M383 206q0 -58 -30.5 -86.5t-79.5 -28.5t-79.5 28.5t-30.5 86.5v288q0 58 30.5 86.5t79.5 28.5t79.5 -28.5t30.5 -86.5v-288zM58 204q0 -127 74 -170.5t141 -43.5t141 43.5t74 170.5v292q0 127 -74 170.5t-141 43.5t-141 -43.5t-74 -170.5v-292z" horiz-adv-x="546" unicode="0"/>
<glyph glyph-name="one" d="M175 700l-134 -115v-131l134 115v-569h105v700h-105z" horiz-adv-x="359" unicode="1"/>
<glyph glyph-name="two" d="M42 496v-11h105v9q0 58 30.5 86.5t79.5 28.5t79.5 -26.5t30.5 -80.5q0 -39 -19.5 -71.5t-54.5 -69.5l-251 -260v-101h430v101h-287l187 194q51 52 75.5 99t24.5 110q0 122 -74 164t-141 42t-141 -43.5t-74 -170.5v0z" horiz-adv-x="519" unicode="2"/>
<glyph glyph-name="three" d="M260 91q47 0 76.5 25.5t29.5 76.5q0 49 -31.5 78.5t-78.5 29.5h-58v97h58q51 0 80.5 28t29.5 74q0 48 -30.5 78.5t-79.5 30.5q-47 0 -78 -27t-32 -81v-1h-105v1q2 122 75.5 165.5t139.5 43.5q67 0 141 -47t74 -163q0 -49 -23 -90t-60 -60q38 -20 60.5 -64t22.5 -93 q0 -111 -66.5 -157t-141.5 -46q-70 0 -145.5 42.5t-76.5 166.5v1h105v-1q1 -54 34 -81t80 -27v0z" horiz-adv-x="525" unicode="3"/>
<glyph glyph-name="four" d="M498 173v97h-73v430h-105l-311 -430v-97h311v-173h105v173h73zM131 270l189 261v-261h-189z" horiz-adv-x="520" unicode="4"/>
<glyph glyph-name="five" d="M383 193q0 -51 -29.5 -76.5t-76.5 -25.5t-80 27t-34 81v1h-105v-1q2 -124 77 -166.5t145 -42.5q75 0 141.5 46t66.5 157v44q0 127 -71.5 170.5t-132.5 43.5q-31 0 -63.5 -10t-48.5 -26v184h289v101h-394v-412h105q12 31 38.5 46.5t62.5 15.5q49 0 79.5 -28.5t30.5 -86.5 v-42z" horiz-adv-x="526" unicode="5"/>
<glyph glyph-name="six" d="M383 500h105v1q-1 124 -75 166.5t-140 42.5q-67 0 -141 -43.5t-74 -170.5v-292q0 -127 74 -170.5t141 -43.5t141 43.5t74 170.5v26q0 127 -74 170.5t-134 43.5q-34 0 -66 -10t-51 -26v86q0 58 30.5 86.5t79.5 28.5q47 0 78 -27t32 -81v-1zM383 206q0 -58 -30.5 -86.5 t-79.5 -28.5t-79.5 28.5t-30.5 86.5v22q0 58 30.5 86.5t79.5 28.5t79.5 -28.5t30.5 -86.5v-22z" horiz-adv-x="540" unicode="6"/>
<glyph glyph-name="seven" d="M436 599v101h-424v-101h313l-216 -599h111z" horiz-adv-x="454" unicode="7"/>
<glyph glyph-name="eight" d="M269 -10q-66 0 -140.5 45t-74.5 161q0 53 19.5 90.5t54.5 65.5q-34 30 -50.5 66.5t-16.5 87.5q0 116 71 160t137 44t137 -44t71 -160q0 -51 -16.5 -87.5t-50.5 -66.5q35 -28 54.5 -65.5t19.5 -90.5q0 -116 -74.5 -161t-140.5 -45v0zM159 199q0 -54 31.5 -80.5t78.5 -26.5 t78.5 26.5t31.5 80.5q0 50 -31.5 78.5t-78.5 28.5t-78.5 -28t-31.5 -79v0zM372 504q0 50 -30.5 77.5t-74.5 27.5q-43 0 -72 -27.5t-29 -77.5t29 -77.5t72 -27.5q44 0 74.5 27.5t30.5 77.5v0z" horiz-adv-x="538" unicode="8"/>
<glyph glyph-name="nine" d="M52 200v-1q1 -124 75 -166.5t140 -42.5q67 0 141 43.5t74 170.5v292q0 127 -74 170.5t-141 43.5t-141 -43.5t-74 -170.5v-26q0 -127 74 -170.5t134 -43.5q34 0 66 10t51 26v-86q0 -58 -30.5 -86.5t-79.5 -28.5q-47 0 -78 27t-32 81v1h-105zM157 494q0 58 30.5 86.5 t79.5 28.5t79.5 -28.5t30.5 -86.5v-22q0 -58 -30.5 -86.5t-79.5 -28.5t-79.5 28.5t-30.5 86.5v22z" horiz-adv-x="540" unicode="9"/>
<glyph glyph-name="colon" d="M79 382h134v134h-134v-134zM79 0h134v134h-134v-134z" unicode=":"/>
<glyph glyph-name="semicolon" d="M79 382h134v134h-134v-134zM79 0h55l-39 -104h79l39 104v134h-134v-134z" unicode=";"/>
<glyph glyph-name="less" d="M162 259l332 162v102l-430 -210v-108l430 -210v102z" horiz-adv-x="558" unicode="&lt;"/>
<glyph glyph-name="equal" d="M64 340v91h430v-91h-430zM494 210v-91h-430v91h430z" horiz-adv-x="558" unicode="="/>
<glyph glyph-name="greater" d="M396 259l-332 162v102l430 -210v-108l-430 -210v102z" horiz-adv-x="558" unicode="&gt;"/>
<glyph glyph-name="question" d="M141 500v1q1 54 32 81t78 27q49 0 79.5 -28.5t30.5 -86.5q0 -32 -17.5 -57.5t-36.5 -43.5l-52 -48q-37 -33 -49 -56t-12 -57v-22h105v12q0 17 6.5 28t24.5 27l52 48q35 32 59.5 76t24.5 95q0 127 -74 170.5t-141 43.5q-66 0 -140 -43t-75 -166v-1h105zM180 0h134v134 h-134v-134z" horiz-adv-x="516" unicode="?"/>
<glyph glyph-name="at" d="M567 328q-65 -4 -118 -10t-99 -20q-64 -20 -88 -65.5t-24 -89.5q0 -79 53 -116t123 -37q51 0 90 14.5t64 44.5q21 -25 58 -42t91 -17q69 0 102 39t33 97v189q0 234 -135 314.5t-259 80.5t-259 -80.5t-135 -314.5v-114q0 -234 135 -314.5t259 -80.5q57 0 121 14.5 t119 51.5l-50 83q-43 -31 -93.5 -43t-96.5 -12q-94 0 -196.5 60t-102.5 238v120q0 178 102.5 238t196.5 60t196.5 -60t102.5 -238v-189q0 -22 -13 -33.5t-29 -11.5t-29 11.5t-13 33.5v187q0 127 -74 170.5t-141 43.5q-62 0 -130.5 -36t-81.5 -138h107q10 37 38 55t67 18 q46 0 75.5 -25t33.5 -76v0zM431 91q-42 0 -65 15t-23 46q0 19 7.5 30.5t17.5 17.5q28 17 79.5 24t120.5 11v-29q0 -72 -46 -93.5t-91 -21.5v0z" horiz-adv-x="916" unicode="@"/>
<glyph glyph-name="A" d="M498 0h110l-245 700h-110l-245 -700h110l59 169h262zM211 268l97 278l97 -278h-194z" horiz-adv-x="616" unicode="A"/>
<glyph glyph-name="B" d="M74 0h287q104 0 159.5 54.5t55.5 147.5q0 46 -20.5 87.5t-65.5 68.5q34 24 51.5 61t17.5 81q0 90 -55.5 145t-159.5 55h-270v-700zM344 594q49 0 77.5 -24t28.5 -70t-28.5 -70t-77.5 -24h-163v188h163zM361 300q49 0 77.5 -24.5t28.5 -72.5t-28.5 -72.5t-77.5 -24.5h-180 v194h180z" horiz-adv-x="617" unicode="B"/>
<glyph glyph-name="C" d="M554 217h-107q-7 -63 -50.5 -92t-92.5 -29q-52 0 -98 34t-46 107v226q0 73 46 107t98 34q49 0 92.5 -29t50.5 -92h107q-6 104 -74.5 165.5t-175.5 61.5q-112 0 -181.5 -67t-69.5 -180v-226q0 -113 69.5 -180t181.5 -67q107 0 175 61.5t75 165.5v0z" horiz-adv-x="597" unicode="C"/>
<glyph glyph-name="D" d="M325 0q112 0 181.5 67t69.5 180v206q0 113 -69.5 180t-181.5 67h-251v-700h251zM181 106v488h144q52 0 98 -35t46 -108v-202q0 -73 -46 -108t-98 -35h-144z" horiz-adv-x="629" unicode="D"/>
<glyph glyph-name="E" d="M181 594h306v106h-413v-700h413v106h-306v194h306v106h-306v188z" horiz-adv-x="545" unicode="E"/>
<glyph glyph-name="F" d="M181 594h306v106h-413v-700h107v300h306v106h-306v188z" horiz-adv-x="535" unicode="F"/>
<glyph glyph-name="G" d="M304 710q-112 0 -181.5 -67t-69.5 -180v-226q0 -113 69.5 -180t181.5 -67t181.5 67t69.5 180v148h-251v-103h144v-45q0 -73 -46 -107t-98 -34t-98 34t-46 107v226q0 73 46 107t98 34q48 0 91.5 -28.5t51.5 -89.5h107q-7 103 -75.5 163.5t-174.5 60.5v0z" horiz-adv-x="604" unicode="G"/>
<glyph glyph-name="H" d="M469 406h-288v294h-107v-700h107v300h288v-300h107v700h-107v-294z" horiz-adv-x="650" unicode="H"/>
<glyph glyph-name="I" d="M181 700h-107v-700h107v700z" horiz-adv-x="255" unicode="I"/>
<glyph glyph-name="J" d="M8 200q1 -104 54.5 -157t146.5 -53t147 54t54 161v495h-107v-495q0 -48 -23 -78.5t-71 -30.5q-46 0 -69.5 29t-24.5 75h-107z" horiz-adv-x="475" unicode="J"/>
<glyph glyph-name="K" d="M181 203l107 126l217 -329h126l-272 412l245 288h-132l-291 -342v342h-107v-700h107v203z" horiz-adv-x="631" unicode="K"/>
<glyph glyph-name="L" d="M74 0h413v106h-306v594h-107v-700z" horiz-adv-x="496" unicode="L"/>
<glyph glyph-name="M" d="M368 313l-187 387h-107v-700h106v486l144 -298h88l144 298v-486h106v700h-107z" horiz-adv-x="736" unicode="M"/>
<glyph glyph-name="N" d="M576 700h-107v-502l-288 502h-107v-700h107v502l288 -502h107v700z" horiz-adv-x="650" unicode="N"/>
<glyph glyph-name="O" d="M448 237q0 -73 -46 -107t-98 -34t-98 34t-46 107v226q0 73 46 107t98 34t98 -34t46 -107v-226zM53 237q0 -113 69.5 -180t181.5 -67t181.5 67t69.5 180v226q0 113 -69.5 180t-181.5 67t-181.5 -67t-69.5 -180v-226z" horiz-adv-x="608" unicode="O"/>
<glyph glyph-name="P" d="M340 596q67 0 97 -37t30 -87t-30 -87t-97 -37h-159v248h159zM181 242h159q121 0 178.5 68t57.5 161t-57.5 161t-178.5 68h-266v-700h107v242z" horiz-adv-x="599" unicode="P"/>
<glyph glyph-name="Q" d="M53 237q0 -113 69.5 -180t181.5 -67q38 0 71.5 8t61.5 23l65 -66l73 71l-62 63q20 30 31 67.5t11 80.5v226q0 113 -69.5 180t-181.5 67t-181.5 -67t-69.5 -180v-226zM293 169l64 -65q-13 -4 -26.5 -6t-26.5 -2q-52 0 -98 34t-46 107v226q0 73 46 107t98 34t98 -34 t46 -107v-226q0 -19 -3.5 -36t-10.5 -30l-68 69z" horiz-adv-x="619" unicode="Q"/>
<glyph glyph-name="R" d="M181 301v-301h-107v700h275q104 0 159.5 -55t55.5 -145q0 -77 -40.5 -128.5t-116.5 -65.5l180 -306h-120l-177 301h-109zM455 499q0 46 -28.5 70.5t-77.5 24.5h-168v-190h168q49 0 77.5 24.5t28.5 70.5v0z" horiz-adv-x="610" unicode="R"/>
<glyph glyph-name="S" d="M288 -10q109 0 169 54.5t60 138.5t-42.5 135.5t-125.5 71.5l-120 29q-34 8 -56.5 30.5t-22.5 62.5t28 66t90 26q51 0 85 -24t44 -67h109q-13 87 -73.5 142t-165.5 55q-93 0 -159.5 -48.5t-66.5 -149.5q0 -75 37.5 -127.5t106.5 -68.5l124 -30q52 -13 75.5 -37.5 t23.5 -63.5q0 -40 -32 -64.5t-86 -24.5q-61 0 -100.5 31.5t-50.5 89.5h-109q8 -97 73 -162t185 -65v0z" horiz-adv-x="555" unicode="S"/>
<glyph glyph-name="T" d="M509 594v106h-501v-106h197v-594h107v594h197z" horiz-adv-x="517" unicode="T"/>
<glyph glyph-name="U" d="M460 237q0 -73 -46 -107t-98 -34t-98 34t-46 107v463h-107v-463q0 -113 69.5 -180t181.5 -67t181.5 67t69.5 180v463h-107v-463z" horiz-adv-x="632" unicode="U"/>
<glyph glyph-name="V" d="M363 0h-110l-245 700h110l190 -546l190 546h110z" horiz-adv-x="616" unicode="V"/>
<glyph glyph-name="W" d="M372 441l-121 -441h-101l-129 700h105l89 -490l107 390h100l107 -390l89 490h105l-129 -700h-101z" horiz-adv-x="744" unicode="W"/>
<glyph glyph-name="X" d="M306 286l-174 -286h-120l222 362l-207 338h120l159 -261l159 261h120l-207 -338l222 -362h-120z" horiz-adv-x="612" unicode="X"/>
<glyph glyph-name="Y" d="M350 267v-267h-107v267l-246 433h118l182 -322l182 322h118z" horiz-adv-x="594" unicode="Y"/>
<glyph glyph-name="Z" d="M540 0v106h-377l372 488v106h-497v-106h367l-372 -488v-106h507z" horiz-adv-x="585" unicode="Z"/>
<glyph glyph-name="bracketleft" d="M90 700h169v-94h-74v-656h74v-94h-169v844z" unicode="["/>
<glyph glyph-name="backslash" d="M376 0h-104l-283 700h104z" horiz-adv-x="365" unicode="\"/>
<glyph glyph-name="bracketright" d="M202 700h-169v-94h74v-656h-74v-94h169v844z" unicode="]"/>
<glyph glyph-name="asciicircum" d="M312 588l-146 -288h-107l203 400h100l203 -400h-107z" horiz-adv-x="624" unicode="^"/>
<glyph glyph-name="underscore" d="M-6 -47v-91h430v91h-430z" horiz-adv-x="418" unicode="_"/>
<glyph glyph-name="grave" d="M182 700l67 -129h-84l-118 129h135z" horiz-adv-x="309" unicode="`"/>
<glyph glyph-name="a" d="M266 429q46 0 75.5 -25t33.5 -75v-1q-65 -4 -118 -10t-99 -20q-64 -20 -88 -65.5t-24 -89.5q0 -79 53 -116t123 -37q51 0 90 14.5t64 44.5v-49h105v316q0 127 -74 170.5t-141 43.5q-62 0 -130.5 -36t-81.5 -138h107q10 37 38 55t67 18v0zM239 91q-42 0 -65 15t-23 46 q0 19 7.5 30.5t17.5 17.5q28 17 79.5 24t120.5 11v-29q0 -72 -46 -93.5t-91 -21.5v0z" horiz-adv-x="543" unicode="a"/>
<glyph glyph-name="b" d="M394 206q0 -58 -30.5 -86t-79.5 -28t-79.5 28t-30.5 86v108q0 58 30.5 86t79.5 28t79.5 -28t30.5 -86v-108zM499 316q0 119 -69.5 166.5t-135.5 47.5q-40 0 -74.5 -18.5t-45.5 -40.5v229h-105v-700h105v49q11 -22 45.5 -40.5t74.5 -18.5q66 0 135.5 47.5t69.5 166.5v112z " horiz-adv-x="554" unicode="b"/>
<glyph glyph-name="c" d="M484 176h-106q-7 -43 -36.5 -64t-71.5 -21q-49 0 -79.5 28.5t-30.5 86.5v108q0 58 30.5 86.5t79.5 28.5q42 0 71 -21t36 -64h107q-10 110 -80.5 148t-133.5 38q-67 0 -141 -43.5t-74 -170.5v-112q0 -127 74 -170.5t141 -43.5q63 0 133.5 38t80.5 148v0z" horiz-adv-x="529" unicode="c"/>
<glyph glyph-name="d" d="M160 206q0 -58 30 -86t73 -28q49 0 83 28t34 86v108q0 58 -30.5 86t-79.5 28t-79.5 -28t-30.5 -86v-108zM55 316q0 119 69.5 166.5t135.5 47.5q40 0 74.5 -18.5t45.5 -40.5v229h105v-700h-105v49q-11 -22 -45.5 -40.5t-74.5 -18.5q-66 0 -135.5 47.5t-69.5 166.5v112z " horiz-adv-x="554" unicode="d"/>
<glyph glyph-name="e" d="M270 91q-49 0 -79.5 28.5t-30.5 86.5v17h325v93q0 127 -74 170.5t-141 43.5t-141 -43.5t-74 -170.5v-112q0 -127 74 -170.5t141 -43.5q62 0 130.5 36t81.5 138h-107q-10 -37 -38 -55t-67 -18v0zM270 429q48 0 78.5 -28t31.5 -84v-1h-220v1q0 56 30.5 84t79.5 28v0z" horiz-adv-x="535" unicode="e"/>
<glyph glyph-name="f" d="M327 599v101h-109q-64 0 -93.5 -31.5t-29.5 -91.5v-61h-73v-99h73v-417h105v417h127v99h-127v34q0 28 8.5 38.5t39.5 10.5h79z" horiz-adv-x="335" unicode="f"/>
<glyph glyph-name="g" d="M268 -93q-41 0 -70 20.5t-37 62.5h-106q10 -108 80 -146t133 -38q67 0 141 43.5t74 170.5v496h-105v-45q-11 22 -45.5 40.5t-74.5 18.5q-66 0 -135.5 -47.5t-69.5 -166.5v-82q0 -119 69.5 -166.5t135.5 -47.5q40 0 74.5 18.5t45.5 40.5v-57q0 -58 -30.5 -86.5 t-79.5 -28.5v0zM158 314q0 58 30.5 86t79.5 28t79.5 -28t30.5 -86v-78q0 -58 -30.5 -86t-79.5 -28t-79.5 28t-30.5 86v78z" horiz-adv-x="552" unicode="g"/>
<glyph glyph-name="h" d="M174 314q0 58 30.5 86t79.5 28t79.5 -28t30.5 -86v-314h105v316q0 119 -69.5 166.5t-135.5 47.5q-40 0 -74.5 -18.5t-45.5 -40.5v229h-105v-700h105v314z" horiz-adv-x="561" unicode="h"/>
<glyph glyph-name="i" d="M174 700h-105v-107h105v107zM174 516h-105v-516h105v516z" horiz-adv-x="243" unicode="i"/>
<glyph glyph-name="j" d="M174 700h-105v-107h105v107zM69 -34q0 -28 -8.5 -38.5t-39.5 -10.5h-16v-101h46q64 0 93.5 31.5t29.5 91.5v577h-105v-550z" horiz-adv-x="243" unicode="j"/>
<glyph glyph-name="k" d="M174 700h-105v-700h105v168l64 70l162 -238h122l-214 314l186 202h-127l-193 -210v394z" horiz-adv-x="526" unicode="k"/>
<glyph glyph-name="l" d="M172 150q0 -28 8.5 -38.5t39.5 -10.5h16v-101h-46q-64 0 -93.5 31.5t-29.5 91.5v577h105v-550z" horiz-adv-x="272" unicode="l"/>
<glyph glyph-name="m" d="M489 314q0 58 31 86t74 28t74 -28t31 -86v-314h105v316q0 119 -69.5 166.5t-140.5 47.5q-40 0 -86 -18t-71 -55q-25 37 -68.5 55t-79.5 18q-37 0 -71 -19t-44 -40v45h-105v-516h105v314q0 58 31 86t74 28t74 -28t31 -86v-314h105v314z" horiz-adv-x="866" unicode="m"/>
<glyph glyph-name="n" d="M174 314q0 58 30.5 86t79.5 28t79.5 -28t30.5 -86v-314h105v316q0 119 -69.5 166.5t-135.5 47.5q-40 0 -74.5 -18.5t-45.5 -40.5v45h-105v-516h105v314z" horiz-adv-x="561" unicode="n"/>
<glyph glyph-name="o" d="M380 206q0 -58 -30.5 -86.5t-79.5 -28.5t-79.5 28.5t-30.5 86.5v108q0 58 30.5 86.5t79.5 28.5t79.5 -28.5t30.5 -86.5v-108zM55 204q0 -127 74 -170.5t141 -43.5t141 43.5t74 170.5v112q0 127 -74 170.5t-141 43.5t-141 -43.5t-74 -170.5v-112z" horiz-adv-x="540" unicode="o"/>
<glyph glyph-name="p" d="M394 206q0 -58 -30.5 -86t-79.5 -28t-79.5 28t-30.5 86v108q0 58 30.5 86t79.5 28t79.5 -28t30.5 -86v-108zM499 316q0 119 -69.5 166.5t-135.5 47.5q-40 0 -74.5 -18.5t-45.5 -40.5v45h-105v-700h105v233q11 -22 45.5 -40.5t74.5 -18.5q66 0 135.5 47.5t69.5 166.5v112z " horiz-adv-x="554" unicode="p"/>
<glyph glyph-name="q" d="M160 206q0 -58 30 -86t73 -28q49 0 83 28t34 86v108q0 58 -30.5 86t-79.5 28t-79.5 -28t-30.5 -86v-108zM55 316q0 119 69.5 166.5t135.5 47.5q40 0 74.5 -18.5t45.5 -40.5v45h105v-700h-105v233q-11 -22 -45.5 -40.5t-74.5 -18.5q-66 0 -135.5 47.5t-69.5 166.5v112z " horiz-adv-x="554" unicode="q"/>
<glyph glyph-name="r" d="M334 423v102h-40q-40 0 -74.5 -18.5t-45.5 -40.5v50h-105v-516h105v309q0 58 30.5 86t79.5 28h50z" horiz-adv-x="345" unicode="r"/>
<glyph glyph-name="s" d="M253 -10q84 0 137.5 38t54.5 114q0 73 -35.5 108.5t-105.5 53.5l-95 24q-21 5 -39.5 15t-18.5 33q0 31 25 42t49 11q36 0 62.5 -15t32.5 -49h110q-7 86 -61 125.5t-137 39.5q-78 0 -132.5 -38t-54.5 -114q0 -74 40 -107.5t91 -46.5l98 -25q25 -6 45 -17t20 -37 q0 -31 -25.5 -42.5t-59.5 -11.5q-42 0 -74.5 18t-38.5 56h-108q4 -88 67.5 -131.5t152.5 -43.5v0z" horiz-adv-x="482" unicode="s"/>
<glyph glyph-name="t" d="M198 150q0 -28 8.5 -38.5t39.5 -10.5h79v-101h-109q-64 0 -93.5 31.5t-29.5 91.5v294h-73v99h73v117h105v-117h127v-99h-127v-267z" horiz-adv-x="359" unicode="t"/>
<glyph glyph-name="u" d="M167 516h-105v-312q0 -113 66.5 -163.5t132.5 -50.5q40 0 74.5 18.5t45.5 40.5v-49h105v516h-105v-310q0 -58 -30.5 -86t-76.5 -28t-76.5 28t-30.5 86v310z" horiz-adv-x="555" unicode="u"/>
<glyph glyph-name="v" d="M238 149l-129 367h-109l186 -516h104l186 516h-109z" horiz-adv-x="476" unicode="v"/>
<glyph glyph-name="w" d="M400 516h-112l-88 -351l-86 351h-107l136 -516h106l95 379l95 -379h106l136 516h-107l-86 -351z" horiz-adv-x="688" unicode="w"/>
<glyph glyph-name="x" d="M246 185l-121 -185h-116l175 265l-167 251h116l113 -172l113 172h116l-167 -251l175 -265h-116z" horiz-adv-x="492" unicode="x"/>
<glyph glyph-name="y" d="M476 516h-109l-129 -367l-129 367h-109l184 -509l-14 -38q-13 -32 -22.5 -42t-47.5 -10h-21v-101h54q46 0 74.5 16.5t39.5 48.5z" horiz-adv-x="476" unicode="y"/>
<glyph glyph-name="z" d="M411 417v99h-371v-99h240l-247 -318v-99h385v99h-254z" horiz-adv-x="450" unicode="z"/>
<glyph glyph-name="braceleft" d="M122 -21q0 -60 29.5 -91.5t93.5 -31.5h46v94h-24q-30 0 -40 11.5t-10 39.5v201q0 23 -6 44t-26 32q20 10 26 31.5t6 44.5v201q0 28 10 39.5t40 11.5h24v94h-46q-64 0 -93.5 -31.5t-29.5 -91.5v-201q0 -25 -8.5 -38t-33.5 -13h-32v-94h32q25 0 33.5 -13t8.5 -38v-201z" horiz-adv-x="324" unicode="{"/>
<glyph glyph-name="bar" d="M169 700h-95v-800h95v800z" horiz-adv-x="243" unicode="|"/>
<glyph glyph-name="braceright" d="M202 -21q0 -60 -29.5 -91.5t-93.5 -31.5h-46v94h24q30 0 40 11.5t10 39.5v201q0 23 6 44t26 32q-20 10 -26 31.5t-6 44.5v201q0 28 -10 39.5t-40 11.5h-24v94h46q64 0 93.5 -31.5t29.5 -91.5v-201q0 -25 8.5 -38t33.5 -13h32v-94h-32q-25 0 -33.5 -13t-8.5 -38v-201z" horiz-adv-x="324" unicode="}"/>
<glyph glyph-name="asciitilde" d="M112 212q25 27 43.5 36.5t39.5 9.5q29 0 67.5 -23t84.5 -23q33 0 66.5 17t70.5 56l-58 64q-25 -27 -43.5 -36.5t-39.5 -9.5q-29 0 -67.5 23t-84.5 23q-33 0 -66.5 -17t-70.5 -56z" horiz-adv-x="538" unicode="~"/>
<glyph glyph-name="exclamdown" d="M184 306h-105v-490h105v490zM64 382h134v134h-134v-134z" horiz-adv-x="262" unicode="¡"/>
<glyph glyph-name="cent" d="M489 176h-106q-7 -37 -30 -58t-57 -26v335q34 -4 56.5 -25t29.5 -58h107q-9 101 -70.5 141t-122.5 44v91h-43v-91q-65 -5 -129 -51t-64 -162v-112q0 -117 64 -162.5t129 -50.5v-91h43v91q61 4 122.5 44t70.5 141v0zM165 206v108q0 51 24 79.5t64 33.5v-335 q-40 6 -64 34.5t-24 79.5v0z" horiz-adv-x="539" unicode="¢"/>
<glyph glyph-name="sterling" d="M59 0h494v101h-334q4 6 6.5 15t2.5 23v179h220v66h-220v110q0 58 30.5 86.5t79.5 28.5t79.5 -28.5t30.5 -86.5h105v2q0 127 -74 170.5t-141 43.5t-141 -43.5t-74 -170.5v-112h-64v-66h64v-168q0 -26 -7.5 -37t-32.5 -12h-24v-101z" horiz-adv-x="602" unicode="£"/>
<glyph glyph-name="currency" d="M59 89l46 -47l85 85q34 -27 77 -42t90 -15q46 0 89 15t77 42l85 -85l46 47l-85 84q27 34 42.5 77t15.5 90t-15.5 89.5t-42.5 76.5l85 85l-46 47l-85 -85q-34 27 -77 42t-89 15q-47 0 -90 -15.5t-77 -42.5l-85 86l-46 -47l85 -85q-27 -34 -42 -77t-15 -89q0 -47 15 -89.5 t42 -76.5zM188 340q0 69 50 119t119 50t119 -50t50 -119t-50 -119t-119 -50t-119 50t-50 119v0z" horiz-adv-x="713" unicode="¤"/>
<glyph glyph-name="yen" d="M502 700h116l-210 -367h124v-66h-162v-67h162v-66h-162v-134h-105v134h-162v66h162v67h-162v66h124l-209 367h116l184 -324z" horiz-adv-x="636" unicode="¥"/>
<glyph glyph-name="brokenbar" d="M74 -100h95v339h-95v-339zM74 361h95v339h-95v-339z" horiz-adv-x="243" unicode="¦"/>
<glyph glyph-name="section" d="M290 57q40 -15 55 -37.5t15 -50.5q0 -37 -26 -53.5t-64 -16.5q-39 0 -66.5 21.5t-32.5 60.5h-98q10 -84 60.5 -129.5t136.5 -45.5q84 0 134.5 40t50.5 122q0 43 -14.5 75.5t-40.5 56.5q40 21 61 58t21 88q0 90 -45 125.5t-93 52.5l-107 38q-23 8 -40.5 28t-17.5 50 q0 37 26.5 57t61.5 20q41 0 64.5 -19.5t30.5 -53.5h97q-10 81 -58.5 123.5t-133.5 42.5q-86 0 -135 -48.5t-49 -119.5q0 -44 15 -76t39 -53q-39 -22 -60 -59t-21 -85q0 -90 45 -125.5t93 -52.5zM318 332q35 -13 52 -33t17 -52q0 -39 -26.5 -62.5t-72.5 -26.5l-68 25 q-35 13 -52 32.5t-17 51.5q1 39 27 62.5t72 26.5z" horiz-adv-x="538" unicode="§"/>
<glyph glyph-name="dieresis" d="M166 689h-105v-107h105v107zM359 689h-105v-107h105v107z" horiz-adv-x="420" unicode="¨"/>
<glyph glyph-name="copyright" d="M39 350q0 -149 105.5 -254.5t254.5 -105.5t254.5 105.5t105.5 254.5t-105.5 254.5t-254.5 105.5t-254.5 -105.5t-105.5 -254.5v0zM134 350q0 109 77.5 187.5t187.5 78.5t187.5 -78.5t77.5 -187.5t-77.5 -187.5t-187.5 -78.5t-187.5 78.5t-77.5 187.5v0zM399 153 q73 0 111.5 39t39.5 101h-86q-2 -25 -19 -40.5t-46 -15.5q-31 0 -48 17.5t-17 45.5v100q0 28 17 45t48 17q29 0 46 -15.5t19 -40.5h86q-1 62 -39.5 101.5t-111.5 39.5q-74 0 -112 -41.5t-38 -105.5v-100q0 -65 38 -106t112 -41v0z" horiz-adv-x="798" unicode="©"/>
<glyph glyph-name="ordfeminine" d="M134 395q37 0 55 13.5t26 29.5v-37h85v163q0 55 -30 99.5t-108 44.5q-65 0 -94.5 -31t-39.5 -71h85q6 12 18 20t31 8q22 0 34.5 -10.5t16.5 -25.5q-31 -2 -75.5 -8t-63.5 -17q-28 -16 -40 -34.5t-12 -54.5q0 -39 27.5 -64t84.5 -25v0zM149 467q-26 0 -34 10.5t-8 17.5 q0 8 2.5 13t14.5 11q7 3 35 6t56 4v-6q0 -21 -17.5 -38.5t-48.5 -17.5v0z" horiz-adv-x="331" unicode="ª"/>
<glyph glyph-name="guillemotleft" d="M51 226v94l172 151v-126l-82 -72l82 -72v-126zM255 226v94l172 151v-126l-82 -72l82 -72v-126z" horiz-adv-x="486" unicode="«"/>
<glyph glyph-name="logicalnot" d="M64 326v-91h339v-170h91v261h-430z" horiz-adv-x="558" unicode="¬"/>
<glyph glyph-name="registered" d="M39 350q0 -149 105.5 -254.5t254.5 -105.5t254.5 105.5t105.5 254.5t-105.5 254.5t-254.5 105.5t-254.5 -105.5t-105.5 -254.5v0zM134 350q0 109 77.5 187.5t187.5 78.5t187.5 -78.5t77.5 -187.5t-77.5 -187.5t-187.5 -78.5t-187.5 78.5t-77.5 187.5v0zM468 158l-89 152 h-33v-152h-85v383h170q59 0 91.5 -31t32.5 -84q0 -43 -21 -72t-59 -39l92 -157h-99zM346 393h88q16 0 26 8t10 23q0 16 -10 24.5t-26 8.5h-88v-64z" horiz-adv-x="798" unicode="®"/>
<glyph glyph-name="macron" d="M58 678v-85h322v85h-322z" horiz-adv-x="438" unicode="¯"/>
<glyph glyph-name="degree" d="M45 549q0 -64 46 -110t110 -46t110 46t46 110t-46 110t-110 46t-110 -46t-46 -110v0zM127 549q0 31 21.5 53t52.5 22t52.5 -22t21.5 -53t-21.5 -53t-52.5 -22t-52.5 22t-21.5 53v0z" horiz-adv-x="402" unicode="°"/>
<glyph glyph-name="plusminus" d="M64 294v91h170v131h91v-131h169v-91h-169v-131h-91v131h-170zM494 91v-91h-430v91h430z" horiz-adv-x="558" unicode="±"/>
<glyph glyph-name="two.superior" d="M19 401h277v75h-154l94 87q31 28 45.5 55t14.5 67q0 49 -32.5 88.5t-105.5 39.5q-75 0 -105.5 -42t-33.5 -93h85v6q0 22 13.5 38t40.5 16t40 -16t13 -38q0 -13 -5 -25.5t-22 -28.5l-165 -154v-75z" horiz-adv-x="318" unicode="²"/>
<glyph glyph-name="three.superior" d="M157 395q-70 0 -101 38t-37 84h84q2 -19 16.5 -33t39.5 -14q23 0 37 12.5t14 33.5q0 22 -16 35.5t-42 13.5h-33v76h33q27 0 42.5 10.5t15.5 30.5q0 25 -13 40.5t-40 15.5q-25 0 -38.5 -14t-15.5 -33h-84q6 47 36 84.5t102 37.5q75 0 106.5 -41.5t31.5 -84.5 q0 -19 -9 -43.5t-31 -42.5q19 -13 29.5 -41.5t10.5 -50.5q0 -48 -33.5 -81t-104.5 -33v0z" horiz-adv-x="321" unicode="³"/>
<glyph glyph-name="acute" d="M127 700l-67 -129h84l118 129h-135z" horiz-adv-x="309" unicode="´"/>
<glyph glyph-name="mu" d="M281 -10q35 0 65.5 18t41.5 39v-47h105v516h-105v-310q0 -58 -30.5 -86t-76.5 -28t-76.5 28t-30.5 86v310h-105v-700h105v231q11 -21 41.5 -39t65.5 -18v0z" horiz-adv-x="562" unicode="µ"/>
<glyph glyph-name="paragraph" d="M536 700h-310q-82 0 -140.5 -59.5t-58.5 -140.5q0 -82 58.5 -141t140.5 -59h10v-387h95v693h110v-693h95v787z" horiz-adv-x="615" unicode="¶"/>
<glyph glyph-name="periodcentered" d="M84 223h134v134h-134v-134z" horiz-adv-x="302" unicode="·"/>
<glyph glyph-name="cedilla" d="M49 -158h113l38 158h-86z" horiz-adv-x="271" unicode="¸"/>
<glyph glyph-name="one.superior" d="M96 401h85v406h-85l-77 -68v-112l77 67v-293z" horiz-adv-x="222" unicode="¹"/>
<glyph glyph-name="ordmasculine" d="M165 470q-27 0 -40 16t-13 38v56q0 22 13 38t40 16t40 -16t13 -38v-56q0 -22 -13 -38t-40 -16v0zM165 395q78 0 108 44.5t30 100.5v24q0 55 -30 99.5t-108 44.5t-108 -44.5t-30 -99.5v-24q0 -56 30 -100.5t108 -44.5v0z" horiz-adv-x="330" unicode="º"/>
<glyph glyph-name="guillemotright" d="M219 226v94l-172 151v-126l82 -72l-82 -72v-126zM423 226v94l-172 151v-126l82 -72l-82 -72v-126z" horiz-adv-x="486" unicode="»"/>
<glyph glyph-name="onequarter" d="M196 294h85v406h-85l-77 -68v-112l77 67v-293zM631 700l-481 -700h95l481 700h-95zM698 0h85v88h42v74h-42v244h-85l-173 -244v-74h173v-88zM625 162l73 103v-103h-73z" horiz-adv-x="876" unicode="¼"/>
<glyph glyph-name="onehalf" d="M196 294h85v406h-85l-77 -68v-112l77 67v-293zM631 700l-481 -700h95l481 700h-95zM537 0h277v75h-154l94 87q31 28 45.5 55t14.5 67q0 49 -32.5 88.5t-105.5 39.5q-75 0 -105.5 -42t-33.5 -93h85v6q0 22 13.5 38t40.5 16t40 -16t13 -38q0 -13 -5 -25.5t-22 -28.5 l-165 -154v-75z" horiz-adv-x="876" unicode="½"/>
<glyph glyph-name="threequarters" d="M200 288q-70 0 -101 38t-37 84h84q2 -19 16.5 -33t39.5 -14q23 0 37 12.5t14 33.5q0 22 -16 35.5t-42 13.5h-33v76h33q27 0 42.5 10.5t15.5 30.5q0 25 -13 40.5t-40 15.5q-25 0 -38.5 -14t-15.5 -33h-84q6 47 36 84.5t102 37.5q75 0 106.5 -41.5t31.5 -84.5 q0 -19 -9 -43.5t-31 -42.5q19 -13 29.5 -41.5t10.5 -50.5q0 -48 -33.5 -81t-104.5 -33v0zM631 700l-481 -700h95l481 700h-95zM698 0h85v88h42v74h-42v244h-85l-173 -244v-74h173v-88zM625 162l73 103v-103h-73z" horiz-adv-x="876" unicode="¾"/>
<glyph glyph-name="questiondown" d="M367 16q-1 -55 -32 -82t-78 -27q-49 0 -79.5 28.5t-30.5 86.5q0 32 17.5 57.5t36.5 43.5l52 48q37 33 49 56t12 57v22h-105v-12q0 -17 -6.5 -28t-24.5 -27l-52 -48q-35 -32 -59.5 -76t-24.5 -95q0 -127 74 -170.5t141 -43.5q66 0 140 43t75 167h-105zM190 382h134v134 h-134v-134z" horiz-adv-x="498" unicode="¿"/>
<glyph glyph-name="Agrave" d="M498 0h110l-245 700h-110l-245 -700h110l59 169h262zM211 268l97 278l97 -278h-194zM293 854l82 -109h-91l-128 109h137z" horiz-adv-x="616" unicode="À"/>
<glyph glyph-name="Aacute" d="M498 0h110l-245 700h-110l-245 -700h110l59 169h262zM211 268l97 278l97 -278h-194zM317 854l-82 -109h91l128 109h-137z" horiz-adv-x="616" unicode="Á"/>
<glyph glyph-name="Acircumflex" d="M498 0h110l-245 700h-110l-245 -700h110l59 169h262zM211 268l97 278l97 -278h-194zM308 781l-44 -36h-130l132 109h84l132 -109h-130z" horiz-adv-x="616" unicode="Â"/>
<glyph glyph-name="Atilde" d="M498 0h110l-245 700h-110l-245 -700h110l59 169h262zM211 268l97 278l97 -278h-194zM248 859q-25 0 -61.5 -20.5t-49.5 -95.5h91q5 14 12.5 21t17.5 7q4 0 9.5 -2t10.5 -4l38 -16q13 -6 26 -7t26 -1q25 0 61.5 20.5t49.5 95.5h-91q-5 -14 -12.5 -21t-17.5 -7q-4 0 -9.5 2 t-10.5 4l-38 16q-13 6 -26 7t-26 1v0z" horiz-adv-x="616" unicode="Ã"/>
<glyph glyph-name="Adieresis" d="M498 0h110l-245 700h-110l-245 -700h110l59 169h262zM211 268l97 278l97 -278h-194zM266 853h-107v-107h107v107zM457 853h-107v-107h107v107z" horiz-adv-x="616" unicode="Ä"/>
<glyph glyph-name="Aring" d="M498 0h110l-245 700h-110l-245 -700h110l59 169h262zM211 268l97 278l97 -278h-194zM234 799q0 -31 21.5 -52.5t52.5 -21.5t53 21.5t22 52.5t-22 53t-53 22t-52.5 -22t-21.5 -53v0zM287 799q0 9 6 15t15 6t15 -6t6 -15t-6 -15t-15 -6t-15 6t-6 15v0z" horiz-adv-x="616" unicode="Å"/>
<glyph glyph-name="AE" d="M237 268l152 330v-330h-152zM802 0v106h-306v194h306v106h-306v188h306v106h-479l-322 -700h113l78 169h197v-169h413z" horiz-adv-x="860" unicode="Æ"/>
<glyph glyph-name="Ccedilla" d="M202 -158h115l36 152q87 13 141 72t60 151h-107q-7 -63 -50.5 -92t-92.5 -29q-52 0 -98 34t-46 107v226q0 73 46 107t98 34q49 0 92.5 -29t50.5 -92h107q-6 104 -74.5 165.5t-175.5 61.5q-112 0 -181.5 -67t-69.5 -180v-226q0 -101 56.5 -166t149.5 -78z" horiz-adv-x="597" unicode="Ç"/>
<glyph glyph-name="Egrave" d="M181 594h306v106h-413v-700h413v106h-306v194h306v106h-306v188zM265 854l82 -109h-91l-128 109h137z" horiz-adv-x="545" unicode="È"/>
<glyph glyph-name="Eacute" d="M181 594h306v106h-413v-700h413v106h-306v194h306v106h-306v188zM289 854l-82 -109h91l128 109h-137z" horiz-adv-x="545" unicode="É"/>
<glyph glyph-name="Ecircumflex" d="M181 594h306v106h-413v-700h413v106h-306v194h306v106h-306v188zM280 781l-44 -36h-130l132 109h84l132 -109h-130z" horiz-adv-x="545" unicode="Ê"/>
<glyph glyph-name="Edieresis" d="M181 594h306v106h-413v-700h413v106h-306v194h306v106h-306v188zM238 853h-107v-107h107v107zM429 853h-107v-107h107v107z" horiz-adv-x="545" unicode="Ë"/>
<glyph glyph-name="Igrave" d="M181 700h-107v-700h107v700zM112 854l82 -109h-91l-128 109h137z" horiz-adv-x="255" unicode="Ì"/>
<glyph glyph-name="Iacute" d="M181 700h-107v-700h107v700zM136 854l-82 -109h91l128 109h-137z" horiz-adv-x="255" unicode="Í"/>
<glyph glyph-name="Icircumflex" d="M181 700h-107v-700h107v700zM127 781l-44 -36h-130l132 109h84l132 -109h-130z" horiz-adv-x="255" unicode="Î"/>
<glyph glyph-name="Idieresis" d="M181 700h-107v-700h107v700zM85 853h-107v-107h107v107zM276 853h-107v-107h107v107z" horiz-adv-x="255" unicode="Ï"/>
<glyph glyph-name="Eth" d="M336 0q112 0 181.5 67t69.5 180v206q0 113 -69.5 180t-181.5 67h-251v-314h-70v-71h70v-315h251zM192 106v209h144v71h-144v208h144q52 0 98 -35t46 -108v-202q0 -73 -46 -108t-98 -35h-144z" horiz-adv-x="640" unicode="Ð"/>
<glyph glyph-name="Ntilde" d="M576 700h-107v-502l-288 502h-107v-700h107v502l288 -502h107v700zM265 859q-25 0 -61.5 -20.5t-49.5 -95.5h91q5 14 12.5 21t17.5 7q4 0 9.5 -2t10.5 -4l38 -16q13 -6 26 -7t26 -1q25 0 61.5 20.5t49.5 95.5h-91q-5 -14 -12.5 -21t-17.5 -7q-4 0 -9.5 2t-10.5 4l-38 16 q-13 6 -26 7t-26 1v0z" horiz-adv-x="650" unicode="Ñ"/>
<glyph glyph-name="Ograve" d="M448 237q0 -73 -46 -107t-98 -34t-98 34t-46 107v226q0 73 46 107t98 34t98 -34t46 -107v-226zM53 237q0 -113 69.5 -180t181.5 -67t181.5 67t69.5 180v226q0 113 -69.5 180t-181.5 67t-181.5 -67t-69.5 -180v-226zM289 854l82 -109h-91l-128 109h137z" horiz-adv-x="608" unicode="Ò"/>
<glyph glyph-name="Oacute" d="M448 237q0 -73 -46 -107t-98 -34t-98 34t-46 107v226q0 73 46 107t98 34t98 -34t46 -107v-226zM53 237q0 -113 69.5 -180t181.5 -67t181.5 67t69.5 180v226q0 113 -69.5 180t-181.5 67t-181.5 -67t-69.5 -180v-226zM313 854l-82 -109h91l128 109h-137z" horiz-adv-x="608" unicode="Ó"/>
<glyph glyph-name="Ocircumflex" d="M448 237q0 -73 -46 -107t-98 -34t-98 34t-46 107v226q0 73 46 107t98 34t98 -34t46 -107v-226zM53 237q0 -113 69.5 -180t181.5 -67t181.5 67t69.5 180v226q0 113 -69.5 180t-181.5 67t-181.5 -67t-69.5 -180v-226zM304 781l-44 -36h-130l132 109h84l132 -109h-130z" horiz-adv-x="608" unicode="Ô"/>
<glyph glyph-name="Otilde" d="M448 237q0 -73 -46 -107t-98 -34t-98 34t-46 107v226q0 73 46 107t98 34t98 -34t46 -107v-226zM53 237q0 -113 69.5 -180t181.5 -67t181.5 67t69.5 180v226q0 113 -69.5 180t-181.5 67t-181.5 -67t-69.5 -180v-226zM244 859q-25 0 -61.5 -20.5t-49.5 -95.5h91 q5 14 12.5 21t17.5 7q4 0 9.5 -2t10.5 -4l38 -16q13 -6 26 -7t26 -1q25 0 61.5 20.5t49.5 95.5h-91q-5 -14 -12.5 -21t-17.5 -7q-4 0 -9.5 2t-10.5 4l-38 16q-13 6 -26 7t-26 1v0z" horiz-adv-x="608" unicode="Õ"/>
<glyph glyph-name="Odieresis" d="M448 237q0 -73 -46 -107t-98 -34t-98 34t-46 107v226q0 73 46 107t98 34t98 -34t46 -107v-226zM53 237q0 -113 69.5 -180t181.5 -67t181.5 67t69.5 180v226q0 113 -69.5 180t-181.5 67t-181.5 -67t-69.5 -180v-226zM262 853h-107v-107h107v107zM453 853h-107v-107h107 v107z" horiz-adv-x="608" unicode="Ö"/>
<glyph glyph-name="multiply" d="M61 127l64 -65l154 154l154 -154l64 65l-154 154l154 154l-64 65l-154 -155l-154 155l-64 -65l153 -154z" horiz-adv-x="558" unicode="×"/>
<glyph glyph-name="Oslash" d="M56 237q0 -46 11.5 -84.5t33.5 -68.5l-45 -74l61 -38l37 61q31 -21 69.5 -32t83.5 -11q112 0 181.5 67t69.5 180v226q0 46 -12 84t-34 69l46 74l-60 39l-39 -63q-31 21 -69 32.5t-83 11.5q-112 0 -181.5 -67t-69.5 -180v-226zM163 237v226q0 73 46 107t98 34 q25 0 50 -7.5t45 -23.5l-234 -380q-2 10 -3.5 21t-1.5 23v0zM451 237q0 -73 -46 -107t-98 -34q-25 0 -50 7.5t-45 23.5l233 380q3 -10 4.5 -21t1.5 -23v-226z" horiz-adv-x="614" unicode="Ø"/>
<glyph glyph-name="Ugrave" d="M460 237q0 -73 -46 -107t-98 -34t-98 34t-46 107v463h-107v-463q0 -113 69.5 -180t181.5 -67t181.5 67t69.5 180v463h-107v-463zM301 854l82 -109h-91l-128 109h137z" horiz-adv-x="632" unicode="Ù"/>
<glyph glyph-name="Uacute" d="M460 237q0 -73 -46 -107t-98 -34t-98 34t-46 107v463h-107v-463q0 -113 69.5 -180t181.5 -67t181.5 67t69.5 180v463h-107v-463zM325 854l-82 -109h91l128 109h-137z" horiz-adv-x="632" unicode="Ú"/>
<glyph glyph-name="Ucircumflex" d="M460 237q0 -73 -46 -107t-98 -34t-98 34t-46 107v463h-107v-463q0 -113 69.5 -180t181.5 -67t181.5 67t69.5 180v463h-107v-463zM316 781l-44 -36h-130l132 109h84l132 -109h-130z" horiz-adv-x="632" unicode="Û"/>
<glyph glyph-name="Udieresis" d="M460 237q0 -73 -46 -107t-98 -34t-98 34t-46 107v463h-107v-463q0 -113 69.5 -180t181.5 -67t181.5 67t69.5 180v463h-107v-463zM274 853h-107v-107h107v107zM465 853h-107v-107h107v107z" horiz-adv-x="632" unicode="Ü"/>
<glyph glyph-name="Yacute" d="M350 267v-267h-107v267l-246 433h118l182 -322l182 322h118zM306 854l-82 -109h91l128 109h-137z" horiz-adv-x="594" unicode="Ý"/>
<glyph glyph-name="Thorn" d="M340 475q67 0 97 -37t30 -87t-30 -87t-97 -37h-159v248h159zM181 121h159q121 0 178.5 68t57.5 161t-57.5 161t-178.5 68h-159v121h-107v-700h107v121z" horiz-adv-x="589" unicode="Þ"/>
<glyph glyph-name="germandbls" d="M69 0h105v515q0 43 20.5 68.5t64.5 25.5t64.5 -25.5t20.5 -68.5t-20.5 -67.5t-64.5 -24.5h-22v-97h36q62 0 91.5 -34t29.5 -83t-22 -83.5t-84 -34.5q-16 0 -28.5 3t-22.5 7v-106q12 -2 25 -3.5t26 -1.5q86 0 148.5 54t62.5 165q0 63 -24 106.5t-63 68.5q18 22 27.5 55 t9.5 76q0 104 -52 149.5t-138 45.5t-138 -45.5t-52 -149.5v-515z" horiz-adv-x="541" unicode="ß"/>
<glyph glyph-name="agrave" d="M266 429q46 0 75.5 -25t33.5 -75v-1q-65 -4 -118 -10t-99 -20q-64 -20 -88 -65.5t-24 -89.5q0 -79 53 -116t123 -37q51 0 90 14.5t64 44.5v-49h105v316q0 127 -74 170.5t-141 43.5q-62 0 -130.5 -36t-81.5 -138h107q10 37 38 55t67 18v0zM239 91q-42 0 -65 15t-23 46 q0 19 7.5 30.5t17.5 17.5q28 17 79.5 24t120.5 11v-29q0 -72 -46 -93.5t-91 -21.5v0zM265 700l67 -129h-84l-118 129h135z" horiz-adv-x="543" unicode="à"/>
<glyph glyph-name="aacute" d="M266 429q46 0 75.5 -25t33.5 -75v-1q-65 -4 -118 -10t-99 -20q-64 -20 -88 -65.5t-24 -89.5q0 -79 53 -116t123 -37q51 0 90 14.5t64 44.5v-49h105v316q0 127 -74 170.5t-141 43.5q-62 0 -130.5 -36t-81.5 -138h107q10 37 38 55t67 18v0zM239 91q-42 0 -65 15t-23 46 q0 19 7.5 30.5t17.5 17.5q28 17 79.5 24t120.5 11v-29q0 -72 -46 -93.5t-91 -21.5v0zM263 700l-67 -129h84l118 129h-135z" horiz-adv-x="543" unicode="á"/>
<glyph glyph-name="acircumflex" d="M266 429q46 0 75.5 -25t33.5 -75v-1q-65 -4 -118 -10t-99 -20q-64 -20 -88 -65.5t-24 -89.5q0 -79 53 -116t123 -37q51 0 90 14.5t64 44.5v-49h105v316q0 127 -74 170.5t-141 43.5q-62 0 -130.5 -36t-81.5 -138h107q10 37 38 55t67 18v0zM239 91q-42 0 -65 15t-23 46 q0 19 7.5 30.5t17.5 17.5q28 17 79.5 24t120.5 11v-29q0 -72 -46 -93.5t-91 -21.5v0zM315 700h-84l-132 -129h117l57 56l57 -56h117z" horiz-adv-x="543" unicode="â"/>
<glyph glyph-name="atilde" d="M266 429q46 0 75.5 -25t33.5 -75v-1q-65 -4 -118 -10t-99 -20q-64 -20 -88 -65.5t-24 -89.5q0 -79 53 -116t123 -37q51 0 90 14.5t64 44.5v-49h105v316q0 127 -74 170.5t-141 43.5q-62 0 -130.5 -36t-81.5 -138h107q10 37 38 55t67 18v0zM239 91q-42 0 -65 15t-23 46 q0 19 7.5 30.5t17.5 17.5q28 17 79.5 24t120.5 11v-29q0 -72 -46 -93.5t-91 -21.5v0zM186 579q6 17 13.5 23.5t16.5 6.5q8 0 15 -2.5t12 -4.5l38 -16q13 -6 26 -7.5t26 -1.5q25 0 61.5 20.5t49.5 95.5h-84q-6 -17 -13.5 -23.5t-16.5 -6.5q-8 0 -15 2.5t-12 4.5l-38 16 q-13 6 -26 7.5t-26 1.5q-25 0 -61.5 -20.5t-49.5 -95.5h84z" horiz-adv-x="543" unicode="ã"/>
<glyph glyph-name="adieresis" d="M266 429q46 0 75.5 -25t33.5 -75v-1q-65 -4 -118 -10t-99 -20q-64 -20 -88 -65.5t-24 -89.5q0 -79 53 -116t123 -37q51 0 90 14.5t64 44.5v-49h105v316q0 127 -74 170.5t-141 43.5q-62 0 -130.5 -36t-81.5 -138h107q10 37 38 55t67 18v0zM239 91q-42 0 -65 15t-23 46 q0 19 7.5 30.5t17.5 17.5q28 17 79.5 24t120.5 11v-29q0 -72 -46 -93.5t-91 -21.5v0zM229 689h-105v-107h105v107zM422 689h-105v-107h105v107z" horiz-adv-x="543" unicode="ä"/>
<glyph glyph-name="aring" d="M266 429q46 0 75.5 -25t33.5 -75v-1q-65 -4 -118 -10t-99 -20q-64 -20 -88 -65.5t-24 -89.5q0 -79 53 -116t123 -37q51 0 90 14.5t64 44.5v-49h105v316q0 127 -74 170.5t-141 43.5q-62 0 -130.5 -36t-81.5 -138h107q10 37 38 55t67 18v0zM239 91q-42 0 -65 15t-23 46 q0 19 7.5 30.5t17.5 17.5q28 17 79.5 24t120.5 11v-29q0 -72 -46 -93.5t-91 -21.5v0zM199 635q0 -31 21.5 -52.5t52.5 -21.5t53 21.5t22 52.5t-22 53t-53 22t-52.5 -22t-21.5 -53v0zM250 635q0 10 6.5 16.5t16.5 6.5t16.5 -6.5t6.5 -16.5t-6.5 -16.5t-16.5 -6.5t-16.5 6.5 t-6.5 16.5v0z" horiz-adv-x="543" unicode="å"/>
<glyph glyph-name="ae" d="M481 223h325v93q0 127 -74 170.5t-141 43.5q-40 0 -84.5 -14t-78.5 -59q-31 43 -76.5 58t-85.5 15q-62 0 -130.5 -36t-81.5 -138h107q10 37 38 55t67 18q46 0 75.5 -25t33.5 -76q-65 -4 -118 -10t-99 -20q-64 -20 -88 -65.5t-24 -89.5q0 -79 53 -116t123 -37q56 0 102 20 t80 75q31 -54 85 -74.5t102 -20.5q62 0 130.5 36t81.5 138h-107q-10 -37 -38 -55t-67 -18q-49 0 -79.5 28.5t-30.5 86.5v17zM239 91q-42 0 -65 15t-23 46q0 19 7.5 30.5t17.5 17.5q28 17 79.5 24t120.5 11v-29q0 -72 -46 -93.5t-91 -21.5v0zM591 429q48 0 78.5 -28t31.5 -85 h-220q0 57 30.5 85t79.5 28v0z" horiz-adv-x="856" unicode="æ"/>
<glyph glyph-name="ccedilla" d="M169 -158h113l36 152q56 10 107 51t59 131h-106q-7 -43 -36.5 -64t-71.5 -21q-49 0 -79.5 28.5t-30.5 86.5v108q0 58 30.5 86.5t79.5 28.5q42 0 71 -21t36 -64h107q-10 110 -80.5 148t-133.5 38q-67 0 -141 -43.5t-74 -170.5v-112q0 -110 56.5 -156.5t119.5 -54.5z" horiz-adv-x="529" unicode="ç"/>
<glyph glyph-name="egrave" d="M270 91q-49 0 -79.5 28.5t-30.5 86.5v17h325v93q0 127 -74 170.5t-141 43.5t-141 -43.5t-74 -170.5v-112q0 -127 74 -170.5t141 -43.5q62 0 130.5 36t81.5 138h-107q-10 -37 -38 -55t-67 -18v0zM270 429q48 0 78.5 -28t31.5 -84v-1h-220v1q0 56 30.5 84t79.5 28v0z M272 700l67 -129h-84l-118 129h135z" horiz-adv-x="535" unicode="è"/>
<glyph glyph-name="eacute" d="M270 91q-49 0 -79.5 28.5t-30.5 86.5v17h325v93q0 127 -74 170.5t-141 43.5t-141 -43.5t-74 -170.5v-112q0 -127 74 -170.5t141 -43.5q62 0 130.5 36t81.5 138h-107q-10 -37 -38 -55t-67 -18v0zM270 429q48 0 78.5 -28t31.5 -84v-1h-220v1q0 56 30.5 84t79.5 28v0z M270 700l-67 -129h84l118 129h-135z" horiz-adv-x="535" unicode="é"/>
<glyph glyph-name="ecircumflex" d="M270 91q-49 0 -79.5 28.5t-30.5 86.5v17h325v93q0 127 -74 170.5t-141 43.5t-141 -43.5t-74 -170.5v-112q0 -127 74 -170.5t141 -43.5q62 0 130.5 36t81.5 138h-107q-10 -37 -38 -55t-67 -18v0zM312 700h-84l-132 -129h117l57 56l57 -56h117zM270 429q48 0 78.5 -28 t31.5 -84v-1h-220v1q0 56 30.5 84t79.5 28v0z" horiz-adv-x="535" unicode="ê"/>
<glyph glyph-name="edieresis" d="M270 91q-49 0 -79.5 28.5t-30.5 86.5v17h325v93q0 127 -74 170.5t-141 43.5t-141 -43.5t-74 -170.5v-112q0 -127 74 -170.5t141 -43.5q62 0 130.5 36t81.5 138h-107q-10 -37 -38 -55t-67 -18v0zM270 429q48 0 78.5 -28t31.5 -84v-1h-220v1q0 56 30.5 84t79.5 28v0z M226 689h-105v-107h105v107zM419 689h-105v-107h105v107z" horiz-adv-x="535" unicode="ë"/>
<glyph glyph-name="igrave" d="M174 516h-105v-516h105v516zM123 700l67 -129h-84l-118 129h135z" horiz-adv-x="243" unicode="ì"/>
<glyph glyph-name="iacute" d="M174 516h-105v-516h105v516zM121 700l-67 -129h84l118 129h-135z" horiz-adv-x="243" unicode="í"/>
<glyph glyph-name="icircumflex" d="M174 516h-105v-516h105v516zM163 700h-84l-132 -129h117l57 56l57 -56h117z" horiz-adv-x="243" unicode="î"/>
<glyph glyph-name="idieresis" d="M174 516h-105v-516h105v516zM77 689h-105v-107h105v107zM270 689h-105v-107h105v107z" horiz-adv-x="243" unicode="ï"/>
<glyph glyph-name="eth" d="M55 204q0 -127 74 -170.5t141 -43.5t141 43.5t74 170.5v112q0 47 -13 82t-32 60l-85 117h51v66h-99l-43 59h-126l43 -59h-77v-66h125l33 -45q-66 -2 -136.5 -46.5t-70.5 -167.5v-112zM380 206q0 -58 -30.5 -86.5t-79.5 -28.5t-79.5 28.5t-30.5 86.5v108q0 58 30.5 86.5 t79.5 28.5t79.5 -28.5t30.5 -86.5v-108z" horiz-adv-x="540" unicode="ð"/>
<glyph glyph-name="ntilde" d="M174 314q0 58 30.5 86t79.5 28t79.5 -28t30.5 -86v-314h105v316q0 119 -69.5 166.5t-135.5 47.5q-40 0 -74.5 -18.5t-45.5 -40.5v45h-105v-516h105v314zM197 579q6 17 13.5 23.5t16.5 6.5q8 0 15 -2.5t12 -4.5l38 -16q13 -6 26 -7.5t26 -1.5q25 0 61.5 20.5t49.5 95.5 h-84q-6 -17 -13.5 -23.5t-16.5 -6.5q-8 0 -15 2.5t-12 4.5l-38 16q-13 6 -26 7.5t-26 1.5q-25 0 -61.5 -20.5t-49.5 -95.5h84z" horiz-adv-x="561" unicode="ñ"/>
<glyph glyph-name="ograve" d="M380 206q0 -58 -30.5 -86.5t-79.5 -28.5t-79.5 28.5t-30.5 86.5v108q0 58 30.5 86.5t79.5 28.5t79.5 -28.5t30.5 -86.5v-108zM55 204q0 -127 74 -170.5t141 -43.5t141 43.5t74 170.5v112q0 127 -74 170.5t-141 43.5t-141 -43.5t-74 -170.5v-112zM272 700l67 -129h-84 l-118 129h135z" horiz-adv-x="540" unicode="ò"/>
<glyph glyph-name="oacute" d="M380 206q0 -58 -30.5 -86.5t-79.5 -28.5t-79.5 28.5t-30.5 86.5v108q0 58 30.5 86.5t79.5 28.5t79.5 -28.5t30.5 -86.5v-108zM55 204q0 -127 74 -170.5t141 -43.5t141 43.5t74 170.5v112q0 127 -74 170.5t-141 43.5t-141 -43.5t-74 -170.5v-112zM270 700l-67 -129h84 l118 129h-135z" horiz-adv-x="540" unicode="ó"/>
<glyph glyph-name="ocircumflex" d="M380 206q0 -58 -30.5 -86.5t-79.5 -28.5t-79.5 28.5t-30.5 86.5v108q0 58 30.5 86.5t79.5 28.5t79.5 -28.5t30.5 -86.5v-108zM55 204q0 -127 74 -170.5t141 -43.5t141 43.5t74 170.5v112q0 127 -74 170.5t-141 43.5t-141 -43.5t-74 -170.5v-112zM312 700h-84l-132 -129 h117l57 56l57 -56h117z" horiz-adv-x="540" unicode="ô"/>
<glyph glyph-name="otilde" d="M380 206q0 -58 -30.5 -86.5t-79.5 -28.5t-79.5 28.5t-30.5 86.5v108q0 58 30.5 86.5t79.5 28.5t79.5 -28.5t30.5 -86.5v-108zM55 204q0 -127 74 -170.5t141 -43.5t141 43.5t74 170.5v112q0 127 -74 170.5t-141 43.5t-141 -43.5t-74 -170.5v-112zM183 579q6 17 13.5 23.5 t16.5 6.5q8 0 15 -2.5t12 -4.5l38 -16q13 -6 26 -7.5t26 -1.5q25 0 61.5 20.5t49.5 95.5h-84q-6 -17 -13.5 -23.5t-16.5 -6.5q-8 0 -15 2.5t-12 4.5l-38 16q-13 6 -26 7.5t-26 1.5q-25 0 -61.5 -20.5t-49.5 -95.5h84z" horiz-adv-x="540" unicode="õ"/>
<glyph glyph-name="odieresis" d="M380 206q0 -58 -30.5 -86.5t-79.5 -28.5t-79.5 28.5t-30.5 86.5v108q0 58 30.5 86.5t79.5 28.5t79.5 -28.5t30.5 -86.5v-108zM55 204q0 -127 74 -170.5t141 -43.5t141 43.5t74 170.5v112q0 127 -74 170.5t-141 43.5t-141 -43.5t-74 -170.5v-112zM226 689h-105v-107h105 v107zM419 689h-105v-107h105v107z" horiz-adv-x="540" unicode="ö"/>
<glyph glyph-name="divide" d="M212 454q0 -28 19.5 -47.5t47.5 -19.5t47.5 19.5t19.5 47.5t-19.5 47.5t-47.5 19.5t-47.5 -19.5t-19.5 -47.5v0zM212 107q0 -28 19.5 -47.5t47.5 -19.5t47.5 19.5t19.5 47.5t-19.5 47.5t-47.5 19.5t-47.5 -19.5t-19.5 -47.5v0zM64 326v-91h430v91h-430z" horiz-adv-x="558" unicode="÷"/>
<glyph glyph-name="oslash" d="M58 204q0 -45 10.5 -78.5t28.5 -57.5l-39 -54l54 -38l33 47q30 -18 63.5 -25.5t64.5 -7.5q67 0 141 43.5t74 170.5v112q0 44 -10.5 77.5t-28.5 57.5l39 55l-54 38l-34 -48q-30 19 -63.5 26.5t-63.5 7.5q-67 0 -141 -43.5t-74 -170.5v-112zM163 206v108q0 58 30.5 86.5 t79.5 28.5q19 0 36.5 -4.5t30.5 -13.5l-173 -244q-2 9 -3 19t-1 20v0zM383 206q0 -58 -30.5 -86.5t-79.5 -28.5q-19 0 -36.5 4.5t-30.5 13.5l173 243q2 -8 3 -18t1 -20v-108z" horiz-adv-x="546" unicode="ø"/>
<glyph glyph-name="ugrave" d="M167 516h-105v-312q0 -113 66.5 -163.5t132.5 -50.5q40 0 74.5 18.5t45.5 40.5v-49h105v516h-105v-310q0 -58 -30.5 -86t-76.5 -28t-76.5 28t-30.5 86v310zM276 700l67 -129h-84l-118 129h135z" horiz-adv-x="555" unicode="ù"/>
<glyph glyph-name="uacute" d="M167 516h-105v-312q0 -113 66.5 -163.5t132.5 -50.5q40 0 74.5 18.5t45.5 40.5v-49h105v516h-105v-310q0 -58 -30.5 -86t-76.5 -28t-76.5 28t-30.5 86v310zM274 700l-67 -129h84l118 129h-135z" horiz-adv-x="555" unicode="ú"/>
<glyph glyph-name="ucircumflex" d="M167 516h-105v-312q0 -113 66.5 -163.5t132.5 -50.5q40 0 74.5 18.5t45.5 40.5v-49h105v516h-105v-310q0 -58 -30.5 -86t-76.5 -28t-76.5 28t-30.5 86v310zM316 700h-84l-132 -129h117l57 56l57 -56h117z" horiz-adv-x="555" unicode="û"/>
<glyph glyph-name="udieresis" d="M167 516h-105v-312q0 -113 66.5 -163.5t132.5 -50.5q40 0 74.5 18.5t45.5 40.5v-49h105v516h-105v-310q0 -58 -30.5 -86t-76.5 -28t-76.5 28t-30.5 86v310zM230 689h-105v-107h105v107zM423 689h-105v-107h105v107z" horiz-adv-x="555" unicode="ü"/>
<glyph glyph-name="yacute" d="M476 516h-109l-129 -367l-129 367h-109l184 -509l-14 -38q-13 -32 -22.5 -42t-47.5 -10h-21v-101h54q46 0 74.5 16.5t39.5 48.5zM238 700l-67 -129h84l118 129h-135z" horiz-adv-x="476" unicode="ý"/>
<glyph glyph-name="thorn" d="M394 206q0 -58 -30.5 -86t-79.5 -28t-79.5 28t-30.5 86v108q0 58 30.5 86t79.5 28t79.5 -28t30.5 -86v-108zM499 316q0 119 -69.5 166.5t-135.5 47.5q-40 0 -74.5 -18.5t-45.5 -40.5v229h-105v-884h105v233q11 -22 45.5 -40.5t74.5 -18.5q66 0 135.5 47.5t69.5 166.5v112 z" horiz-adv-x="554" unicode="þ"/>
</font>
</defs>
</svg>
