<?xml version="1.0" encoding="UTF-8" standalone="no"?>
<!DOCTYPE svg  PUBLIC '-//W3C//DTD SVG 1.1//EN'  'http://www.w3.org/Graphics/SVG/1.1/DTD/svg11.dtd'>
<svg xmlns="http://www.w3.org/2000/svg" version="1.1">
<defs>
<font id="SimplonBPMono-LightItalic" horiz-adv-x="608">
<font-face panose-1="2 0 0 9 0 0 0 0 0 0" font-weight="300" descent="-250" ascent="750" underline-position="-150" cap-height="700" bbox="-15 -194 662 880" units-per-em="1000" unicode-range="U+0020-00FE" font-style="italic" x-height="516" font-family="Simplon BP Mono Light" underline-thickness="50"/>
<missing-glyph/>
<glyph glyph-name="space" unicode=" "/>
<glyph d="M372 700h53l-104 -490h-53zM208 0l18 84h84l-18 -84h-84z" glyph-name="exclam" unicode="!"/>
<glyph d="M516 476h-53v224h53v-224zM273 476h-53v224h53v-224z" glyph-name="quotedbl" unicode='&quot;'/>
<glyph d="M538 216h-93l-53 -216h-47l53 216h-211l-53 -216h-47l53 216h-71v45h82l44 178h-81v45h92l54 216h47l-54 -216h211l54 216h47l-54 -216h72v-45h-83l-44 -178h82v-45zM242 439l-44 -178h211l44 178h-211z" glyph-name="numbersign" unicode="#"/>
<glyph d="M342 313l-64 24q-60 23 -92.5 70t-32.5 104q0 94 55.5 146.5t149.5 52.5q10 0 15 -1l20 91h43l-21 -98q55 -15 91.5 -56.5t36.5 -101.5q0 -6 -1 -14h-51v4q0 59 -38.5 92.5t-96.5 33.5q-70 0 -109.5 -39t-39.5 -101q0 -100 90 -134l70 -26q57 -21 89.5 -64.5t32.5 -101.5 q0 -87 -54 -145.5t-158 -58.5q-2 0 -6.5 0.5t-6.5 0.5l-19 -91h-43l20 97q-65 14 -106 61.5t-41 121.5q0 13 1 20h52q-1 -10 -1 -17q0 -67 45 -105t114 -38q62 0 105.5 40.5t43.5 110.5q0 87 -93 122z" glyph-name="dollar" unicode="$"/>
<glyph d="M74 567q0 57 40 97.5t97 40.5t97.5 -40.5t40.5 -97.5t-40.5 -97t-97.5 -40t-97 40t-40 97zM116 567q0 -40 27.5 -67.5t67.5 -27.5t68 27.5t28 67.5t-28 68t-68 28t-67.5 -28t-27.5 -68zM299 132q0 57 40 97.5t97 40.5t97.5 -40.5t40.5 -97.5t-40.5 -97t-97.5 -40t-97 40 t-40 97zM341 132q0 -40 27.5 -67.5t67.5 -27.5t68 27.5t28 67.5t-28 68t-68 28t-67.5 -28t-27.5 -68zM92 150l434 435l32 -32l-434 -435z" glyph-name="percent" unicode="%"/>
<glyph d="M444 -5l-38 108q-41 -60 -83 -86.5t-110 -26.5q-79 0 -127 50.5t-48 123.5q0 98 61 163.5t163 65.5q25 0 42 -4l-91 261l11 50h327l-11 -50h-275l158 -446l126 163l43 -27l-150 -192l46 -130zM387 157l-61 171q-30 16 -71 16q-72 0 -119 -52t-47 -118q0 -53 33.5 -93.5 t97.5 -40.5q18 0 34 3t30.5 11t24 14t23 20.5t18.5 20.5t19 24.5t18 23.5z" glyph-name="ampersand" unicode="&amp;"/>
<glyph d="M400 476h-53v224h53v-224z" glyph-name="quotesingle" unicode="&apos;"/>
<glyph d="M333 597q12 54 37.5 78.5t86.5 24.5h123l-9 -42h-119q-35 0 -52 -15.5t-25 -51.5q-127 -595 -127 -605q0 -36 47 -36h125l-9 -42h-125q-81 0 -81 75q0 14 128 614z" glyph-name="parenleft" unicode="("/>
<glyph d="M295 11q-12 -54 -37.5 -78.5t-86.5 -24.5h-123l9 42h119q35 0 52 15.5t25 51.5q127 595 127 605q0 36 -47 36h-125l9 42h125q81 0 81 -75q0 -14 -128 -614z" glyph-name="parenright" unicode=")"/>
<glyph d="M339 467l-122 -127l-34 27l125 131l-145 50l20 40l143 -50l35 162h45l-35 -162l165 50l4 -46l-164 -49l67 -129l-40 -24z" glyph-name="asterisk" unicode="*"/>
<glyph d="M287 82v176h-176v45h176v175h45v-175h175v-45h-175v-176h-45z" glyph-name="plus" unicode="+"/>
<glyph d="M157 -166l-39 39l204 203l39 -39z" glyph-name="comma" unicode=","/>
<glyph d="M445 258h-290l9 45h290z" glyph-name="hyphen" unicode="-"/>
<glyph d="M208 0l17 84h84l-17 -84h-84z" glyph-name="period" unicode="."/>
<glyph d="M558 705l37 -26l-472 -684l-37 26z" glyph-name="slash" unicode="/"/>
<glyph d="M89 156q0 20 72 361q19 90 77 141.5t144 51.5q78 0 126.5 -50t48.5 -116q0 -25 -44 -229q-17 -81 -28 -132q-19 -90 -77 -141.5t-144 -51.5q-78 0 -126.5 50t-48.5 116zM506 529v5q0 52 -33 89t-98 37q-64 0 -107.5 -46t-56.5 -109l-57 -267zM435 195l56 265l-351 -290 v-4q0 -52 33 -89t98 -37q64 0 107.5 46t56.5 109z" glyph-name="zero" unicode="0"/>
<glyph d="M68 50h181l122 570l-137 -112l-32 39l186 153h53l-139 -650h183l-11 -50h-417z" glyph-name="one" unicode="1"/>
<glyph d="M245 394l-37 -35q-49 47 -49 116q0 98 61 166.5t163 68.5q78 0 126.5 -50t48.5 -116q0 -54 -23.5 -96.5t-95.5 -110.5l-304 -287h324l-11 -50h-396l11 51l340 320q104 97 104 163q0 52 -33 89t-98 37q-72 0 -119 -54.5t-47 -120.5q0 -56 35 -91z" glyph-name="two" unicode="2"/>
<glyph d="M133 188q-2 -14 -2 -22q0 -52 33 -89t98 -37q72 0 119 54.5t47 120.5q0 49 -29.5 83t-87.5 38l11 49h11q69 0 112.5 48.5t43.5 113.5q0 51 -29.5 82t-91.5 31t-103.5 -40t-50.5 -98h-51q10 84 66 136t146 52q76 0 120.5 -44t44.5 -109q0 -73 -33 -127t-93 -79 q65 -48 65 -126q0 -98 -61 -166.5t-163 -68.5q-78 0 -126.5 50t-48.5 116q0 12 2 32h51z" glyph-name="three" unicode="3"/>
<glyph d="M531 671l-398 -421h258l36 169h53l-36 -169h73l-11 -50h-73l-42 -200h-53l42 200h-329l11 51l429 454z" glyph-name="four" unicode="4"/>
<glyph d="M321 650l-104 -242q38 29 106 29q78 0 126.5 -50t48.5 -116q0 -21 -14 -88q-19 -90 -77 -141.5t-144 -51.5q-78 0 -126.5 50t-48.5 116q0 17 2 32h52q-3 -14 -3 -22q0 -52 33 -89t98 -37q64 0 107 45.5t57 109.5q13 58 13 66q0 52 -33 89t-98 37q-84 0 -134 -81l-53 28 l158 366h254l-11 -50h-209z" glyph-name="five" unicode="5"/>
<glyph d="M91 244q16 78 74 139l304 322l39 -35l-221 -234q8 1 25 1q78 0 126.5 -50t48.5 -116q0 -21 -14 -88q-19 -90 -77 -141.5t-144 -51.5q-78 0 -126.5 50t-48.5 116q0 22 14 88zM423 195q13 58 13 66q0 52 -33 89t-98 37q-64 0 -107 -45.5t-57 -109.5q-13 -58 -13 -66 q0 -52 33 -89t98 -37q64 0 107 45.5t57 109.5z" glyph-name="six" unicode="6"/>
<glyph d="M203 700h390l-10 -49l-378 -656l-47 17l369 638h-282l-25 -122h-53z" glyph-name="seven" unicode="7"/>
<glyph d="M89 156q0 74 36.5 132t100.5 82q-56 44 -56 118q0 97 57.5 159.5t156.5 62.5q76 0 120.5 -44t44.5 -109q0 -73 -33 -127.5t-93 -78.5q65 -48 65 -126q0 -98 -61 -166.5t-163 -68.5q-78 0 -126.5 50t-48.5 116zM437 215q0 51 -33 86t-98 35q-72 0 -119 -52t-47 -118 q0 -52 33 -89t98 -37q72 0 119 54.5t47 120.5zM498 547q0 51 -29.5 82t-91.5 31q-69 0 -112.5 -48.5t-43.5 -113.5q0 -51 29.5 -82t91.5 -31q69 0 112.5 48.5t43.5 113.5z" glyph-name="eight" unicode="8"/>
<glyph d="M556 456q-16 -78 -74 -139l-304 -322l-39 35l221 234q-8 -1 -25 -1q-78 0 -126.5 50t-48.5 116q0 21 14 88q19 90 77 141.5t144 51.5q78 0 126.5 -50t48.5 -116q0 -22 -14 -88zM224 505q-13 -58 -13 -66q0 -52 33 -89t98 -37q64 0 107 45.5t57 109.5q13 58 13 66 q0 52 -33 89t-98 37q-64 0 -107 -45.5t-57 -109.5z" glyph-name="nine" unicode="9"/>
<glyph d="M327 345l17 84h84l-17 -84h-84zM253 0l17 84h84l-17 -84h-84z" glyph-name="colon" unicode=":"/>
<glyph d="M141 -166l-39 39l204 203l39 -39zM327 345l17 84h84l-17 -84h-84z" glyph-name="semicolon" unicode=";"/>
<glyph d="M454 499l-239 -239l239 -239l-32 -31l-270 270l270 270z" glyph-name="less" unicode="&lt;"/>
<glyph d="M507 155h-396v45h396v-45zM507 350h-396v45h396v-45z" glyph-name="equal" unicode="="/>
<glyph d="M393 260l-239 239l32 31l270 -270l-270 -270l-32 31z" glyph-name="greater" unicode="&gt;"/>
<glyph d="M286 366h41q72 0 119 52.5t47 118.5q0 52 -33 87t-98 35t-110 -43.5t-54 -103.5h-51q11 86 70.5 142t151.5 56q78 0 126.5 -48.5t48.5 -114.5q0 -96 -59 -162.5t-157 -69.5l-18 -85h-53zM192 0l18 84h84l-18 -84h-84z" glyph-name="question" unicode="?"/>
<glyph d="M404 34q-35 -44 -105 -44q-67 0 -103.5 38.5t-36.5 100.5v36q0 62 36.5 100.5t103.5 38.5h87v88q0 43 -23.5 65t-63.5 22t-63.5 -22t-23.5 -65v-32h-53v31q0 62 36.5 100.5t103.5 38.5t103.5 -38.5t36.5 -100.5v-317q0 -19 12 -30.5t31 -11.5t31 11.5t12 30.5v377 q0 98 -58.5 157.5t-162.5 59.5t-162.5 -59.5t-58.5 -157.5v-381q0 -98 58.5 -157.5t162.5 -59.5v-42q-124 0 -194 70.5t-70 188.5v381q0 118 70 188.5t194 70.5t194 -70.5t70 -188.5v-374q0 -40 -22 -63.5t-64 -23.5q-26 0 -48 11.5t-30 32.5zM299 41q40 0 63.5 22t23.5 65 v125h-87q-40 0 -63.5 -22.5t-23.5 -65.5v-37q0 -43 23.5 -65t63.5 -22z" glyph-name="at" unicode="@"/>
<glyph d="M460 0l-28 218h-266l-120 -218h-59l386 700h50l89 -700h-52zM193 267h233l-44 343z" glyph-name="A" unicode="A"/>
<glyph d="M361 329h-196l-58 -276h197q67 0 117.5 48t50.5 116q0 49 -30.5 80.5t-80.5 31.5zM399 648h-166l-57 -268h178q73 0 121.5 44.5t48.5 113.5q0 51 -33 80.5t-92 29.5zM457 352q32 -17 51 -52t19 -76q0 -94 -65.5 -159t-166.5 -65h-255l149 700h222q76 0 122 -44t46 -112 q0 -69 -33 -118t-89 -74z" glyph-name="B" unicode="B"/>
<glyph d="M578 500h-54q1 10 1 21q0 65 -40.5 101t-102.5 36q-71 0 -122 -43t-70 -133q-12 -58 -23.5 -110.5t-17 -78t-10 -47.5t-6 -32t-2.5 -18t-1 -17q0 -65 40.5 -101t102.5 -36q68 0 117.5 38.5t70.5 119.5h55q-53 -210 -250 -210q-80 0 -135.5 50t-55.5 132q0 8 0.5 14 t1 12.5t3 18.5t4.5 24t7.5 37t10.5 49t14.5 68t18.5 87q48 228 254 228q80 0 135.5 -50t55.5 -132q0 -16 -2 -28z" glyph-name="C" unicode="C"/>
<glyph d="M98 52h177q71 0 122 43t70 133q12 58 23 109t16 74.5t9.5 42.5t5.5 27t1.5 14t0.5 16q0 65 -40.5 101t-102.5 36h-155zM268 0h-236l149 700h206q80 0 135.5 -50t55.5 -132q0 -6 -0.5 -12.5t-1.5 -15.5t-2.5 -17t-4.5 -23t-5.5 -27t-7.5 -35.5t-9 -42.5t-11.5 -53.5 t-13.5 -63.5q-50 -228 -254 -228z" glyph-name="D" unicode="D"/>
<glyph d="M190 329l-59 -277h332l-11 -52h-387l149 700h387l-11 -52h-332l-57 -268h262l-11 -51h-262z" glyph-name="E" unicode="E"/>
<glyph d="M208 329l-70 -329h-55l149 700h387l-11 -52h-332l-57 -268h262l-11 -51h-262z" glyph-name="F" unicode="F"/>
<glyph d="M575 500h-54q1 9 1 21q0 65 -40.5 101t-102.5 36q-71 0 -122 -43t-70 -133q-12 -58 -23.5 -110.5t-17 -78t-10 -47.5t-6 -32t-2.5 -18t-1 -17q0 -65 40.5 -101t102.5 -36q71 0 122 43t70 133q13 65 19 91h-165l11 51h220q-3 -12 -13 -60t-17 -82q-48 -228 -254 -228 q-80 0 -135.5 50t-55.5 132q0 8 0.5 14t1 12.5t3 18.5t4.5 24t7.5 37t10.5 49t14.5 68t18.5 87q48 228 254 228q80 0 135.5 -50t55.5 -132q0 -16 -2 -28z" glyph-name="G" unicode="G"/>
<glyph d="M496 380l68 320h55l-149 -700h-55l70 329h-332l-70 -329h-55l149 700h55l-68 -320h332z" glyph-name="H" unicode="H"/>
<glyph d="M581 648h-166l-127 -596h166l-11 -52h-387l11 52h166l127 596h-166l11 52h387z" glyph-name="I" unicode="I"/>
<glyph d="M63 200h54q-1 -7 -1 -21q0 -65 40.5 -101t102.5 -36q71 0 122 43t70 133l91 430h-332l12 52h387l-103 -482q-48 -228 -254 -228q-80 0 -135.5 50t-55.5 132q0 20 2 28z" glyph-name="J" unicode="J"/>
<glyph d="M127 206l-44 -206h-55l149 700h55l-86 -406l432 406h74l-308 -289l185 -411h-58l-168 372z" glyph-name="K" unicode="K"/>
<glyph d="M276 700l-137 -648h332l-12 -52h-387l149 700h55z" glyph-name="L" unicode="L"/>
<glyph d="M533 553l-217 -365h-54l-59 383l-121 -571h-54l149 700h55l68 -444l264 444h55l-149 -700h-54z" glyph-name="M" unicode="M"/>
<glyph d="M619 700l-149 -700h-55l-204 605l-128 -605h-55l149 700h55l204 -605l128 605h55z" glyph-name="N" unicode="N"/>
<glyph d="M516 218q-48 -228 -254 -228q-80 0 -135.5 50t-55.5 132q0 8 0.5 14t1 12.5t3 18.5t4.5 24t7.5 37t10.5 49t14.5 68t18.5 87q48 228 254 228q80 0 135.5 -50t55.5 -132q0 -8 -0.5 -14t-1 -12.5t-3 -18.5t-4.5 -24t-7.5 -37t-10.5 -49t-14.5 -68t-18.5 -87zM186 482 q-12 -58 -23.5 -110.5t-17 -78t-10 -47.5t-6 -32t-2.5 -18t-1 -17q0 -65 40.5 -101t102.5 -36q71 0 122 43t70 133q12 58 23.5 110.5t17 78t10 47.5t6 32t2.5 18t1 17q0 65 -40.5 101t-102.5 36q-71 0 -122 -43t-70 -133z" glyph-name="O" unicode="O"/>
<glyph d="M360 294h-185l-62 -294h-55l149 700h206q90 0 138.5 -53t48.5 -128q0 -85 -62 -155t-178 -70zM187 346h180q78 0 128 51t50 117q0 55 -33.5 94.5t-110.5 39.5h-150z" glyph-name="P" unicode="P"/>
<glyph d="M516 218q-24 -107 -77 -162l54 -69l-39 -32l-54 70q-56 -35 -138 -35q-80 0 -135.5 50t-55.5 132q0 8 0.5 14t1 12.5t3 18.5t4.5 24t7.5 37t10.5 49t14.5 68t18.5 87q48 228 254 228q80 0 135.5 -50t55.5 -132q0 -8 -0.5 -14t-1 -12.5t-3 -18.5t-4.5 -24t-7.5 -37 t-10.5 -49t-14.5 -68t-18.5 -87zM186 482l-16 -78l236 -305q39 44 55 119q12 58 23.5 110.5t17 78t10 47.5t6 32t2.5 18t1 17q0 65 -40.5 101t-102.5 36q-71 0 -122 -43t-70 -133zM269 42q55 0 98 25l-211 273q-30 -139 -30 -161q0 -65 40.5 -101t102.5 -36z" glyph-name="Q" unicode="Q"/>
<glyph d="M320 329h-147l-70 -329h-55l149 700h226q76 0 122 -44t46 -112q0 -96 -61 -152.5t-153 -62.5l124 -329h-58zM184 380h183q73 2 121 45.5t48 112.5q0 51 -33 80.5t-92 29.5h-170z" glyph-name="R" unicode="R"/>
<glyph d="M547 523h-55v4q0 61 -39.5 96t-93.5 35q-72 0 -114 -38t-42 -100q0 -95 81 -126l104 -39q52 -20 81.5 -63.5t29.5 -97.5q0 -89 -55.5 -146.5t-163.5 -57.5q-86 0 -147 49.5t-61 140.5q0 13 1 20h55q-1 -6 -1 -17q0 -74 47.5 -107.5t114.5 -33.5q66 0 110.5 38.5 t44.5 107.5q0 38 -20 70t-58 46l-104 39q-58 22 -86 67.5t-28 100.5q0 95 58 147t156 52q78 0 132 -50.5t54 -125.5q0 -3 -1 -11z" glyph-name="S" unicode="S"/>
<glyph d="M414 648l-138 -648h-55l138 648h-194l11 52h443l-11 -52h-194z" glyph-name="T" unicode="T"/>
<glyph d="M126 179q0 -65 40.5 -101t102.5 -36q71 0 122 43t70 133l103 482h55l-103 -482q-48 -228 -254 -228q-80 0 -136 50t-56 132q0 27 40 210q37 174 68 318h55q-29 -134 -65 -302q-42 -194 -42 -219z" glyph-name="U" unicode="U"/>
<glyph d="M265 92l336 608h60l-387 -700h-50l-89 700h53z" glyph-name="V" unicode="V"/>
<glyph d="M400 600l6 -479l202 579h54l-249 -700h-49l-6 499l-222 -499h-51l49 700h53l-41 -569l208 469h46z" glyph-name="W" unicode="W"/>
<glyph d="M444 0l-126 313l-260 -313h-67l300 362l-137 338h57l119 -294l244 294h68l-286 -344l145 -356h-57z" glyph-name="X" unicode="X"/>
<glyph d="M662 700l-323 -409l-62 -291h-55l62 291l-149 409h56l129 -350l275 350h67z" glyph-name="Y" unicode="Y"/>
<glyph d="M467 0h-446l11 52l500 596h-369l11 52h437l-11 -52l-500 -596h378z" glyph-name="Z" unicode="Z"/>
<glyph d="M185 -92l169 792h225l-9 -42h-182l-151 -708h182l-9 -42h-225z" glyph-name="bracketleft" unicode="["/>
<glyph d="M63 679l37 26l472 -684l-37 -26z" glyph-name="backslash" unicode="\"/>
<glyph d="M442 700l-169 -792h-225l9 42h182l151 708h-182l9 42h225z" glyph-name="bracketright" unicode="]"/>
<glyph d="M573 403l-239 239l-239 -239l-31 32l270 270l270 -270z" glyph-name="asciicircum" unicode="^"/>
<glyph d="M423 -114h-396l9 45h396z" glyph-name="underscore" unicode="_"/>
<glyph d="M511 585l-264 72l10 48l264 -72z" glyph-name="grave" unicode="`"/>
<glyph d="M176 360h-53q50 170 224 170q66 0 117 -39.5t51 -116.5q0 -28 -34 -187l-40 -187h-53l15 66q-54 -76 -167 -76q-72 0 -117.5 40.5t-45.5 98.5q0 126 125 161q73 21 258 29q7 32 7 49q0 53 -32 82.5t-93 29.5q-55 0 -98.5 -32t-63.5 -88zM429 192l17 79q-180 -8 -244 -30 q-76 -26 -76 -108q0 -40 30.5 -66.5t90.5 -26.5q69 0 118.5 41.5t63.5 110.5z" glyph-name="a" unicode="a"/>
<glyph d="M348 480q-61 0 -107.5 -39.5t-61.5 -107.5q-35 -164 -35 -181q0 -53 32 -82.5t93 -29.5t107.5 39.5t61.5 107.5q35 164 35 181q0 53 -32 82.5t-93 29.5zM257 700l-52 -243q49 73 152 73q66 0 117 -39.5t51 -116.5q0 -28 -34 -187q-42 -197 -231 -197q-53 0 -89.5 25.5 t-47.5 57.5l-15 -73h-53l149 700h53z" glyph-name="b" unicode="b"/>
<glyph d="M524 374v-14h-52v8q0 53 -32 82.5t-93 29.5t-107.5 -39.5t-61.5 -107.5q-35 -164 -35 -181q0 -53 32 -82.5t93 -29.5q55 0 98.5 32t63.5 88h53q-50 -170 -224 -170q-66 0 -117 39.5t-51 116.5q0 28 34 187q42 197 231 197q66 0 117 -39.5t51 -116.5z" glyph-name="c" unicode="c"/>
<glyph d="M261 40q61 0 107.5 39.5t61.5 107.5q35 164 35 181q0 53 -32 82.5t-93 29.5t-107.5 -39.5t-61.5 -107.5q-35 -164 -35 -181q0 -53 32 -82.5t93 -29.5zM390 0l14 63q-49 -73 -152 -73q-66 0 -117 39.5t-51 116.5q0 28 34 187q42 197 231 197q53 0 89.5 -25.5t47.5 -57.5 l53 253h53l-149 -700h-53z" glyph-name="d" unicode="d"/>
<glyph d="M502 253h-343q-18 -82 -18 -101q0 -53 32 -82.5t93 -29.5q55 0 98 32t63 88h54q-50 -170 -224 -170q-66 0 -117 39.5t-51 116.5q0 28 34 187q42 197 231 197q66 0 117 -39.5t51 -116.5q0 -26 -20 -121zM170 303h290q10 46 10 65q0 53 -32 82.5t-93 29.5q-69 0 -117 -48 t-58 -129z" glyph-name="e" unicode="e"/>
<glyph d="M131 466l11 50h147l17 81q12 57 35.5 80t93.5 23h163l-11 -50h-163q-31 0 -45 -12t-20 -41l-17 -81h217l-11 -50h-217l-99 -466h-53l99 466h-147z" glyph-name="f" unicode="f"/>
<glyph d="M98 -24v-8q0 -53 32 -82.5t93 -29.5t107.5 39.5t61.5 107.5l16 74q-49 -73 -152 -73q-66 0 -117 39.5t-51 116.5q0 27 31 173q42 197 231 197q53 0 89.5 -25.5t47.5 -57.5l14 69h53l-109 -513q-42 -197 -231 -197q-66 0 -117 39.5t-51 116.5v14h52zM265 54q61 0 107 39 t62 108q32 134 32 167q0 53 -32 82.5t-93 29.5t-107.5 -39.5t-61.5 -107.5q-32 -147 -32 -167q0 -53 32 -82.5t93 -29.5z" glyph-name="g" unicode="g"/>
<glyph d="M354 530q66 0 117 -39.5t51 -116.5q0 -28 -34 -187l-40 -187h-53l40 187q35 164 35 181q0 53 -32 82.5t-93 29.5t-107.5 -39.5t-61.5 -107.5l-71 -333h-53l149 700h53l-52 -243q49 73 152 73z" glyph-name="h" unicode="h"/>
<glyph d="M192 466l11 50h185l-99 -466h182l-11 -50h-417l11 50h182l88 416h-132zM318 602l21 98h98l-21 -98h-98z" glyph-name="i" unicode="i"/>
<glyph d="M452 516l-127 -597q-12 -57 -35.5 -80t-93.5 -23h-211l11 50h211q31 0 45 12t20 41l116 547h-217l11 50h270zM383 602l20 98h98l-20 -98h-98z" glyph-name="j" unicode="j"/>
<glyph d="M281 700l-95 -448l299 264h73l-231 -204l146 -312h-56l-130 277l-118 -104l-37 -173h-53l149 700h53z" glyph-name="k" unicode="k"/>
<glyph d="M228 650l11 50h185l-138 -650h182l-11 -50h-417l11 50h182l127 600h-132z" glyph-name="l" unicode="l"/>
<glyph d="M156 391l-83 -391h-53l110 516h53l-6 -29q28 43 85 43q60 0 85 -54q33 54 108 54q51 0 81 -30t30 -76q0 -13 -87 -424h-53q86 406 86 419q0 32 -18.5 46.5t-45.5 14.5q-69 0 -89 -89l-83 -391h-53q86 406 86 419q0 32 -18.5 46.5t-45.5 14.5q-69 0 -89 -89z" glyph-name="m" unicode="m"/>
<glyph d="M354 530q66 0 117 -39.5t51 -116.5q0 -28 -34 -187l-40 -187h-53l40 187q35 164 35 181q0 53 -32 82.5t-93 29.5t-107.5 -39.5t-61.5 -107.5l-71 -333h-53l110 516h53l-13 -59q49 73 152 73z" glyph-name="n" unicode="n"/>
<glyph d="M175 333q-35 -164 -35 -181q0 -53 32 -82.5t93 -29.5t107.5 39.5t61.5 107.5q35 164 35 181q0 53 -32 82.5t-93 29.5t-107.5 -39.5t-61.5 -107.5zM487 187q-42 -197 -231 -197q-66 0 -117 39.5t-51 116.5q0 28 34 187q42 197 231 197q66 0 117 -39.5t51 -116.5 q0 -28 -34 -187z" glyph-name="o" unicode="o"/>
<glyph d="M348 480q-61 0 -107.5 -39.5t-61.5 -107.5q-35 -164 -35 -181q0 -53 32 -82.5t93 -29.5t107.5 39.5t61.5 107.5q35 164 35 181q0 53 -32 82.5t-93 29.5zM218 516l-13 -59q49 73 152 73q66 0 117 -39.5t51 -116.5q0 -28 -34 -187q-42 -197 -231 -197q-53 0 -89.5 25.5 t-47.5 57.5l-54 -257h-53l149 700h53z" glyph-name="p" unicode="p"/>
<glyph d="M261 40q61 0 107.5 39.5t61.5 107.5q35 164 35 181q0 53 -32 82.5t-93 29.5t-107.5 -39.5t-61.5 -107.5q-35 -164 -35 -181q0 -53 32 -82.5t93 -29.5zM351 -184l53 247q-49 -73 -152 -73q-66 0 -117 39.5t-51 116.5q0 28 34 187q42 197 231 197q53 0 89.5 -25.5 t47.5 -57.5l14 69h53l-149 -700h-53z" glyph-name="q" unicode="q"/>
<glyph d="M279 466h-114l11 50h167l-14 -64q49 73 152 73h114l-11 -50h-112q-61 0 -107.5 -39.5t-61.5 -107.5l-59 -278h201l-11 -50h-417l11 50h163z" glyph-name="r" unicode="r"/>
<glyph d="M507 368h-52v8q0 50 -38.5 77t-91.5 27q-51 0 -90 -25.5t-39 -67.5q0 -35 18.5 -54t61.5 -32l93 -28q49 -15 77.5 -47.5t28.5 -77.5q0 -79 -53 -118.5t-146 -39.5q-78 0 -133.5 41t-55.5 117v13h52v-11q0 -55 41 -82.5t105 -27.5q57 0 97.5 26t40.5 75q0 63 -75 84 l-100 30q-46 11 -75 45.5t-29 80.5q0 71 53.5 110t126.5 39t128 -39t55 -110v-13z" glyph-name="s" unicode="s"/>
<glyph d="M284 466h-147l11 50h147l25 117h53l-25 -117h217l-11 -50h-217q-80 -373 -80 -388q0 -28 36 -28h173l-11 -50h-159q-91 0 -91 76q0 17 79 390z" glyph-name="t" unicode="t"/>
<glyph d="M258 -10q-65 0 -116.5 40t-51.5 116q0 27 33 183l40 187h53l-40 -187q-34 -158 -34 -177q0 -52 32 -82t90 -30q57 0 103.5 39.5t61.5 107.5l70 329h53l-110 -516h-53l14 63q-18 -29 -58 -51t-87 -22z" glyph-name="u" unicode="u"/>
<glyph d="M262 72l252 444h60l-295 -516h-58l-77 516h52z" glyph-name="v" unicode="v"/>
<glyph d="M368 436l42 -339l150 419h53l-192 -516h-46l-42 368l-208 -368h-46l26 516h52l-25 -412l184 332h52z" glyph-name="w" unicode="w"/>
<glyph d="M309 302l186 214h65l-225 -257l117 -259h-57l-99 221l-191 -221h-65l231 264l-115 252h57z" glyph-name="x" unicode="x"/>
<glyph d="M221 -1l-77 517h52l66 -444l252 444h60l-342 -597q-17 -29 -25 -41.5t-24.5 -30.5t-36 -24.5t-46.5 -6.5h-42l11 50h43q16 0 29 9.5t19 18.5t19 31z" glyph-name="y" unicode="y"/>
<glyph d="M534 466l-400 -416h320l-11 -50h-389l11 50l400 416h-307l11 50h376z" glyph-name="z" unicode="z"/>
<glyph d="M256 247q0 19 -12 27.5t-42 8.5h-10l9 42h10q38 0 54 14t23 47l45 211q12 54 37.5 78.5t86.5 24.5h123l-9 -42h-119q-35 0 -52 -15.5t-25 -51.5l-44 -205q-15 -70 -50 -86q18 -14 18 -45q0 -20 -25.5 -138t-25.5 -131q0 -36 47 -36h125l-9 -42h-125q-81 0 -81 75 q0 17 25.5 134t25.5 130z" glyph-name="braceleft" unicode="{"/>
<glyph d="M282 -100v800h43v-800h-43z" glyph-name="bar" unicode="|"/>
<glyph d="M372 361q0 -19 12 -27.5t42 -8.5h10l-9 -42h-10q-38 0 -54 -14t-23 -47l-45 -211q-12 -54 -37.5 -78.5t-86.5 -24.5h-123l9 42h119q35 0 52 15.5t25 51.5l44 205q15 70 50 86q-18 14 -18 45q0 20 25.5 138t25.5 131q0 36 -47 36h-125l9 42h125q81 0 81 -75 q0 -17 -25.5 -134t-25.5 -130z" glyph-name="braceright" unicode="}"/>
<glyph d="M513 304l-159 -86l-102 73l-135 -73l-21 38l159 86l102 -73l135 73z" glyph-name="asciitilde" unicode="~"/>
<glyph d="M236 -184h-53l104 490h53zM400 516l-18 -84h-84l18 84h84z" glyph-name="exclamdown" unicode="¡"/>
<glyph d="M210 -100l19 92q-58 8 -98 47t-40 107q0 28 34 187q41 190 219 197l19 90h43l-20 -92q58 -9 98 -48t40 -106v-14h-52v8q0 53 -32 82.5t-93 29.5t-107.5 -39.5t-61.5 -107.5q-35 -164 -35 -181q0 -53 32 -82.5t93 -29.5q55 0 98.5 32t63.5 88h53q-48 -163 -211 -169 l-19 -91h-43z" glyph-name="cent" unicode="¢"/>
<glyph d="M589 508h-52q4 24 4 38q0 57 -33.5 85.5t-93.5 28.5t-104.5 -39t-59.5 -108l-31 -141h290l-9 -42h-290l-60 -280h344l-11 -50h-459l10 50h63l60 280h-64l9 42h64l31 141q42 197 226 197q41 0 78 -14.5t64.5 -51t27.5 -89.5q0 -22 -4 -47z" glyph-name="sterling" unicode="£"/>
<glyph d="M580 50l-84 84q-75 -64 -175 -64t-175 64l-84 -84l-31 30l84 85q-64 75 -64 175t64 175l-84 85l31 30l84 -85q75 65 175 65t175 -65l84 85l31 -30l-85 -85q65 -75 65 -175t-65 -175l85 -85zM102 340q0 -91 64 -155t155 -64t155 64t64 155t-64 155t-155 64t-155 -64 t-64 -155z" glyph-name="currency" unicode="¤"/>
<glyph d="M122 334h146l-134 366h54l129 -352l280 352h65l-291 -366h146l-9 -43h-171l-22 -102h171l-9 -43h-171l-31 -146h-53l31 146h-171l9 43h171l22 102h-171z" glyph-name="yen" unicode="¥"/>
<glyph d="M283 -100v339h43v-339h-43zM283 361v339h43v-339h-43z" glyph-name="brokenbar" unicode="¦"/>
<glyph d="M310 80l-109 40q-108 40 -108 134q0 131 141 165q-48 46 -48 116q0 80 53 127.5t139 47.5q74 0 121.5 -42t47.5 -106q0 -5 -1 -14h-45v8q0 50 -36 81t-91 31q-59 0 -100.5 -35t-41.5 -92q0 -36 18 -65.5t47 -39.5l109 -40q108 -40 108 -134q0 -130 -142 -166 q49 -46 49 -115q0 -80 -53 -127.5t-139 -47.5q-74 0 -121.5 42t-47.5 106q0 14 2 24h45l-1 -18q0 -50 36 -81t91 -31q59 0 100.5 35t41.5 92q0 36 -18 65.5t-47 39.5zM387 353l-85 31q-65 -1 -114 -33t-49 -87q0 -73 81 -101l84 -31q66 1 115 33t49 87q0 73 -81 101z" glyph-name="section" unicode="§"/>
<glyph d="M219 607l17 76h76l-17 -76h-76zM455 607l17 76h76l-17 -76h-76z" glyph-name="dieresis" unicode="¨"/>
<glyph d="M544 249v202q0 98 -58.5 157.5t-162.5 59.5t-162.5 -59.5t-58.5 -157.5v-202q0 -98 58.5 -157.5t162.5 -59.5t162.5 59.5t58.5 157.5zM587 451v-202q0 -118 -70 -188.5t-194 -70.5t-194 70.5t-70 188.5v202q0 118 70 188.5t194 70.5t194 -70.5t70 -188.5zM323 125 q-62 0 -101 40t-39 108v153q0 68 39 108t101 40q59 0 97 -36t42 -98h-43q-4 44 -30.5 68t-65.5 24q-42 0 -69.5 -27.5t-27.5 -78.5v-153q0 -51 27 -78.5t70 -27.5q39 0 65.5 24t30.5 68h43q-4 -62 -42 -98t-97 -36z" glyph-name="copyright" unicode="©"/>
<glyph d="M303 294q-56 0 -91 31.5t-35 75.5q0 96 97 125q58 16 197 22q5 25 5 38q0 40 -24.5 62t-69.5 22q-42 0 -75 -24t-48 -67h-44q38 132 174 132q51 0 90.5 -30.5t39.5 -89.5q0 -20 -27 -144l-31 -145h-42l11 50q-41 -58 -127 -58zM312 335q52 0 89.5 31.5t48.5 83.5l13 59 q-138 -6 -186 -23q-57 -20 -57 -81q0 -30 23 -50t69 -20zM441 207h-310l10 45h310z" glyph-name="ordfeminine" unicode="ª"/>
<glyph d="M229 48l-165 210l254 210l29 -34l-221 -182l137 -176zM454 48l-165 210l254 210l29 -34l-221 -182l137 -176z" glyph-name="guillemotleft" unicode="«"/>
<glyph d="M111 258v45h396v-221h-45v176h-351z" glyph-name="logicalnot" unicode="¬"/>
<glyph d="M587 451v-202q0 -118 -70 -188.5t-194 -70.5t-194 70.5t-70 188.5v202q0 118 70 188.5t194 70.5t194 -70.5t70 -188.5zM544 249v202q0 98 -58.5 157.5t-162.5 59.5t-162.5 -59.5t-58.5 -157.5v-202q0 -98 58.5 -157.5t162.5 -59.5t162.5 59.5t58.5 157.5zM485 131h-50 l-118 200h-76v-200h-43v437h149q60 0 91.5 -34.5t31.5 -84.5q0 -45 -26.5 -78t-77.5 -39zM241 525v-152h106q36 0 58 21t22 55t-22 55t-58 21h-106z" glyph-name="registered" unicode="®"/>
<glyph d="M534 620h-312l11 50h312z" glyph-name="macron" unicode="¯"/>
<glyph d="M212 549q0 65 46 110.5t110 45.5t110 -45.5t46 -110.5t-46 -110.5t-110 -45.5t-110 45.5t-46 110.5zM255 549q0 -47 33 -80.5t80 -33.5t80 33.5t33 80.5t-33 80.5t-80 33.5t-80 -33.5t-33 -80.5z" glyph-name="degree" unicode="°"/>
<glyph d="M287 229v121h-176v45h176v121h45v-121h175v-45h-175v-121h-45zM507 155h-396v45h396v-45z" glyph-name="plusminus" unicode="±"/>
<glyph d="M340 637l-30 -28q-30 28 -30 68q0 58 36.5 97t94.5 39q44 0 73.5 -29t29.5 -67q0 -67 -66 -126l-162 -149h174l-9 -41h-234l9 41l193 178q53 48 53 91q0 26 -17.5 43.5t-47.5 17.5q-37 0 -61.5 -29t-24.5 -61q0 -28 19 -45z" glyph-name="two.superior" unicode="²"/>
<glyph d="M338 395q-44 0 -73.5 28.5t-29.5 66.5q0 15 2 22h41q-2 -10 -2 -17q0 -26 17.5 -42.5t48.5 -16.5q37 0 61.5 28t24.5 60q0 25 -16 43.5t-44 20.5l9 40h7q37 0 59.5 27t22.5 59q0 26 -16 42t-46 16q-32 0 -54 -21.5t-27 -50.5h-42q6 51 40 82t87 31q44 0 71.5 -27 t27.5 -65q0 -88 -68 -121q30 -28 30 -70q0 -59 -36 -97t-95 -38z" glyph-name="three.superior" unicode="³"/>
<glyph d="M510 651l-264 -72l12 54l264 72z" glyph-name="acute" unicode="´"/>
<glyph d="M286 300h-10q-70 0 -115.5 52t-45.5 124q0 98 68.5 161t177.5 63h206l-167 -787h-43l158 745h-110l-158 -745h-43z" glyph-name="paragraph" unicode="¶"/>
<glyph d="M261 248l17 84h84l-17 -84h-84z" glyph-name="periodcentered" unicode="·"/>
<glyph d="M126 -134h84l18 84h50l-29 -134h-134z" glyph-name="cedilla" unicode="¸"/>
<glyph d="M320 681l-25 33l113 93h43l-78 -365h106l-9 -41h-254l9 41h105l64 300z" glyph-name="one.superior" unicode="¹"/>
<glyph d="M325 335q47 0 82.5 30t46.5 82q27 124 27 139q0 40 -24.5 62t-70.5 22q-47 0 -82 -30t-46 -82q-27 -124 -27 -139q0 -40 24.5 -62t69.5 -22zM318 294q-51 0 -90.5 30.5t-39.5 89.5q0 20 27 144q32 153 178 153q51 0 90.5 -30.5t39.5 -89.5q0 -25 -26 -144 q-32 -153 -179 -153zM446 207h-306l10 45h306z" glyph-name="ordmasculine" unicode="º"/>
<glyph d="M154 468l165 -210l-254 -210l-29 34l221 182l-137 176zM379 468l165 -210l-254 -210l-29 34l221 182l-137 176z" glyph-name="guillemotright" unicode="»"/>
<glyph d="M71 150l434 435l32 -32l-434 -435zM439 0h42l13 63h27l9 40h-27l11 53h-42l-11 -53h-61l126 134l-30 26l-150 -160l-9 -40h115zM145 603l-25 32l79 65h42l-48 -221h69l-9 -40h-178l9 40h67l34 158z" glyph-name="onequarter" unicode="¼"/>
<glyph d="M71 150l434 435l32 -32l-434 -435zM394 128l31 26q-7 8 -7 21q0 21 13 35.5t34 14.5q15 0 24.5 -9.5t9.5 -23.5q0 -10 -5.5 -20t-11.5 -16t-19 -17l-116 -99l-9 -40h162l9 40h-99l84 72q46 38 46 83q0 28 -21.5 49t-50.5 21q-42 0 -66.5 -26.5t-24.5 -66.5q0 -24 17 -44z M145 603l-25 32l79 65h42l-48 -221h69l-9 -40h-178l9 40h67l34 158z" glyph-name="onehalf" unicode="½"/>
<glyph d="M153 435q-29 0 -51.5 21t-22.5 49q0 5 1 11h41q-1 -3 -1 -8q0 -14 10 -23.5t26 -9.5q21 0 33 14t12 36q0 13 -9 22.5t-23 10.5l8 38h4q17 0 27 11t10 29q0 11 -8 19.5t-20 8.5q-34 0 -37 -34h-41q2 33 23.5 53.5t57.5 20.5q27 0 46 -18.5t19 -46.5q0 -47 -32 -68 q16 -19 16 -43q0 -40 -24 -66.5t-65 -26.5zM71 150l434 435l32 -32l-434 -435zM439 0h42l13 63h27l9 40h-27l11 53h-42l-11 -53h-61l126 134l-30 26l-150 -160l-9 -40h115z" glyph-name="threequarters" unicode="¾"/>
<glyph d="M322 150h-41q-72 0 -119 -52.5t-47 -118.5q0 -52 33 -87t98 -35t110 43.5t54 103.5h51q-11 -86 -70.5 -142t-151.5 -56q-78 0 -126.5 48.5t-48.5 114.5q0 96 59 162.5t157 69.5l18 85h53zM416 516l-18 -84h-84l18 84h84z" glyph-name="questiondown" unicode="¿"/>
<glyph d="M460 0l-28 218h-266l-120 -218h-59l386 700h50l89 -700h-52zM193 267h233l-44 343zM546 739l-264 72l10 48l264 -72z" glyph-name="Agrave" unicode="À"/>
<glyph d="M460 0l-28 218h-266l-120 -218h-59l386 700h50l89 -700h-52zM193 267h233l-44 343zM545 805l-264 -72l12 54l264 72z" glyph-name="Aacute" unicode="Á"/>
<glyph d="M460 0l-28 218h-266l-120 -218h-59l386 700h50l89 -700h-52zM193 267h233l-44 343zM561 733l-137 72l-167 -72l13 58l157 68l145 -77z" glyph-name="Acircumflex" unicode="Â"/>
<glyph d="M460 0l-28 218h-266l-120 -218h-59l386 700h50l89 -700h-52zM193 267h233l-44 343zM576 797l-113 -60l-91 66l-124 -66l14 63l113 60l91 -66l124 66z" glyph-name="Atilde" unicode="Ã"/>
<glyph d="M460 0l-28 218h-266l-120 -218h-59l386 700h50l89 -700h-52zM193 267h233l-44 343zM255 761l17 76h76l-17 -76h-76zM491 761l17 76h76l-17 -76h-76z" glyph-name="Adieresis" unicode="Ä"/>
<glyph d="M298 765q0 47 33.5 81t80.5 34t81 -34t34 -81q0 -42 -28 -74.5t-70 -38.5l83 -652h-52l-28 218h-266l-120 -218h-59l367 666q-56 33 -56 99zM193 267h233l-44 343zM347 765q0 -27 19 -46.5t46 -19.5t46.5 19.5t19.5 46.5t-19.5 46.5t-46.5 19.5t-46 -19.5t-19 -46.5z" glyph-name="Aring" unicode="Å"/>
<glyph d="M358 329l-59 -277h182l-11 -52h-237l46 218h-113l-120 -218h-59l386 700h246l-11 -52h-182l-57 -268h112l-11 -51h-112zM193 267h97l60 285z" glyph-name="AE" unicode="Æ"/>
<glyph d="M578 500h-54q1 10 1 21q0 65 -40.5 101t-102.5 36q-71 0 -122 -43t-70 -133q-12 -58 -23.5 -110.5t-17 -78t-10 -47.5t-6 -32t-2.5 -18t-1 -17q0 -65 40.5 -101t102.5 -36q68 0 117.5 38.5t70.5 119.5h55q-53 -210 -250 -210q-80 0 -135.5 50t-55.5 132q0 8 0.5 14 t1 12.5t3 18.5t4.5 24t7.5 37t10.5 49t14.5 68t18.5 87q48 228 254 228q80 0 135.5 -50t55.5 -132q0 -16 -2 -28zM115 -134h84l18 84h50l-29 -134h-134z" glyph-name="Ccedilla" unicode="Ç"/>
<glyph d="M190 329l-59 -277h332l-11 -52h-387l149 700h387l-11 -52h-332l-57 -268h262l-11 -51h-262zM555 739l-264 72l10 48l264 -72z" glyph-name="Egrave" unicode="È"/>
<glyph d="M190 329l-59 -277h332l-11 -52h-387l149 700h387l-11 -52h-332l-57 -268h262l-11 -51h-262zM554 805l-264 -72l12 54l264 72z" glyph-name="Eacute" unicode="É"/>
<glyph d="M190 329l-59 -277h332l-11 -52h-387l149 700h387l-11 -52h-332l-57 -268h262l-11 -51h-262zM570 733l-137 72l-167 -72l13 58l157 68l145 -77z" glyph-name="Ecircumflex" unicode="Ê"/>
<glyph d="M190 329l-59 -277h332l-11 -52h-387l149 700h387l-11 -52h-332l-57 -268h262l-11 -51h-262zM263 761l17 76h76l-17 -76h-76zM499 761l17 76h76l-17 -76h-76z" glyph-name="Edieresis" unicode="Ë"/>
<glyph d="M581 648h-166l-127 -596h166l-11 -52h-387l11 52h166l127 596h-166l11 52h387zM546 739l-264 72l10 48l264 -72z" glyph-name="Igrave" unicode="Ì"/>
<glyph d="M581 648h-166l-127 -596h166l-11 -52h-387l11 52h166l127 596h-166l11 52h387zM545 805l-264 -72l12 54l264 72z" glyph-name="Iacute" unicode="Í"/>
<glyph d="M581 648h-166l-127 -596h166l-11 -52h-387l11 52h166l127 596h-166l11 52h387zM561 733l-137 72l-167 -72l13 58l157 68l145 -77z" glyph-name="Icircumflex" unicode="Î"/>
<glyph d="M581 648h-166l-127 -596h166l-11 -52h-387l11 52h166l127 596h-166l11 52h387zM255 761l17 76h76l-17 -76h-76zM491 761l17 76h76l-17 -76h-76z" glyph-name="Idieresis" unicode="Ï"/>
<glyph d="M281 0h-236l70 328h-70l9 45h70l70 327h206q80 0 135.5 -50t55.5 -132q0 -6 -0.5 -12.5t-1.5 -15.5t-2.5 -17t-4.5 -23t-5.5 -27t-7.5 -35.5t-9 -42.5t-11.5 -53.5t-13.5 -63.5q-50 -228 -254 -228zM111 52h177q71 0 122 43t70 133q12 58 23 109t16 74.5t9.5 42.5t5.5 27 t1.5 14t0.5 16q0 65 -40.5 101t-102.5 36h-155l-59 -275h166l-9 -45h-166z" glyph-name="Eth" unicode="Ð"/>
<glyph d="M619 700l-149 -700h-55l-204 605l-128 -605h-55l149 700h55l204 -605l128 605h55zM576 797l-113 -60l-91 66l-124 -66l14 63l113 60l91 -66l124 66z" glyph-name="Ntilde" unicode="Ñ"/>
<glyph d="M516 218q-48 -228 -254 -228q-80 0 -135.5 50t-55.5 132q0 8 0.5 14t1 12.5t3 18.5t4.5 24t7.5 37t10.5 49t14.5 68t18.5 87q48 228 254 228q80 0 135.5 -50t55.5 -132q0 -8 -0.5 -14t-1 -12.5t-3 -18.5t-4.5 -24t-7.5 -37t-10.5 -49t-14.5 -68t-18.5 -87zM186 482 q-12 -58 -23.5 -110.5t-17 -78t-10 -47.5t-6 -32t-2.5 -18t-1 -17q0 -65 40.5 -101t102.5 -36q71 0 122 43t70 133q12 58 23.5 110.5t17 78t10 47.5t6 32t2.5 18t1 17q0 65 -40.5 101t-102.5 36q-71 0 -122 -43t-70 -133zM545 739l-264 72l10 48l264 -72z" glyph-name="Ograve" unicode="Ò"/>
<glyph d="M516 218q-48 -228 -254 -228q-80 0 -135.5 50t-55.5 132q0 8 0.5 14t1 12.5t3 18.5t4.5 24t7.5 37t10.5 49t14.5 68t18.5 87q48 228 254 228q80 0 135.5 -50t55.5 -132q0 -8 -0.5 -14t-1 -12.5t-3 -18.5t-4.5 -24t-7.5 -37t-10.5 -49t-14.5 -68t-18.5 -87zM186 482 q-12 -58 -23.5 -110.5t-17 -78t-10 -47.5t-6 -32t-2.5 -18t-1 -17q0 -65 40.5 -101t102.5 -36q71 0 122 43t70 133q12 58 23.5 110.5t17 78t10 47.5t6 32t2.5 18t1 17q0 65 -40.5 101t-102.5 36q-71 0 -122 -43t-70 -133zM545 805l-264 -72l12 54l264 72z" glyph-name="Oacute" unicode="Ó"/>
<glyph d="M516 218q-48 -228 -254 -228q-80 0 -135.5 50t-55.5 132q0 8 0.5 14t1 12.5t3 18.5t4.5 24t7.5 37t10.5 49t14.5 68t18.5 87q48 228 254 228q80 0 135.5 -50t55.5 -132q0 -8 -0.5 -14t-1 -12.5t-3 -18.5t-4.5 -24t-7.5 -37t-10.5 -49t-14.5 -68t-18.5 -87zM186 482 q-12 -58 -23.5 -110.5t-17 -78t-10 -47.5t-6 -32t-2.5 -18t-1 -17q0 -65 40.5 -101t102.5 -36q71 0 122 43t70 133q12 58 23.5 110.5t17 78t10 47.5t6 32t2.5 18t1 17q0 65 -40.5 101t-102.5 36q-71 0 -122 -43t-70 -133zM562 733l-137 72l-167 -72l13 58l157 68l145 -77z " glyph-name="Ocircumflex" unicode="Ô"/>
<glyph d="M516 218q-48 -228 -254 -228q-80 0 -135.5 50t-55.5 132q0 8 0.5 14t1 12.5t3 18.5t4.5 24t7.5 37t10.5 49t14.5 68t18.5 87q48 228 254 228q80 0 135.5 -50t55.5 -132q0 -8 -0.5 -14t-1 -12.5t-3 -18.5t-4.5 -24t-7.5 -37t-10.5 -49t-14.5 -68t-18.5 -87zM186 482 q-12 -58 -23.5 -110.5t-17 -78t-10 -47.5t-6 -32t-2.5 -18t-1 -17q0 -65 40.5 -101t102.5 -36q71 0 122 43t70 133q12 58 23.5 110.5t17 78t10 47.5t6 32t2.5 18t1 17q0 65 -40.5 101t-102.5 36q-71 0 -122 -43t-70 -133zM576 797l-113 -60l-91 66l-124 -66l14 63l113 60 l91 -66l124 66z" glyph-name="Otilde" unicode="Õ"/>
<glyph d="M516 218q-48 -228 -254 -228q-80 0 -135.5 50t-55.5 132q0 8 0.5 14t1 12.5t3 18.5t4.5 24t7.5 37t10.5 49t14.5 68t18.5 87q48 228 254 228q80 0 135.5 -50t55.5 -132q0 -8 -0.5 -14t-1 -12.5t-3 -18.5t-4.5 -24t-7.5 -37t-10.5 -49t-14.5 -68t-18.5 -87zM186 482 q-12 -58 -23.5 -110.5t-17 -78t-10 -47.5t-6 -32t-2.5 -18t-1 -17q0 -65 40.5 -101t102.5 -36q71 0 122 43t70 133q12 58 23.5 110.5t17 78t10 47.5t6 32t2.5 18t1 17q0 65 -40.5 101t-102.5 36q-71 0 -122 -43t-70 -133zM255 761l17 76h76l-17 -76h-76zM491 761l17 76h76 l-17 -76h-76z" glyph-name="Odieresis" unicode="Ö"/>
<glyph d="M481 419l-140 -139l140 -139l-32 -32l-140 139l-139 -139l-32 32l139 139l-139 139l32 32l139 -139l140 139z" glyph-name="multiply" unicode="×"/>
<glyph d="M516 218q-48 -228 -254 -228q-95 0 -150 64l-71 -87l-34 26l81 100q-17 36 -17 79q0 8 0.5 14t1 12.5t3 18.5t4.5 24t7.5 37t10.5 49t14.5 68t18.5 87q48 228 254 228q94 0 149 -64l71 87l35 -26l-81 -100q17 -39 17 -79q0 -8 -0.5 -14t-1 -12.5t-3 -18.5t-4.5 -24 t-7.5 -37t-10.5 -49t-14.5 -68t-18.5 -87zM521 521q0 21 -4 34l-369 -456q38 -57 121 -57q71 0 122 43t70 133q12 58 23.5 110.5t17 78t10 47.5t6 32t2.5 18t1 17zM186 482q-12 -58 -23.5 -110.5t-17 -78t-10 -47.5t-6 -32t-2.5 -18t-1 -17q0 -19 3 -35l369 457 q-38 57 -120 57q-71 0 -122 -43t-70 -133z" glyph-name="Oslash" unicode="Ø"/>
<glyph d="M126 179q0 -65 40.5 -101t102.5 -36q71 0 122 43t70 133l103 482h55l-103 -482q-48 -228 -254 -228q-80 0 -136 50t-56 132q0 27 40 210q37 174 68 318h55q-29 -134 -65 -302q-42 -194 -42 -219zM546 739l-264 72l10 48l264 -72z" glyph-name="Ugrave" unicode="Ù"/>
<glyph d="M126 179q0 -65 40.5 -101t102.5 -36q71 0 122 43t70 133l103 482h55l-103 -482q-48 -228 -254 -228q-80 0 -136 50t-56 132q0 27 40 210q37 174 68 318h55q-29 -134 -65 -302q-42 -194 -42 -219zM545 805l-264 -72l12 54l264 72z" glyph-name="Uacute" unicode="Ú"/>
<glyph d="M126 179q0 -65 40.5 -101t102.5 -36q71 0 122 43t70 133l103 482h55l-103 -482q-48 -228 -254 -228q-80 0 -136 50t-56 132q0 27 40 210q37 174 68 318h55q-29 -134 -65 -302q-42 -194 -42 -219zM562 733l-137 72l-167 -72l13 58l157 68l145 -77z" glyph-name="Ucircumflex" unicode="Û"/>
<glyph d="M126 179q0 -65 40.5 -101t102.5 -36q71 0 122 43t70 133l103 482h55l-103 -482q-48 -228 -254 -228q-80 0 -136 50t-56 132q0 27 40 210q37 174 68 318h55q-29 -134 -65 -302q-42 -194 -42 -219zM256 761l17 76h76l-17 -76h-76zM492 761l17 76h76l-17 -76h-76z" glyph-name="Udieresis" unicode="Ü"/>
<glyph d="M662 700l-323 -409l-62 -291h-55l62 291l-149 409h56l129 -350l275 350h67zM545 805l-264 -72l12 54l264 72z" glyph-name="Yacute" unicode="Ý"/>
<glyph d="M329 148h-185l-31 -148h-55l149 700h55l-31 -146h151q90 0 138.5 -53t48.5 -128q0 -85 -62 -155t-178 -70zM156 200h180q78 0 128 51t50 117q0 55 -33.5 94.5t-110.5 39.5h-150z" glyph-name="Thorn" unicode="Þ"/>
<glyph d="M84 0l127 597q12 57 35.5 80t93.5 23h10l-11 -50h-10q-31 0 -45 -12t-20 -41l-17 -81h249l-11 -50l-159 -168q65 -16 102 -65.5t37 -119.5q0 -122 -89 -212t-215 -90l11 51q90 0 165.5 75.5t75.5 162.5q0 73 -35.5 113.5t-122.5 40.5l11 51l153 161h-183l-99 -466h-53z " glyph-name="germandbls" unicode="ß"/>
<glyph d="M176 360h-53q50 170 224 170q66 0 117 -39.5t51 -116.5q0 -28 -34 -187l-40 -187h-53l15 66q-54 -76 -167 -76q-72 0 -117.5 40.5t-45.5 98.5q0 126 125 161q73 21 258 29q7 32 7 49q0 53 -32 82.5t-93 29.5q-55 0 -98.5 -32t-63.5 -88zM429 192l17 79q-180 -8 -244 -30 q-76 -26 -76 -108q0 -40 30.5 -66.5t90.5 -26.5q69 0 118.5 41.5t63.5 110.5zM510 585l-264 72l10 48l264 -72z" glyph-name="agrave" unicode="à"/>
<glyph d="M176 360h-53q50 170 224 170q66 0 117 -39.5t51 -116.5q0 -28 -34 -187l-40 -187h-53l15 66q-54 -76 -167 -76q-72 0 -117.5 40.5t-45.5 98.5q0 126 125 161q73 21 258 29q7 32 7 49q0 53 -32 82.5t-93 29.5q-55 0 -98.5 -32t-63.5 -88zM429 192l17 79q-180 -8 -244 -30 q-76 -26 -76 -108q0 -40 30.5 -66.5t90.5 -26.5q69 0 118.5 41.5t63.5 110.5zM510 651l-264 -72l12 54l264 72z" glyph-name="aacute" unicode="á"/>
<glyph d="M176 360h-53q50 170 224 170q66 0 117 -39.5t51 -116.5q0 -28 -34 -187l-40 -187h-53l15 66q-54 -76 -167 -76q-72 0 -117.5 40.5t-45.5 98.5q0 126 125 161q73 21 258 29q7 32 7 49q0 53 -32 82.5t-93 29.5q-55 0 -98.5 -32t-63.5 -88zM429 192l17 79q-180 -8 -244 -30 q-76 -26 -76 -108q0 -40 30.5 -66.5t90.5 -26.5q69 0 118.5 41.5t63.5 110.5zM526 579l-137 72l-167 -72l13 58l157 68l145 -77z" glyph-name="acircumflex" unicode="â"/>
<glyph d="M176 360h-53q50 170 224 170q66 0 117 -39.5t51 -116.5q0 -28 -34 -187l-40 -187h-53l15 66q-54 -76 -167 -76q-72 0 -117.5 40.5t-45.5 98.5q0 126 125 161q73 21 258 29q7 32 7 49q0 53 -32 82.5t-93 29.5q-55 0 -98.5 -32t-63.5 -88zM429 192l17 79q-180 -8 -244 -30 q-76 -26 -76 -108q0 -40 30.5 -66.5t90.5 -26.5q69 0 118.5 41.5t63.5 110.5zM541 640l-113 -60l-91 66l-124 -66l14 63l113 60l91 -66l124 66z" glyph-name="atilde" unicode="ã"/>
<glyph d="M176 360h-53q50 170 224 170q66 0 117 -39.5t51 -116.5q0 -28 -34 -187l-40 -187h-53l15 66q-54 -76 -167 -76q-72 0 -117.5 40.5t-45.5 98.5q0 126 125 161q73 21 258 29q7 32 7 49q0 53 -32 82.5t-93 29.5q-55 0 -98.5 -32t-63.5 -88zM429 192l17 79q-180 -8 -244 -30 q-76 -26 -76 -108q0 -40 30.5 -66.5t90.5 -26.5q69 0 118.5 41.5t63.5 110.5zM219 607l17 76h76l-17 -76h-76zM455 607l17 76h76l-17 -76h-76z" glyph-name="adieresis" unicode="ä"/>
<glyph d="M256 595q0 47 33.5 81t80.5 34t81 -34t34 -81q0 -55 -44 -89q74 -42 74 -132q0 -28 -34 -187l-40 -187h-53l15 66q-54 -76 -167 -76q-72 0 -117.5 40.5t-45.5 98.5q0 126 125 161q73 21 258 29q7 32 7 49q0 53 -32 82.5t-93 29.5q-55 0 -98.5 -32t-63.5 -88h-53 q38 134 158 163q-25 30 -25 72zM429 192l17 79q-180 -8 -244 -30q-76 -26 -76 -108q0 -40 30.5 -66.5t90.5 -26.5q69 0 118.5 41.5t63.5 110.5zM305 595q0 -27 19 -46t46 -19t46.5 19t19.5 46t-19.5 46.5t-46.5 19.5t-46 -19.5t-19 -46.5z" glyph-name="aring" unicode="å"/>
<glyph d="M307 415q0 31 -21 48t-56 17q-81 0 -99 -88q-3 -13 -7 -32h-54l7 31q15 68 49.5 103.5t110.5 35.5q35 0 62 -16t41 -40q43 56 124 56q54 0 88 -32t34 -79q0 -22 -30 -166h-228q-29 -133 -29 -148q0 -31 21 -48t56 -17q81 0 99 88q3 12 7 32h54l-7 -31 q-15 -68 -49.5 -103.5t-110.5 -35.5q-35 0 -62 16t-41 40q-43 -56 -124 -56q-54 0 -88 32t-34 79q0 21 9 63q14 68 49 103.5t111 35.5h97q21 105 21 112zM275 253h-93q-81 0 -99 -88q-11 -55 -11 -60q0 -31 21 -48t56 -17q81 0 99 88q13 60 27 125zM339 303h174 q21 105 21 112q0 31 -21 48t-56 17q-81 0 -99 -88q-8 -40 -19 -89z" glyph-name="ae" unicode="æ"/>
<glyph d="M524 374v-14h-52v8q0 53 -32 82.5t-93 29.5t-107.5 -39.5t-61.5 -107.5q-35 -164 -35 -181q0 -53 32 -82.5t93 -29.5q55 0 98.5 32t63.5 88h53q-50 -170 -224 -170q-66 0 -117 39.5t-51 116.5q0 28 34 187q42 197 231 197q66 0 117 -39.5t51 -116.5zM114 -134h84l18 84 h50l-29 -134h-134z" glyph-name="ccedilla" unicode="ç"/>
<glyph d="M502 253q20 95 20 121q0 77 -51 116.5t-117 39.5q-189 0 -231 -197q-34 -159 -34 -187q0 -77 51 -116.5t117 -39.5q174 0 224 170h-54q-20 -56 -63 -88t-98 -32q-61 0 -93 29.5t-32 82.5q0 19 18 101h343zM460 303h-290q10 81 58 129t117 48q61 0 93 -29.5t32 -82.5 q0 -19 -10 -65zM515 585l-264 72l10 48l264 -72z" glyph-name="egrave" unicode="è"/>
<glyph d="M502 253q20 95 20 121q0 77 -51 116.5t-117 39.5q-189 0 -231 -197q-34 -159 -34 -187q0 -77 51 -116.5t117 -39.5q174 0 224 170h-54q-20 -56 -63 -88t-98 -32q-61 0 -93 29.5t-32 82.5q0 19 18 101h343zM460 303h-290q10 81 58 129t117 48q61 0 93 -29.5t32 -82.5 q0 -19 -10 -65zM514 651l-264 -72l12 54l264 72z" glyph-name="eacute" unicode="é"/>
<glyph d="M502 253q20 95 20 121q0 77 -51 116.5t-117 39.5q-189 0 -231 -197q-34 -159 -34 -187q0 -77 51 -116.5t117 -39.5q174 0 224 170h-54q-20 -56 -63 -88t-98 -32q-61 0 -93 29.5t-32 82.5q0 19 18 101h343zM460 303h-290q10 81 58 129t117 48q61 0 93 -29.5t32 -82.5 q0 -19 -10 -65zM530 579l-137 72l-167 -72l13 58l157 68l145 -77z" glyph-name="ecircumflex" unicode="ê"/>
<glyph d="M502 253q20 95 20 121q0 77 -51 116.5t-117 39.5q-189 0 -231 -197q-34 -159 -34 -187q0 -77 51 -116.5t117 -39.5q174 0 224 170h-54q-20 -56 -63 -88t-98 -32q-61 0 -93 29.5t-32 82.5q0 19 18 101h343zM460 303h-290q10 81 58 129t117 48q61 0 93 -29.5t32 -82.5 q0 -19 -10 -65zM222 607l17 76h76l-17 -76h-76zM458 607l17 76h76l-17 -76h-76z" glyph-name="edieresis" unicode="ë"/>
<glyph d="M192 466l11 50h185l-99 -466h182l-11 -50h-417l11 50h182l88 416h-132zM516 585l-264 72l10 48l264 -72z" glyph-name="igrave" unicode="ì"/>
<glyph d="M192 466l11 50h185l-99 -466h182l-11 -50h-417l11 50h182l88 416h-132zM515 651l-264 -72l12 54l264 72z" glyph-name="iacute" unicode="í"/>
<glyph d="M192 466l11 50h185l-99 -466h182l-11 -50h-417l11 50h182l88 416h-132zM532 579l-137 72l-167 -72l13 58l157 68l145 -77z" glyph-name="icircumflex" unicode="î"/>
<glyph d="M192 466l11 50h185l-99 -466h182l-11 -50h-417l11 50h182l88 416h-132zM224 607l17 76h76l-17 -76h-76zM460 607l17 76h76l-17 -76h-76z" glyph-name="idieresis" unicode="ï"/>
<glyph d="M487 187q-42 -197 -231 -197q-66 0 -117 39.5t-51 116.5q0 28 34 187q42 197 231 197q28 0 53 -7l-32 62h-129l9 43h99l-36 72h59l36 -72h84l-9 -43h-54l62 -122q26 -52 26 -89q0 -28 -34 -187zM175 333q-35 -164 -35 -181q0 -53 32 -82.5t93 -29.5t107.5 39.5 t61.5 107.5q35 164 35 181q0 53 -32 82.5t-93 29.5t-107.5 -39.5t-61.5 -107.5z" glyph-name="eth" unicode="ð"/>
<glyph d="M354 530q66 0 117 -39.5t51 -116.5q0 -28 -34 -187l-40 -187h-53l40 187q35 164 35 181q0 53 -32 82.5t-93 29.5t-107.5 -39.5t-61.5 -107.5l-71 -333h-53l110 516h53l-13 -59q49 73 152 73zM544 640l-113 -60l-91 66l-124 -66l14 63l113 60l91 -66l124 66z" glyph-name="ntilde" unicode="ñ"/>
<glyph d="M175 333q-35 -164 -35 -181q0 -53 32 -82.5t93 -29.5t107.5 39.5t61.5 107.5q35 164 35 181q0 53 -32 82.5t-93 29.5t-107.5 -39.5t-61.5 -107.5zM487 187q-42 -197 -231 -197q-66 0 -117 39.5t-51 116.5q0 28 34 187q42 197 231 197q66 0 117 -39.5t51 -116.5 q0 -28 -34 -187zM513 585l-264 72l10 48l264 -72z" glyph-name="ograve" unicode="ò"/>
<glyph d="M175 333q-35 -164 -35 -181q0 -53 32 -82.5t93 -29.5t107.5 39.5t61.5 107.5q35 164 35 181q0 53 -32 82.5t-93 29.5t-107.5 -39.5t-61.5 -107.5zM487 187q-42 -197 -231 -197q-66 0 -117 39.5t-51 116.5q0 28 34 187q42 197 231 197q66 0 117 -39.5t51 -116.5 q0 -28 -34 -187zM513 651l-264 -72l12 54l264 72z" glyph-name="oacute" unicode="ó"/>
<glyph d="M487 187q-42 -197 -231 -197q-66 0 -117 39.5t-51 116.5q0 28 34 187q42 197 231 197q66 0 117 -39.5t51 -116.5q0 -28 -34 -187zM175 333q-35 -164 -35 -181q0 -53 32 -82.5t93 -29.5t107.5 39.5t61.5 107.5q35 164 35 181q0 53 -32 82.5t-93 29.5t-107.5 -39.5 t-61.5 -107.5zM530 579l-137 72l-167 -72l13 58l157 68l145 -77z" glyph-name="ocircumflex" unicode="ô"/>
<glyph d="M487 187q-42 -197 -231 -197q-66 0 -117 39.5t-51 116.5q0 28 34 187q42 197 231 197q66 0 117 -39.5t51 -116.5q0 -28 -34 -187zM175 333q-35 -164 -35 -181q0 -53 32 -82.5t93 -29.5t107.5 39.5t61.5 107.5q35 164 35 181q0 53 -32 82.5t-93 29.5t-107.5 -39.5 t-61.5 -107.5zM543 640l-113 -60l-91 66l-124 -66l14 63l113 60l91 -66l124 66z" glyph-name="otilde" unicode="õ"/>
<glyph d="M175 333q-35 -164 -35 -181q0 -53 32 -82.5t93 -29.5t107.5 39.5t61.5 107.5q35 164 35 181q0 53 -32 82.5t-93 29.5t-107.5 -39.5t-61.5 -107.5zM487 187q-42 -197 -231 -197q-66 0 -117 39.5t-51 116.5q0 28 34 187q42 197 231 197q66 0 117 -39.5t51 -116.5 q0 -28 -34 -187zM222 607l17 76h76l-17 -76h-76zM458 607l17 76h76l-17 -76h-76z" glyph-name="odieresis" unicode="ö"/>
<glyph d="M267 479q0 17 12.5 29.5t29.5 12.5t29.5 -12.5t12.5 -29.5t-12.5 -29.5t-29.5 -12.5t-29.5 12.5t-12.5 29.5zM267 82q0 17 12.5 29.5t29.5 12.5t29.5 -12.5t12.5 -29.5t-12.5 -29.5t-29.5 -12.5t-29.5 12.5t-12.5 29.5zM507 258h-396v45h396v-45z" glyph-name="divide" unicode="÷"/>
<glyph d="M487 187q-42 -197 -231 -197q-67 0 -113 36l-48 -59l-36 27l53 65q-24 37 -24 87q0 28 34 187q42 197 231 197q65 0 111 -36l48 59l36 -27l-52 -64q25 -38 25 -88q0 -28 -34 -187zM469 368q0 28 -9 49l-285 -350q31 -27 90 -27q61 0 107.5 39.5t61.5 107.5q35 164 35 181 zM175 333q-35 -164 -35 -181q0 -26 8 -48l284 350q-32 26 -88 26q-61 0 -107.5 -39.5t-61.5 -107.5z" glyph-name="oslash" unicode="ø"/>
<glyph d="M258 -10q-65 0 -116.5 40t-51.5 116q0 27 33 183l40 187h53l-40 -187q-34 -158 -34 -177q0 -52 32 -82t90 -30q57 0 103.5 39.5t61.5 107.5l70 329h53l-110 -516h-53l14 63q-18 -29 -58 -51t-87 -22zM511 585l-264 72l10 48l264 -72z" glyph-name="ugrave" unicode="ù"/>
<glyph d="M258 -10q-65 0 -116.5 40t-51.5 116q0 27 33 183l40 187h53l-40 -187q-34 -158 -34 -177q0 -52 32 -82t90 -30q57 0 103.5 39.5t61.5 107.5l70 329h53l-110 -516h-53l14 63q-18 -29 -58 -51t-87 -22zM511 651l-264 -72l12 54l264 72z" glyph-name="uacute" unicode="ú"/>
<glyph d="M258 -10q-65 0 -116.5 40t-51.5 116q0 27 33 183l40 187h53l-40 -187q-34 -158 -34 -177q0 -52 32 -82t90 -30q57 0 103.5 39.5t61.5 107.5l70 329h53l-110 -516h-53l14 63q-18 -29 -58 -51t-87 -22zM528 579l-137 72l-167 -72l13 58l157 68l145 -77z" glyph-name="ucircumflex" unicode="û"/>
<glyph d="M258 -10q-65 0 -116.5 40t-51.5 116q0 27 33 183l40 187h53l-40 -187q-34 -158 -34 -177q0 -52 32 -82t90 -30q57 0 103.5 39.5t61.5 107.5l70 329h53l-110 -516h-53l14 63q-18 -29 -58 -51t-87 -22zM220 607l17 76h76l-17 -76h-76zM456 607l17 76h76l-17 -76h-76z" glyph-name="udieresis" unicode="ü"/>
<glyph d="M223 -1l-77 517h52l66 -444l252 444h60l-342 -597q-17 -29 -25 -41.5t-24.5 -30.5t-36 -24.5t-46.5 -6.5h-42l11 50h43q16 0 29 9.5t19 18.5t19 31zM514 651l-264 -72l12 54l264 72z" glyph-name="yacute" unicode="ý"/>
<glyph d="M347 480q-61 0 -107.5 -39.5t-61.5 -107.5q-35 -164 -35 -181q0 -53 32 -82.5t93 -29.5t107.5 39.5t61.5 107.5q35 164 35 181q0 53 -32 82.5t-93 29.5zM256 700l-52 -243q49 73 152 73q66 0 117 -39.5t51 -116.5q0 -28 -34 -187q-42 -197 -231 -197q-53 0 -89.5 25.5 t-47.5 57.5l-54 -257h-53l188 884h53z" glyph-name="thorn" unicode="þ"/>
</font>
</defs>
</svg>
