<?xml version="1.0" encoding="UTF-8" standalone="no"?>
<!DOCTYPE svg  PUBLIC '-//W3C//DTD SVG 1.1//EN'  'http://www.w3.org/Graphics/SVG/1.1/DTD/svg11.dtd'>
<svg version="1.1" xmlns="http://www.w3.org/2000/svg">
<defs>
<font id="SimplonBPMono-BoldItalic" horiz-adv-x="608">
<font-face ascent="750" underline-thickness="50" unicode-range="U+0020-00FE" x-height="516" cap-height="700" bbox="-64 -194 713 880" font-weight="700" font-style="italic" descent="-250" panose-1="2 0 0 0 0 0 0 0 0 0" underline-position="-150" units-per-em="1000" font-family="Simplon BP Mono Bold"/>
<missing-glyph/>
<glyph glyph-name="space" unicode=" "/>
<glyph glyph-name="exclam" unicode="!" d="M464 700l-100 -470h-132l100 470h132zM169 0l34 160h160l-34 -160h-160z"/>
<glyph glyph-name="quotedbl" unicode='&quot;' d="M516 476h-53v224h53v-224zM273 476h-53v224h53v-224z"/>
<glyph glyph-name="numbersign" unicode="#" d="M538 216h-93l-53 -216h-47l53 216h-211l-53 -216h-47l53 216h-71v45h82l44 178h-81v45h92l54 216h47l-54 -216h211l54 216h47l-54 -216h72v-45h-83l-44 -178h82v-45zM242 439l-44 -178h211l44 178h-211z"/>
<glyph glyph-name="dollar" unicode="$" d="M210 -100l20 96q-75 15 -121 66.5t-46 125.5q0 22 2 33h129q-1 -6 -1 -18q0 -43 26.5 -70t71.5 -27q49 0 71.5 26.5t22.5 65.5q0 66 -69 91l-56 20q-68 25 -97.5 76.5t-29.5 108.5q0 25 4.5 50t20 56t40 54.5t69 39.5t102.5 16q2 0 6 -0.5t6 -0.5l20 91h43l-21 -96 q67 -15 111 -64t44 -115q0 -7 -1 -16h-128v8q0 40 -27.5 58.5t-64.5 18.5q-41 0 -68.5 -23.5t-27.5 -65.5q0 -60 71 -85l56 -20q61 -22 93 -75.5t32 -108.5q0 -27 -4 -53t-18.5 -58.5t-38 -57t-66.5 -41t-100 -16.5h-14l-19 -90h-43z"/>
<glyph glyph-name="percent" unicode="%" d="M75 567q0 57 40 97.5t97 40.5t97.5 -40.5t40.5 -97.5t-40.5 -97t-97.5 -40t-97 40t-40 97zM300 132q0 57 40 97.5t97 40.5t97.5 -40.5t40.5 -97.5t-40.5 -97t-97.5 -40t-97 40t-40 97zM171 567q0 -18 11.5 -30.5t29.5 -12.5t30 12.5t12 30.5t-12 31t-30 13t-29.5 -12.5 t-11.5 -31.5zM396 132q0 -18 11.5 -30.5t29.5 -12.5t30 12.5t12 30.5t-12 31t-30 13t-29.5 -12.5t-11.5 -31.5zM92 150l434 435l32 -32l-434 -435z"/>
<glyph glyph-name="ampersand" unicode="&amp;" d="M394 -5l-17 47q-20 -22 -56.5 -37t-79.5 -15q-84 0 -143.5 53.5t-59.5 141.5q0 80 39.5 139.5t110.5 84.5q22 8 55 13l-56 162l25 116h369l-25 -116h-235l103 -294l60 78l107 -70l-118 -151l34 -95zM333 170l-52 144q-15 0 -27 -3q-40 -9 -64 -43t-24 -79q0 -39 22.5 -61 t55.5 -22q30 0 54 20t35 44z"/>
<glyph glyph-name="quotesingle" unicode="&apos;" d="M400 476h-53v224h53v-224z"/>
<glyph glyph-name="parenleft" unicode="(" d="M333 597q12 54 37.5 78.5t86.5 24.5h123l-9 -42h-119q-35 0 -52 -15.5t-25 -51.5q-127 -595 -127 -605q0 -36 47 -36h125l-9 -42h-125q-81 0 -81 75q0 14 128 614z"/>
<glyph glyph-name="parenright" unicode=")" d="M295 11q-12 -54 -37.5 -78.5t-86.5 -24.5h-123l9 42h119q35 0 52 15.5t25 51.5q127 595 127 605q0 36 -47 36h-125l9 42h125q81 0 81 -75q0 -14 -128 -614z"/>
<glyph glyph-name="asterisk" unicode="*" d="M339 467l-122 -127l-34 27l125 131l-145 50l20 40l143 -50l35 162h45l-35 -162l165 50l4 -46l-164 -49l67 -129l-40 -24z"/>
<glyph glyph-name="plus" unicode="+" d="M287 82v176h-176v45h176v175h45v-175h175v-45h-175v-176h-45z"/>
<glyph glyph-name="comma" unicode="," d="M185 -166l-85 85l204 203l85 -85z"/>
<glyph glyph-name="hyphen" unicode="-" d="M445 258h-290l9 45h290z"/>
<glyph glyph-name="period" unicode="." d="M170 0l35 160h160l-35 -160h-160z"/>
<glyph glyph-name="slash" unicode="/" d="M558 705l37 -26l-472 -684l-37 26z"/>
<glyph glyph-name="zero" unicode="0" d="M121 480q47 230 257 230q84 0 143.5 -55.5t59.5 -144.5q0 -15 -8 -60.5t-16.5 -86.5t-19.5 -91t-11 -52q-24 -113 -86 -171.5t-171 -58.5q-84 0 -143.5 55.5t-59.5 144.5q0 15 8 60.5t16.5 86.5t19.5 91t11 52zM392 212l44 203l-239 -197q-3 -21 -3 -24q0 -40 24.5 -64 t63.5 -24q43 0 71.5 30.5t38.5 75.5zM453 506q0 40 -24.5 64t-63.5 24q-43 0 -71.5 -30.5t-38.5 -75.5q-32 -142 -44 -202l239 197q3 22 3 23z"/>
<glyph glyph-name="one" unicode="1" d="M514 0h-495l23 116h182l82 385l-100 -83l-78 100l221 182h132l-125 -584h182z"/>
<glyph glyph-name="two" unicode="2" d="M266 415l-100 -79q-41 52 -41 124q0 108 68.5 179t186.5 71q84 0 143.5 -55.5t59.5 -143.5q0 -121 -126 -223l-211 -172h258l-24 -116h-460l24 116l333 271q78 64 78 119q0 40 -24.5 64t-63.5 24q-51 0 -82.5 -38.5t-31.5 -91.5q0 -28 13 -49z"/>
<glyph glyph-name="three" unicode="3" d="M310 325l23 110h9q34 0 54.5 29t20.5 67q0 63 -55 63q-30 0 -49.5 -23t-24.5 -56h-130q8 90 65.5 142.5t153.5 52.5q75 0 122.5 -53t47.5 -117q0 -115 -77 -174q45 -51 45 -126q0 -108 -68.5 -179t-186.5 -71q-84 0 -143.5 55.5t-59.5 144.5q0 10 2 30h128q-2 -16 -2 -26 q0 -40 24.5 -64t63.5 -24q51 0 82.5 38.5t31.5 91.5q0 38 -21 62t-56 27z"/>
<glyph glyph-name="four" unicode="4" d="M438 705l96 -83l-321 -347h131l30 144h132l-30 -144h73l-26 -116h-73l-33 -159h-132l33 159h-301l24 116z"/>
<glyph glyph-name="five" unicode="5" d="M335 584l-56 -129q21 3 44 3q84 0 144 -55.5t60 -144.5q0 -20 -4 -38q-24 -114 -85.5 -172t-170.5 -58q-84 0 -144 55.5t-60 144.5q0 16 2 30h132q-1 -4 -2 -10t-2 -10t-1 -6q0 -40 24.5 -64t63.5 -24q44 0 72.5 31t37.5 75q8 40 8 42q0 40 -24.5 64t-63.5 24 q-58 0 -91 -55l-113 89l140 324h334l-24 -116h-221z"/>
<glyph glyph-name="six" unicode="6" d="M67 228q18 102 84 173l288 304l96 -82l-161 -171q9 -2 21 -6q59 -20 96 -70t37 -118q0 -20 -4 -38q-24 -114 -85.5 -172t-170.5 -58q-84 0 -144 55.5t-60 144.5q0 20 3 38zM391 212q8 40 8 42q0 40 -24.5 64t-63.5 24q-44 0 -72.5 -31t-37.5 -75q-8 -40 -8 -42 q0 -40 24.5 -64t63.5 -24q44 0 72.5 31t37.5 75z"/>
<glyph glyph-name="seven" unicode="7" d="M171 700h454l-25 -116l-344 -589l-120 48l316 541h-173l-24 -114h-132z"/>
<glyph glyph-name="eight" unicode="8" d="M556 540q0 -115 -77 -174q45 -51 45 -126q0 -108 -68.5 -179t-186.5 -71q-84 0 -143.5 55.5t-59.5 144.5q0 73 32 129.5t91 86.5q-23 40 -23 83q0 100 59 160.5t161 60.5q75 0 122.5 -53t47.5 -117zM282 106q51 0 82.5 38.5t31.5 91.5q0 40 -24.5 64t-63.5 24 q-51 0 -82.5 -38.5t-31.5 -91.5q0 -40 24.5 -64t63.5 -24zM296 498q0 -63 55 -63q34 0 54.5 29t20.5 67q0 63 -55 63q-34 0 -54.5 -29t-20.5 -67z"/>
<glyph glyph-name="nine" unicode="9" d="M581 472q-18 -102 -84 -173l-288 -304l-96 82l161 171q-9 2 -21 6q-59 20 -96 70t-37 118q0 20 4 38q24 114 85.5 172t170.5 58q84 0 144 -55.5t60 -144.5q0 -20 -3 -38zM257 488q-8 -40 -8 -42q0 -40 24.5 -64t63.5 -24q44 0 72.5 31t37.5 75q8 40 8 42q0 40 -24.5 64 t-63.5 24q-44 0 -72.5 -31t-37.5 -75z"/>
<glyph glyph-name="colon" unicode=":" d="M235 308l35 160h160l-35 -160h-160zM170 0l35 160h160l-35 -160h-160z"/>
<glyph glyph-name="semicolon" unicode=";" d="M134 -166l-85 85l204 203l85 -85zM235 308l35 160h160l-35 -160h-160z"/>
<glyph glyph-name="less" unicode="&lt;" d="M454 499l-239 -239l239 -239l-32 -31l-270 270l270 270z"/>
<glyph glyph-name="equal" unicode="=" d="M507 155h-396v45h396v-45zM507 350h-396v45h396v-45z"/>
<glyph glyph-name="greater" unicode="&gt;" d="M393 260l-239 239l32 31l270 -270l-270 -270l-32 31z"/>
<glyph glyph-name="question" unicode="?" d="M258 395h74q51 0 82.5 37.5t31.5 85.5q0 35 -24.5 58t-63.5 23q-45 0 -75 -30.5t-37 -75.5h-129q9 97 76 157t178 60q84 0 143.5 -52t59.5 -136q0 -93 -55.5 -159.5t-152.5 -80.5l-11 -52h-132zM163 0l34 160h160l-34 -160h-160z"/>
<glyph glyph-name="at" unicode="@" d="M130 150v12q0 76 43.5 118t126.5 42h37v46q0 43 -38 43q-37 0 -37 -43v-14h-132v16q0 76 43.5 118t126.5 42q82 0 125.5 -42t43.5 -118v-308q0 -30 28 -30t28 30v389q0 98 -58.5 157.5t-162.5 59.5t-162.5 -59.5t-58.5 -157.5v-381q0 -98 58.5 -157.5t162.5 -59.5v-42 q-124 0 -194 70.5t-70 188.5v381q0 118 70 188.5t194 70.5t194 -70.5t70 -188.5v-390q0 -32 -18 -51.5t-53 -19.5q-31 0 -48.5 17t-20.5 43q-50 -60 -128 -60q-83 0 -126.5 42t-43.5 118zM337 152v61h-38q-37 0 -37 -43v-18q0 -43 37 -43q38 0 38 43z"/>
<glyph glyph-name="A" unicode="A" d="M398 266l-33 229l-130 -229h163zM415 142h-251l-81 -142h-147l398 700h128l101 -700h-127z"/>
<glyph glyph-name="B" unicode="B" d="M159 130h176q43 0 73 23.5t30 65.5q0 31 -19.5 50.5t-57.5 19.5h-169zM-2 0l148 700h282q93 0 141.5 -55t48.5 -129q0 -52 -26 -101t-74 -75q54 -49 54 -116q0 -110 -67.5 -167t-191.5 -57h-315zM220 419h165q44 0 71.5 24.5t27.5 60.5q0 66 -75 66h-157z"/>
<glyph glyph-name="C" unicode="C" d="M614 466h-132q2 12 2 17q0 47 -29.5 72t-85.5 25t-95.5 -33t-52.5 -93q-48 -221 -48 -237q0 -47 29.5 -72t85.5 -25q52 0 90.5 30t54.5 84h135q-28 -120 -95 -182t-202 -62q-108 0 -170 59t-62 145q0 41 47 257q27 128 94 193.5t206 65.5q108 0 170 -59t62 -145 q0 -19 -4 -40z"/>
<glyph glyph-name="D" unicode="D" d="M272 0h-282l148 700h245q108 0 170 -59t62 -145q0 -39 -43 -237q-27 -128 -94 -193.5t-206 -65.5zM150 130h139q56 0 95.5 33t52.5 93q44 202 44 217q0 47 -29.5 72t-85.5 25h-122z"/>
<glyph glyph-name="E" unicode="E" d="M301 570l-32 -151h223l-28 -130h-223l-34 -159h292l-27 -130h-425l148 700h425l-28 -130h-291z"/>
<glyph glyph-name="F" unicode="F" d="M319 570l-32 -151h223l-28 -130h-223l-61 -289h-133l148 700h426l-29 -130h-291z"/>
<glyph glyph-name="G" unicode="G" d="M438 269h-130l28 130h264q-11 -59 -32 -150q-28 -128 -94.5 -193.5t-205.5 -65.5q-108 0 -170 59t-62 145q0 41 47 257q27 128 94 193.5t206 65.5q108 0 170 -59t62 -145q0 -5 -2 -27h-132v4q0 47 -29.5 72t-85.5 25t-95.5 -33t-52.5 -93q-48 -221 -48 -237 q0 -47 29.5 -72t85.5 -25t95.5 33t52.5 93z"/>
<glyph glyph-name="H" unicode="H" d="M469 419l59 281h133l-148 -700h-133l61 289h-262l-61 -289h-133l148 700h133l-59 -281h262z"/>
<glyph glyph-name="I" unicode="I" d="M462 0h-426l28 130h145l93 440h-145l27 130h427l-28 -130h-148l-93 -440h148z"/>
<glyph glyph-name="J" unicode="J" d="M22 200h135q11 -80 114 -80q56 0 95.5 33t52.5 93l69 324h-291l27 130h426l-96 -451q-27 -128 -94 -193.5t-206 -65.5q-108 0 -170 59t-62 145v6z"/>
<glyph glyph-name="K" unicode="K" d="M160 197l-41 -197h-133l148 700h133l-59 -284l302 284h188l-308 -289l184 -411h-143l-141 316z"/>
<glyph glyph-name="L" unicode="L" d="M336 700l-122 -570h292l-27 -130h-425l148 700h134z"/>
<glyph glyph-name="M" unicode="M" d="M333 188h-88l-33 270l-98 -458h-128l148 700h138l44 -363l208 363h138l-149 -700h-129l94 441z"/>
<glyph glyph-name="N" unicode="N" d="M662 700l-149 -700h-134l-159 475l-101 -475h-133l148 700h134l159 -475l101 475h134z"/>
<glyph glyph-name="O" unicode="O" d="M81 451q27 128 94 193.5t206 65.5q108 0 170 -59t62 -145q0 -41 -47 -257q-27 -128 -94 -193.5t-206 -65.5q-108 0 -170 59t-62 145q0 41 47 257zM216 454q-48 -221 -48 -237q0 -47 29.5 -72t85.5 -25t95.5 33t52.5 93q48 221 48 237q0 47 -29.5 72t-85.5 25t-95.5 -33 t-52.5 -93z"/>
<glyph glyph-name="P" unicode="P" d="M217 347h145q57 0 99.5 34t42.5 90q0 39 -27 69t-77 30h-136zM189 217l-46 -217h-133l148 700h269q95 0 153 -66.5t58 -152.5q0 -126 -78 -195t-219 -69h-152z"/>
<glyph glyph-name="Q" unicode="Q" d="M80 451q27 128 94 193.5t206 65.5q108 0 170 -59t62 -145q0 -41 -47 -257q-23 -108 -68 -166l33 -44l-98 -79l-38 50q-54 -20 -129 -20q-108 0 -170 59t-62 145q0 41 47 257zM363 580q-55 0 -94 -32t-53 -90l196 -262q12 23 18 50q48 221 48 237q0 47 -29.5 72t-85.5 25z M282 120q10 0 28 2l-130 174q-13 -69 -13 -79q0 -47 29.5 -72t85.5 -25z"/>
<glyph glyph-name="R" unicode="R" d="M631 516q0 -25 -4.5 -49t-17.5 -53t-34 -52.5t-57 -42.5t-84 -26l110 -293h-137l-109 289h-98l-61 -289h-133l148 700h287q93 0 141.5 -55t48.5 -129zM228 419h170q44 0 71.5 24.5t27.5 60.5q0 66 -75 66h-162z"/>
<glyph glyph-name="S" unicode="S" d="M289 -10q-108 0 -175 61.5t-67 161.5v8h134v-7q0 -41 35 -67.5t88 -26.5q42 0 70 21.5t28 59.5q0 65 -67 84l-86 25q-64 19 -100 66.5t-36 114.5q0 219 247 219q102 0 161.5 -60t59.5 -138v-10h-135q-16 78 -101 78q-48 0 -73 -20t-25 -55q0 -28 16.5 -48t41.5 -27 l86 -25q66 -19 105.5 -67.5t39.5 -114.5q0 -114 -62 -173.5t-185 -59.5z"/>
<glyph glyph-name="T" unicode="T" d="M634 570h-195l-121 -570h-138l121 570h-195l27 130h529z"/>
<glyph glyph-name="U" unicode="U" d="M167 217q0 -47 30 -72t86 -25t96 33t53 93l96 454h133q-80 -378 -95 -451q-26 -127 -93.5 -193t-206.5 -66q-108 0 -170.5 59t-62.5 145q0 10 2 26.5t7 45t10 54t15.5 74t18 84.5t22.5 105t25 117h133q-99 -467 -99 -483z"/>
<glyph glyph-name="V" unicode="V" d="M282 196l281 504h150l-399 -700h-130l-101 700h131z"/>
<glyph glyph-name="W" unicode="W" d="M421 600l-28 -392l162 492h137l-249 -700h-134l32 420l-152 -420h-134l49 700h131l-49 -509l147 409h88z"/>
<glyph glyph-name="X" unicode="X" d="M404 0l-100 238l-195 -238h-167l306 366l-143 334h140l94 -224l185 224h167l-297 -352l150 -348h-140z"/>
<glyph glyph-name="Y" unicode="Y" d="M370 255l-54 -255h-134l54 255l-153 445h138l101 -304l230 304h161z"/>
<glyph glyph-name="Z" unicode="Z" d="M511 0h-532l27 130l441 440h-342l27 130h522l-27 -130l-441 -440h352z"/>
<glyph glyph-name="bracketleft" unicode="[" d="M185 -92l169 792h225l-9 -42h-182l-151 -708h182l-9 -42h-225z"/>
<glyph glyph-name="backslash" unicode="\" d="M63 679l37 26l472 -684l-37 -26z"/>
<glyph glyph-name="bracketright" unicode="]" d="M442 700l-169 -792h-225l9 42h182l151 708h-182l9 42h225z"/>
<glyph glyph-name="asciicircum" unicode="^" d="M573 403l-239 239l-239 -239l-31 32l270 270l270 -270z"/>
<glyph glyph-name="underscore" unicode="_" d="M423 -114h-396l9 45h396z"/>
<glyph glyph-name="grave" unicode="`" d="M511 585l-264 72l10 48l264 -72z"/>
<glyph glyph-name="a" unicode="a" d="M227 354h-133q28 89 84 132.5t156 43.5q93 0 149.5 -54t56.5 -141q0 -24 -21 -126l-45 -209h-132l12 53q-45 -63 -135 -63q-75 0 -123 43.5t-48 104.5q0 122 114 160q74 25 251 34v4q0 34 -21.5 56t-67.5 22q-66 0 -97 -60zM213 203q-38 -16 -38 -51q0 -20 17 -34.5 t55 -14.5q52 0 91 29t49 77l3 14q-149 -8 -177 -20z"/>
<glyph glyph-name="b" unicode="b" d="M303 700l-49 -233q12 22 42.5 42.5t75.5 20.5q83 0 128.5 -59t45.5 -135q0 -32 -21 -137q-23 -107 -76 -158t-144 -51q-98 0 -136 74l-14 -64h-132l148 700h132zM222 315q-24 -112 -24 -121q0 -85 88 -85q43 0 71 25t38 71q24 112 24 121q0 85 -88 85q-43 0 -71 -25 t-38 -71z"/>
<glyph glyph-name="c" unicode="c" d="M549 336v-4h-128v4q0 34 -21.5 56t-66.5 22q-43 0 -71 -25t-38 -71q-26 -122 -26 -127q0 -85 88 -85q80 0 105 82h132q-27 -101 -84.5 -149.5t-162.5 -48.5q-93 0 -149.5 54t-56.5 141q0 37 21 126q26 112 83.5 165.5t168.5 53.5q93 0 149.5 -53.5t56.5 -140.5z"/>
<glyph glyph-name="d" unicode="d" d="M343 0l11 53q-12 -22 -42.5 -42.5t-75.5 -20.5q-83 0 -128.5 59t-45.5 135q0 32 21 137q23 107 76 158t144 51q98 0 136 -74l52 244h132l-148 -700h-132zM386 205q24 112 24 121q0 85 -88 85q-43 0 -71 -25t-38 -71q-24 -112 -24 -121q0 -85 88 -85q43 0 71 25t38 71z "/>
<glyph glyph-name="e" unicode="e" d="M525 214h-328q-3 -17 -3 -23q0 -85 88 -85q67 0 97 60h133q-28 -89 -84 -132.5t-156 -43.5q-93 0 -149.5 54t-56.5 141q0 37 21 126q26 112 83.5 165.5t168.5 53.5q93 0 149.5 -54t56.5 -141q0 -39 -20 -121zM417 320v9q0 85 -88 85q-86 0 -109 -94h197z"/>
<glyph glyph-name="f" unicode="f" d="M613 584h-179q-40 0 -49 -44l-5 -24h218l-25 -116h-217l-85 -400h-132l85 400h-147l25 116h146l11 52q13 59 57.5 95.5t106.5 36.5h214z"/>
<glyph glyph-name="g" unicode="g" d="M152 -3v-4q0 -29 22.5 -50t65.5 -21t71 25t38 71l15 72q-12 -22 -44 -42.5t-77 -20.5q-83 0 -128.5 59t-45.5 135q0 22 17 100q23 108 76.5 158.5t143.5 50.5q98 0 136 -74l12 60h132l-104 -491q-23 -112 -81.5 -165.5t-170.5 -53.5q-92 0 -149 53t-57 134v4h128z M397 242q16 81 16 84q0 85 -88 85q-43 0 -71 -25t-38 -71q-16 -73 -16 -84q0 -85 88 -85q43 0 71.5 25t37.5 71z"/>
<glyph glyph-name="h" unicode="h" d="M523 199l-43 -199h-132l44 205q25 117 25 121q0 85 -88 85q-43 0 -71 -25t-38 -71l-68 -315h-132l149 700h132l-50 -233q12 22 43 42.5t76 20.5q89 0 131.5 -57.5t42.5 -136.5q0 -44 -21 -137z"/>
<glyph glyph-name="i" unicode="i" d="M499 0h-495l24 116h181l61 284h-132l25 116h263l-85 -400h182zM298 553l31 147h147l-31 -147h-147z"/>
<glyph glyph-name="j" unicode="j" d="M336 400h-218l25 116h349l-120 -568q-13 -59 -57.5 -95.5t-106.5 -36.5h-262l24 116h227q40 0 49 44zM353 553l31 147h147l-31 -147h-147z"/>
<glyph glyph-name="k" unicode="k" d="M316 700l-74 -346l183 162h176l-230 -203l147 -313h-139l-107 226l-71 -64l-34 -162h-132l149 700h132z"/>
<glyph glyph-name="l" unicode="l" d="M497 0h-495l24 116h181l99 468h-130l24 116h263l-124 -584h182z"/>
<glyph glyph-name="m" unicode="m" d="M195 366l-78 -366h-125l109 516h126l-5 -23q22 32 68 32q44 0 62 -32q37 37 104 37q61 0 96.5 -40.5t35.5 -99.5q0 -25 -79 -390h-126q79 370 79 376q0 28 -30 28q-33 0 -41 -38l-78 -366h-126q79 370 79 376q0 28 -30 28q-33 0 -41 -38z"/>
<glyph glyph-name="n" unicode="n" d="M523 199l-43 -199h-132l44 205q25 117 25 121q0 85 -88 85q-43 0 -71 -25t-38 -71l-68 -315h-132l110 516h132l-11 -49q12 22 43 42.5t76 20.5q89 0 131.5 -57.5t42.5 -136.5q0 -44 -21 -137z"/>
<glyph glyph-name="o" unicode="o" d="M523 209q-26 -112 -83.5 -165.5t-168.5 -53.5q-93 0 -149.5 54t-56.5 141q0 37 21 126q26 112 83.5 165.5t168.5 53.5q93 0 149.5 -54t56.5 -141q0 -37 -21 -126zM219 318q-26 -116 -26 -133q0 -35 21.5 -57t66.5 -22q43 0 71 25t38 71q26 116 26 133q0 35 -21.5 57 t-66.5 22q-87 0 -109 -96z"/>
<glyph glyph-name="p" unicode="p" d="M265 516l-10 -49q12 22 42.5 42.5t75.5 20.5q83 0 128.5 -59t45.5 -135q0 -32 -21 -137q-23 -107 -76 -158t-144 -51q-98 0 -136 74l-53 -248h-132l148 700h132zM223 315q-24 -112 -24 -121q0 -85 88 -85q43 0 71 25t38 71q24 112 24 121q0 85 -88 85q-43 0 -71 -25 t-38 -71z"/>
<glyph glyph-name="q" unicode="q" d="M305 -184l50 237q-12 -22 -42.5 -42.5t-75.5 -20.5q-83 0 -128.5 59t-45.5 135q0 32 21 137q23 107 76 158t144 51q98 0 136 -74l13 60h132l-148 -700h-132zM387 205q24 112 24 121q0 85 -88 85q-43 0 -71 -25t-38 -71q-24 -112 -24 -121q0 -85 88 -85q43 0 71 25t38 71z "/>
<glyph glyph-name="r" unicode="r" d="M-22 0l24 116h162l61 284h-114l25 116h245l-13 -54q12 22 43 42.5t76 20.5h120l-26 -124h-136q-43 0 -71 -25t-38 -71l-40 -189h174l-24 -116h-468z"/>
<glyph glyph-name="s" unicode="s" d="M283 -10q-87 0 -146.5 47.5t-59.5 120.5v9h128v-4q0 -27 27 -43t66 -16q29 0 52.5 11t23.5 33q0 30 -46 42l-72 19q-54 14 -90.5 51.5t-36.5 95.5q0 86 58 130t151 44q72 0 130.5 -45t58.5 -114v-8h-128v3q-1 22 -23.5 36t-52.5 14q-29 0 -47.5 -11.5t-18.5 -31.5 q0 -29 39 -40l80 -21q58 -15 93 -52t35 -92q0 -178 -221 -178z"/>
<glyph glyph-name="t" unicode="t" d="M221 400h-147l24 116h147l25 117h132l-25 -117h216l-24 -116h-216q-53 -247 -53 -259q0 -25 30 -25h178l-24 -116h-186q-65 0 -96.5 33t-31.5 88q0 45 51 279z"/>
<glyph glyph-name="u" unicode="u" d="M281 109q40 0 67.5 25.5t37.5 70.5l67 311h132l-110 -516h-132l12 53q-11 -20 -43.5 -41.5t-75.5 -21.5q-81 0 -125 56.5t-44 132.5q0 48 19 132l44 205h132l-43 -201q-24 -107 -24 -121q0 -85 86 -85z"/>
<glyph glyph-name="v" unicode="v" d="M280 185l187 331h146l-295 -516h-136l-77 516h132z"/>
<glyph glyph-name="w" unicode="w" d="M377 436l-15 -281l115 361h136l-192 -516h-123l12 279l-108 -279h-123l26 516h135l-38 -353l104 273h71z"/>
<glyph glyph-name="x" unicode="x" d="M314 371l126 145h164l-229 -261l115 -255h-138l-63 146l-127 -146h-164l230 265l-114 251h137z"/>
<glyph glyph-name="y" unicode="y" d="M180 4l-76 512h132l43 -325l182 325h151l-323 -565q-4 -7 -17.5 -31t-17.5 -30.5t-16 -23.5t-20 -22t-22 -14t-29.5 -11.5t-34.5 -2.5h-109l23 116h67q27 0 40 23z"/>
<glyph glyph-name="z" unicode="z" d="M522 400l-274 -284h221l-24 -116h-394l25 116l274 284h-208l24 116h381z"/>
<glyph glyph-name="braceleft" unicode="{" d="M256 247q0 19 -12 27.5t-42 8.5h-10l9 42h10q38 0 54 14t23 47l45 211q12 54 37.5 78.5t86.5 24.5h123l-9 -42h-119q-35 0 -52 -15.5t-25 -51.5l-44 -205q-15 -70 -50 -86q18 -14 18 -45q0 -20 -25.5 -138t-25.5 -131q0 -36 47 -36h125l-9 -42h-125q-81 0 -81 75 q0 17 25.5 134t25.5 130z"/>
<glyph glyph-name="bar" unicode="|" d="M282 -100v800h43v-800h-43z"/>
<glyph glyph-name="braceright" unicode="}" d="M372 361q0 -19 12 -27.5t42 -8.5h10l-9 -42h-10q-38 0 -54 -14t-23 -47l-45 -211q-12 -54 -37.5 -78.5t-86.5 -24.5h-123l9 42h119q35 0 52 15.5t25 51.5l44 205q15 70 50 86q-18 14 -18 45q0 20 25.5 138t25.5 131q0 36 -47 36h-125l9 42h125q81 0 81 -75 q0 -17 -25.5 -134t-25.5 -130z"/>
<glyph glyph-name="asciitilde" unicode="~" d="M513 304l-159 -86l-102 73l-135 -73l-21 38l159 86l102 -73l135 73z"/>
<glyph glyph-name="exclamdown" unicode="¡" d="M144 -184l100 470h132l-100 -470h-132zM439 516l-34 -160h-160l34 160h160z"/>
<glyph glyph-name="cent" unicode="¢" d="M549 336v-4h-128v4q0 34 -21.5 56t-66.5 22q-43 0 -71 -25t-38 -71q-26 -122 -26 -127q0 -85 88 -85q80 0 105 82h132q-27 -101 -84.5 -149.5t-162.5 -48.5h-4l-19 -90h-43l20 94q-74 12 -117 63.5t-43 127.5q0 37 21 126q26 112 83.5 165.5t168.5 53.5h1l19 90h43 l-20 -94q75 -12 119 -63.5t44 -126.5z"/>
<glyph glyph-name="sterling" unicode="£" d="M69 372h64l26 119q24 111 82.5 165t169.5 54q91 0 148.5 -52t57.5 -131q0 -13 -5 -46h-128q5 32 5 39q0 33 -21.5 53.5t-66.5 20.5q-43 0 -71 -25t-38 -71l-27 -126h196l-9 -43h-197l-45 -213h329l-25 -116h-523l25 116h62l46 213h-64z"/>
<glyph glyph-name="currency" unicode="¤" d="M580 50l-84 84q-75 -64 -175 -64t-175 64l-84 -84l-31 30l84 85q-64 75 -64 175t64 175l-84 85l31 30l84 -85q75 65 175 65t175 -65l84 85l31 -30l-85 -85q65 -75 65 -175t-65 -175l85 -85zM170 340q0 -62 44.5 -106.5t106.5 -44.5t106.5 44.5t44.5 106.5t-44.5 106.5 t-106.5 44.5t-106.5 -44.5t-44.5 -106.5z"/>
<glyph glyph-name="yen" unicode="¥" d="M351 173h132l-9 -43h-132l-27 -130h-132l27 130h-131l9 43h131l18 82h-132l9 43h108l-139 402h134l104 -311l237 311h155l-311 -402h107l-9 -43h-131z"/>
<glyph glyph-name="brokenbar" unicode="¦" d="M283 -100v339h43v-339h-43zM283 361v339h43v-339h-43z"/>
<glyph glyph-name="section" unicode="§" d="M310 80l-109 40q-108 40 -108 134q0 131 141 165q-48 46 -48 116q0 80 53 127.5t139 47.5q74 0 121.5 -42t47.5 -106q0 -5 -1 -14h-45v8q0 50 -36 81t-91 31q-59 0 -100.5 -35t-41.5 -92q0 -36 18 -65.5t47 -39.5l109 -40q108 -40 108 -134q0 -130 -142 -166 q49 -46 49 -115q0 -80 -53 -127.5t-139 -47.5q-74 0 -121.5 42t-47.5 106q0 14 2 24h45l-1 -18q0 -50 36 -81t91 -31q59 0 100.5 35t41.5 92q0 36 -18 65.5t-47 39.5zM387 353l-85 31q-65 -1 -114 -33t-49 -87q0 -73 81 -101l84 -31q66 1 115 33t49 87q0 73 -81 101z"/>
<glyph glyph-name="dieresis" unicode="¨" d="M219 607l17 76h76l-17 -76h-76zM455 607l17 76h76l-17 -76h-76z"/>
<glyph glyph-name="copyright" unicode="©" d="M544 249v202q0 98 -58.5 157.5t-162.5 59.5t-162.5 -59.5t-58.5 -157.5v-202q0 -98 58.5 -157.5t162.5 -59.5t162.5 59.5t58.5 157.5zM587 451v-202q0 -118 -70 -188.5t-194 -70.5t-194 70.5t-70 188.5v202q0 118 70 188.5t194 70.5t194 -70.5t70 -188.5zM323 168 q-71 0 -108.5 37.5t-37.5 99.5v86q0 62 37.5 99t108.5 37q70 0 107.5 -36t39.5 -97h-94q-2 18 -16.5 29.5t-36.5 11.5q-23 0 -38 -12.5t-15 -31.5v-86q0 -20 15 -32.5t38 -12.5q22 0 36.5 11t16.5 30h94q-2 -61 -39.5 -97t-107.5 -36z"/>
<glyph glyph-name="ordfeminine" unicode="ª" d="M315 387q39 0 66 23t34 54l1 7q-117 -7 -132 -16q-20 -10 -20 -34q0 -12 11 -23t40 -11zM288 294q-56 0 -94 34.5t-38 80.5q0 43 22.5 76t56.5 46q60 23 199 30q-3 54 -65 54q-44 0 -68 -41h-112q22 70 66 103.5t121 33.5q76 0 121 -45t45 -116q0 -10 -14 -80l-36 -168 h-112l9 39q-34 -47 -101 -47zM472 207h-363l10 45h363z"/>
<glyph glyph-name="guillemotleft" unicode="«" d="M229 48l-165 210l254 210l29 -34l-221 -182l137 -176zM454 48l-165 210l254 210l29 -34l-221 -182l137 -176z"/>
<glyph glyph-name="logicalnot" unicode="¬" d="M111 258v45h396v-221h-45v176h-351z"/>
<glyph glyph-name="registered" unicode="®" d="M587 451v-202q0 -118 -70 -188.5t-194 -70.5t-194 70.5t-70 188.5v202q0 118 70 188.5t194 70.5t194 -70.5t70 -188.5zM544 249v202q0 98 -58.5 157.5t-162.5 59.5t-162.5 -59.5t-58.5 -157.5v-202q0 -98 58.5 -157.5t162.5 -59.5t162.5 59.5t58.5 157.5zM486 173h-107 l-76 130h-21v-130h-93v349h166q59 0 89.5 -28.5t30.5 -80.5q0 -82 -70 -103zM282 430v-36h75q25 0 25 18t-25 18h-75z"/>
<glyph glyph-name="macron" unicode="¯" d="M534 620h-312l11 50h312z"/>
<glyph glyph-name="degree" unicode="°" d="M212 549q0 65 46 110.5t110 45.5t110 -45.5t46 -110.5t-46 -110.5t-110 -45.5t-110 45.5t-46 110.5zM255 549q0 -47 33 -80.5t80 -33.5t80 33.5t33 80.5t-33 80.5t-80 33.5t-80 -33.5t-33 -80.5z"/>
<glyph glyph-name="plusminus" unicode="±" d="M287 229v121h-176v45h176v121h45v-121h175v-45h-175v-121h-45zM507 155h-396v45h396v-45z"/>
<glyph glyph-name="two.superior" unicode="²" d="M345 644l-72 -55q-20 31 -20 74q0 66 41 108t115 42q50 0 87.5 -34t37.5 -91q0 -75 -77 -131l-103 -76h138l-16 -80h-284l17 80l193 147q41 30 41 58q0 22 -12 34.5t-31 12.5q-26 0 -41.5 -19.5t-15.5 -49.5q0 -8 2 -20z"/>
<glyph glyph-name="three.superior" unicode="³" d="M341 395q-51 0 -88 34t-37 93q0 10 1 15h90q0 -2 -0.5 -6.5t-0.5 -7.5q0 -22 12.5 -34.5t31.5 -12.5q26 0 41.5 19.5t15.5 49.5q0 41 -38 46l16 75h4q24 0 24 40q0 26 -16 26q-20 0 -24 -32h-93q4 52 37.5 82.5t90.5 30.5q43 0 70.5 -33t27.5 -69q0 -57 -33 -91 q24 -30 24 -75q0 -65 -41.5 -107.5t-114.5 -42.5z"/>
<glyph glyph-name="acute" unicode="´" d="M510 651l-264 -72l12 54l264 72z"/>
<glyph glyph-name="paragraph" unicode="¶" d="M286 300h-10q-70 0 -115.5 52t-45.5 124q0 98 68.5 161t177.5 63h206l-167 -787h-43l158 745h-110l-158 -745h-43z"/>
<glyph glyph-name="periodcentered" unicode="·" d="M212 205l35 160h160l-35 -160h-160z"/>
<glyph glyph-name="cedilla" unicode="¸" d="M126 -134h84l18 84h50l-29 -134h-134z"/>
<glyph glyph-name="one.superior" unicode="¹" d="M303 625l-55 70l135 112h93l-69 -326h105l-16 -80h-304l16 80h106l39 185z"/>
<glyph glyph-name="ordmasculine" unicode="º" d="M339 390q64 0 79 73q18 82 18 93q0 59 -64 59q-62 0 -79 -73q-18 -82 -18 -93q0 -59 64 -59zM333 294q-77 0 -121.5 45t-44.5 116q0 31 13 80q22 90 67 133t132 43q77 0 121.5 -45t44.5 -116q0 -27 -14 -80q-21 -90 -66.5 -133t-131.5 -43zM475 207h-365l10 45h365z"/>
<glyph glyph-name="guillemotright" unicode="»" d="M154 468l165 -210l-254 -210l-29 34l221 182l-137 176zM379 468l165 -210l-254 -210l-29 34l221 182l-137 176z"/>
<glyph glyph-name="onequarter" unicode="¼" d="M71 150l434 435l32 -32l-434 -435zM439 0h42l13 63h27l9 40h-27l11 53h-42l-11 -53h-61l126 134l-30 26l-150 -160l-9 -40h115zM145 603l-25 32l79 65h42l-48 -221h69l-9 -40h-178l9 40h67l34 158z"/>
<glyph glyph-name="onehalf" unicode="½" d="M71 150l434 435l32 -32l-434 -435zM394 128l31 26q-7 8 -7 21q0 21 13 35.5t34 14.5q15 0 24.5 -9.5t9.5 -23.5q0 -10 -5.5 -20t-11.5 -16t-19 -17l-116 -99l-9 -40h162l9 40h-99l84 72q46 38 46 83q0 28 -21.5 49t-50.5 21q-42 0 -66.5 -26.5t-24.5 -66.5q0 -24 17 -44z M145 603l-25 32l79 65h42l-48 -221h69l-9 -40h-178l9 40h67l34 158z"/>
<glyph glyph-name="threequarters" unicode="¾" d="M153 435q-29 0 -51.5 21t-22.5 49q0 5 1 11h41q-1 -3 -1 -8q0 -14 10 -23.5t26 -9.5q21 0 33 14t12 36q0 13 -9 22.5t-23 10.5l8 38h4q17 0 27 11t10 29q0 11 -8 19.5t-20 8.5q-34 0 -37 -34h-41q2 33 23.5 53.5t57.5 20.5q27 0 46 -18.5t19 -46.5q0 -47 -32 -68 q16 -19 16 -43q0 -40 -24 -66.5t-65 -26.5zM71 150l434 435l32 -32l-434 -435zM439 0h42l13 63h27l9 40h-27l11 53h-42l-11 -53h-61l126 134l-30 26l-150 -160l-9 -40h115z"/>
<glyph glyph-name="questiondown" unicode="¿" d="M350 121h-80q-49 -2 -78.5 -39t-29.5 -84q0 -35 24.5 -58t63.5 -23q45 0 75 30.5t37 75.5h129q-9 -97 -76 -157t-178 -60q-84 0 -143.5 52t-59.5 136q0 92 55.5 159t152.5 81l11 52h132zM445 516l-34 -160h-160l34 160h160z"/>
<glyph glyph-name="Agrave" unicode="À" d="M398 266l-33 229l-130 -229h163zM415 142h-251l-81 -142h-147l398 700h128l101 -700h-127zM546 739l-264 72l10 48l264 -72z"/>
<glyph glyph-name="Aacute" unicode="Á" d="M398 266l-33 229l-130 -229h163zM415 142h-251l-81 -142h-147l398 700h128l101 -700h-127zM545 805l-264 -72l12 54l264 72z"/>
<glyph glyph-name="Acircumflex" unicode="Â" d="M398 266l-33 229l-130 -229h163zM415 142h-251l-81 -142h-147l398 700h128l101 -700h-127zM561 733l-137 72l-167 -72l13 58l157 68l145 -77z"/>
<glyph glyph-name="Atilde" unicode="Ã" d="M398 266l-33 229l-130 -229h163zM415 142h-251l-81 -142h-147l398 700h128l101 -700h-127zM576 797l-113 -60l-91 66l-124 -66l14 63l113 60l91 -66l124 66z"/>
<glyph glyph-name="Adieresis" unicode="Ä" d="M398 266l-33 229l-130 -229h163zM415 142h-251l-81 -142h-147l398 700h128l101 -700h-127zM254 761l17 76h76l-17 -76h-76zM490 761l17 76h76l-17 -76h-76z"/>
<glyph glyph-name="Aring" unicode="Å" d="M298 765q0 47 33.5 81t80.5 34t81 -34t34 -81q0 -32 -16.5 -58.5t-43.5 -41.5l96 -665h-127l-21 142h-251l-81 -142h-147l391 688q-29 32 -29 77zM398 266l-33 229l-130 -229h163zM347 765q0 -27 19 -46.5t46 -19.5t46.5 19.5t19.5 46.5t-19.5 46.5t-46.5 19.5t-46 -19.5 t-19 -46.5z"/>
<glyph glyph-name="AE" unicode="Æ" d="M490 570l-33 -151h76l-28 -130h-76l-34 -159h146l-27 -130h-280l30 142h-100l-81 -142h-147l398 700h329l-27 -130h-146zM235 266h55l33 156z"/>
<glyph glyph-name="Ccedilla" unicode="Ç" d="M614 466h-132q2 12 2 17q0 47 -29.5 72t-85.5 25t-95.5 -33t-52.5 -93q-48 -221 -48 -237q0 -47 29.5 -72t85.5 -25q52 0 90.5 30t54.5 84h135q-28 -120 -95 -182t-202 -62q-108 0 -170 59t-62 145q0 41 47 257q27 128 94 193.5t206 65.5q108 0 170 -59t62 -145 q0 -19 -4 -40zM117 -134h84l18 84h50l-29 -134h-134z"/>
<glyph glyph-name="Egrave" unicode="È" d="M301 570l-32 -151h223l-28 -130h-223l-34 -159h292l-27 -130h-425l148 700h425l-28 -130h-291zM556 739l-264 72l10 48l264 -72z"/>
<glyph glyph-name="Eacute" unicode="É" d="M301 570l-32 -151h223l-28 -130h-223l-34 -159h292l-27 -130h-425l148 700h425l-28 -130h-291zM556 805l-264 -72l12 54l264 72z"/>
<glyph glyph-name="Ecircumflex" unicode="Ê" d="M301 570l-32 -151h223l-28 -130h-223l-34 -159h292l-27 -130h-425l148 700h425l-28 -130h-291zM571 733l-137 72l-167 -72l13 58l157 68l145 -77z"/>
<glyph glyph-name="Edieresis" unicode="Ë" d="M301 570l-32 -151h223l-28 -130h-223l-34 -159h292l-27 -130h-425l148 700h425l-28 -130h-291zM265 761l17 76h76l-17 -76h-76zM501 761l17 76h76l-17 -76h-76z"/>
<glyph glyph-name="Igrave" unicode="Ì" d="M462 0h-426l28 130h145l93 440h-145l27 130h427l-28 -130h-148l-93 -440h148zM545 739l-264 72l10 48l264 -72z"/>
<glyph glyph-name="Iacute" unicode="Í" d="M462 0h-426l28 130h145l93 440h-145l27 130h427l-28 -130h-148l-93 -440h148zM544 805l-264 -72l12 54l264 72z"/>
<glyph glyph-name="Icircumflex" unicode="Î" d="M462 0h-426l28 130h145l93 440h-145l27 130h427l-28 -130h-148l-93 -440h148zM560 733l-137 72l-167 -72l13 58l157 68l145 -77z"/>
<glyph glyph-name="Idieresis" unicode="Ï" d="M462 0h-426l28 130h145l93 440h-145l27 130h427l-28 -130h-148l-93 -440h148zM254 761l17 76h76l-17 -76h-76zM490 761l17 76h76l-17 -76h-76z"/>
<glyph glyph-name="Eth" unicode="Ð" d="M285 0h-282l69 328h-69l9 45h70l69 327h245q108 0 170 -59t62 -145q0 -39 -43 -237q-27 -128 -94 -193.5t-206 -65.5zM163 130h139q56 0 95.5 33t52.5 93q44 202 44 217q0 47 -29.5 72t-85.5 25h-122l-42 -197h130l-9 -45h-131z"/>
<glyph glyph-name="Ntilde" unicode="Ñ" d="M663 700l-149 -700h-134l-159 475l-101 -475h-133l148 700h134l159 -475l101 475h134zM575 797l-113 -60l-91 66l-124 -66l14 63l113 60l91 -66l124 66z"/>
<glyph glyph-name="Ograve" unicode="Ò" d="M81 451q27 128 94 193.5t206 65.5q108 0 170 -59t62 -145q0 -41 -47 -257q-27 -128 -94 -193.5t-206 -65.5q-108 0 -170 59t-62 145q0 41 47 257zM216 454q-48 -221 -48 -237q0 -47 29.5 -72t85.5 -25t95.5 33t52.5 93q48 221 48 237q0 47 -29.5 72t-85.5 25t-95.5 -33 t-52.5 -93zM545 739l-264 72l10 48l264 -72z"/>
<glyph glyph-name="Oacute" unicode="Ó" d="M81 451q27 128 94 193.5t206 65.5q108 0 170 -59t62 -145q0 -41 -47 -257q-27 -128 -94 -193.5t-206 -65.5q-108 0 -170 59t-62 145q0 41 47 257zM216 454q-48 -221 -48 -237q0 -47 29.5 -72t85.5 -25t95.5 33t52.5 93q48 221 48 237q0 47 -29.5 72t-85.5 25t-95.5 -33 t-52.5 -93zM545 805l-264 -72l12 54l264 72z"/>
<glyph glyph-name="Ocircumflex" unicode="Ô" d="M81 451q27 128 94 193.5t206 65.5q108 0 170 -59t62 -145q0 -41 -47 -257q-27 -128 -94 -193.5t-206 -65.5q-108 0 -170 59t-62 145q0 41 47 257zM216 454q-48 -221 -48 -237q0 -47 29.5 -72t85.5 -25t95.5 33t52.5 93q48 221 48 237q0 47 -29.5 72t-85.5 25t-95.5 -33 t-52.5 -93zM560 733l-137 72l-167 -72l13 58l157 68l145 -77z"/>
<glyph glyph-name="Otilde" unicode="Õ" d="M81 451q27 128 94 193.5t206 65.5q108 0 170 -59t62 -145q0 -41 -47 -257q-27 -128 -94 -193.5t-206 -65.5q-108 0 -170 59t-62 145q0 41 47 257zM216 454q-48 -221 -48 -237q0 -47 29.5 -72t85.5 -25t95.5 33t52.5 93q48 221 48 237q0 47 -29.5 72t-85.5 25t-95.5 -33 t-52.5 -93zM575 797l-113 -60l-91 66l-124 -66l14 63l113 60l91 -66l124 66z"/>
<glyph glyph-name="Odieresis" unicode="Ö" d="M81 451q27 128 94 193.5t206 65.5q108 0 170 -59t62 -145q0 -41 -47 -257q-27 -128 -94 -193.5t-206 -65.5q-108 0 -170 59t-62 145q0 41 47 257zM216 454q-48 -221 -48 -237q0 -47 29.5 -72t85.5 -25t95.5 33t52.5 93q48 221 48 237q0 47 -29.5 72t-85.5 25t-95.5 -33 t-52.5 -93zM254 761l17 76h76l-17 -76h-76zM490 761l17 76h76l-17 -76h-76z"/>
<glyph glyph-name="multiply" unicode="×" d="M481 419l-140 -139l140 -139l-32 -32l-140 139l-139 -139l-32 32l139 139l-139 139l32 32l139 -139l140 139z"/>
<glyph glyph-name="Oslash" unicode="Ø" d="M81 451q27 128 94 193.5t206 65.5q98 0 163 -53l61 76l35 -26l-66 -82q39 -53 39 -119q0 -41 -47 -257q-27 -128 -94 -193.5t-206 -65.5q-101 0 -164 53l-61 -76l-34 26l66 81q-39 51 -39 120q0 41 47 257zM479 483q0 9 -2 23l-287 -355q30 -31 93 -31q56 0 95.5 33 t52.5 93q48 221 48 237zM216 454q-48 -221 -48 -237t2 -23l286 354q-30 32 -92 32q-56 0 -95.5 -33t-52.5 -93z"/>
<glyph glyph-name="Ugrave" unicode="Ù" d="M167 217q0 -47 30 -72t86 -25t96 33t53 93l96 454h133q-80 -378 -95 -451q-26 -127 -93.5 -193t-206.5 -66q-108 0 -170.5 59t-62.5 145q0 10 2 26.5t7 45t10 54t15.5 74t18 84.5t22.5 105t25 117h133q-99 -467 -99 -483zM545 739l-264 72l10 48l264 -72z"/>
<glyph glyph-name="Uacute" unicode="Ú" d="M167 217q0 -47 30 -72t86 -25t96 33t53 93l96 454h133q-80 -378 -95 -451q-26 -127 -93.5 -193t-206.5 -66q-108 0 -170.5 59t-62.5 145q0 10 2 26.5t7 45t10 54t15.5 74t18 84.5t22.5 105t25 117h133q-99 -467 -99 -483zM543 805l-264 -72l12 54l264 72z"/>
<glyph glyph-name="Ucircumflex" unicode="Û" d="M167 217q0 -47 30 -72t86 -25t96 33t53 93l96 454h133q-80 -378 -95 -451q-26 -127 -93.5 -193t-206.5 -66q-108 0 -170.5 59t-62.5 145q0 10 2 26.5t7 45t10 54t15.5 74t18 84.5t22.5 105t25 117h133q-99 -467 -99 -483zM561 733l-137 72l-167 -72l13 58l157 68l145 -77 z"/>
<glyph glyph-name="Udieresis" unicode="Ü" d="M167 217q0 -47 30 -72t86 -25t96 33t53 93l96 454h133q-80 -378 -95 -451q-26 -127 -93.5 -193t-206.5 -66q-108 0 -170.5 59t-62.5 145q0 10 2 26.5t7 45t10 54t15.5 74t18 84.5t22.5 105t25 117h133q-99 -467 -99 -483zM490 761l17 76h76l-17 -76h-76zM254 761l17 76 h76l-17 -76h-76z"/>
<glyph glyph-name="Yacute" unicode="Ý" d="M370 255l-54 -255h-134l54 255l-153 445h138l101 -304l230 304h161zM545 805l-264 -72l12 54l264 72z"/>
<glyph glyph-name="Thorn" unicode="Þ" d="M193 240h145q57 0 99.5 34t42.5 90q0 39 -27 69t-77 30h-136zM165 110l-23 -110h-133l148 700h134l-23 -107h135q95 0 153 -66.5t58 -152.5q0 -126 -78 -195t-219 -69h-152z"/>
<glyph glyph-name="germandbls" unicode="ß" d="M217 -73q61 0 108 53t47 117q0 45 -25.5 75.5t-69.5 30.5l24 116l70 81h-117l-85 -400h-132l121 568q13 59 57.5 95.5t106.5 36.5h60l-24 -116h-25q-40 0 -49 -44l-5 -24h272l-24 -116l-108 -123q39 -30 62 -74t23 -85q0 -131 -80 -219t-231 -88z"/>
<glyph glyph-name="agrave" unicode="à" d="M227 354h-133q28 89 84 132.5t156 43.5q93 0 149.5 -54t56.5 -141q0 -24 -21 -126l-45 -209h-132l12 53q-45 -63 -135 -63q-75 0 -123 43.5t-48 104.5q0 122 114 160q74 25 251 34v4q0 34 -21.5 56t-67.5 22q-66 0 -97 -60zM213 203q-38 -16 -38 -51q0 -20 17 -34.5 t55 -14.5q52 0 91 29t49 77l3 14q-149 -8 -177 -20zM516 585l-264 72l10 48l264 -72z"/>
<glyph glyph-name="aacute" unicode="á" d="M227 354h-133q28 89 84 132.5t156 43.5q93 0 149.5 -54t56.5 -141q0 -24 -21 -126l-45 -209h-132l12 53q-45 -63 -135 -63q-75 0 -123 43.5t-48 104.5q0 122 114 160q74 25 251 34v4q0 34 -21.5 56t-67.5 22q-66 0 -97 -60zM213 203q-38 -16 -38 -51q0 -20 17 -34.5 t55 -14.5q52 0 91 29t49 77l3 14q-149 -8 -177 -20zM515 651l-264 -72l12 54l264 72z"/>
<glyph glyph-name="acircumflex" unicode="â" d="M227 354h-133q28 89 84 132.5t156 43.5q93 0 149.5 -54t56.5 -141q0 -24 -21 -126l-45 -209h-132l12 53q-45 -63 -135 -63q-75 0 -123 43.5t-48 104.5q0 122 114 160q74 25 251 34v4q0 34 -21.5 56t-67.5 22q-66 0 -97 -60zM213 203q-38 -16 -38 -51q0 -20 17 -34.5 t55 -14.5q52 0 91 29t49 77l3 14q-149 -8 -177 -20zM531 579l-137 72l-167 -72l13 58l157 68l145 -77z"/>
<glyph glyph-name="atilde" unicode="ã" d="M227 354h-133q28 89 84 132.5t156 43.5q93 0 149.5 -54t56.5 -141q0 -24 -21 -126l-45 -209h-132l12 53q-45 -63 -135 -63q-75 0 -123 43.5t-48 104.5q0 122 114 160q74 25 251 34v4q0 34 -21.5 56t-67.5 22q-66 0 -97 -60zM213 203q-38 -16 -38 -51q0 -20 17 -34.5 t55 -14.5q52 0 91 29t49 77l3 14q-149 -8 -177 -20zM546 640l-113 -60l-91 66l-124 -66l14 63l113 60l91 -66l124 66z"/>
<glyph glyph-name="adieresis" unicode="ä" d="M227 354h-133q28 89 84 132.5t156 43.5q93 0 149.5 -54t56.5 -141q0 -24 -21 -126l-45 -209h-132l12 53q-45 -63 -135 -63q-75 0 -123 43.5t-48 104.5q0 122 114 160q74 25 251 34v4q0 34 -21.5 56t-67.5 22q-66 0 -97 -60zM213 203q-38 -16 -38 -51q0 -20 17 -34.5 t55 -14.5q52 0 91 29t49 77l3 14q-149 -8 -177 -20zM224 607l17 76h76l-17 -76h-76zM460 607l17 76h76l-17 -76h-76z"/>
<glyph glyph-name="aring" unicode="å" d="M257 595q0 47 33.5 81t80.5 34t81 -34t34 -81q0 -54 -44 -90q46 -24 72 -68.5t26 -101.5q0 -24 -21 -126l-45 -209h-132l12 53q-45 -63 -135 -63q-75 0 -123 43.5t-48 104.5q0 122 114 160q74 25 251 34v4q0 34 -21.5 56t-67.5 22q-66 0 -97 -60h-133q24 77 68 119.5 t118 52.5q-23 29 -23 69zM213 203q-38 -16 -38 -51q0 -20 17 -34.5t55 -14.5q52 0 91 29t49 77l3 14q-149 -8 -177 -20zM306 595q0 -27 19 -46t46 -19t46.5 19t19.5 46t-19.5 46.5t-46.5 19.5t-46 -19.5t-19 -46.5z"/>
<glyph glyph-name="ae" unicode="æ" d="M11 156q14 86 58.5 125t130.5 39h49q12 57 12 62q0 32 -34 32t-41 -43l-3 -17h-133q18 94 60 135t125 41q59 0 98 -37q43 37 116 37q64 0 106 -42.5t42 -97.5q0 -30 -31 -176h-207q-14 -70 -14 -76q0 -32 34 -32t41 43l3 17h133l-3 -12q-23 -90 -63 -127t-119 -37 q-59 0 -98 37q-43 -37 -116 -37q-64 0 -106 42.5t-42 97.5q0 16 2 26zM213 149q9 48 13 65h-41q-33 0 -42 -43q-5 -23 -5 -33q0 -32 34 -32q32 0 41 43zM382 320h74q12 57 12 62q0 32 -34 32q-32 0 -41 -43z"/>
<glyph glyph-name="ccedilla" unicode="ç" d="M549 336v-4h-128v4q0 34 -21.5 56t-66.5 22q-43 0 -71 -25t-38 -71q-26 -122 -26 -127q0 -85 88 -85q80 0 105 82h132q-27 -101 -84.5 -149.5t-162.5 -48.5q-93 0 -149.5 54t-56.5 141q0 37 21 126q26 112 83.5 165.5t168.5 53.5q93 0 149.5 -53.5t56.5 -140.5zM116 -134 h84l18 84h50l-29 -134h-134z"/>
<glyph glyph-name="egrave" unicode="è" d="M525 214h-328q-3 -17 -3 -23q0 -85 88 -85q67 0 97 60h133q-28 -89 -84 -132.5t-156 -43.5q-93 0 -149.5 54t-56.5 141q0 37 21 126q26 112 83.5 165.5t168.5 53.5q93 0 149.5 -54t56.5 -141q0 -39 -20 -121zM417 320v9q0 85 -88 85q-86 0 -109 -94h197zM514 585l-264 72 l10 48l264 -72z"/>
<glyph glyph-name="eacute" unicode="é" d="M525 214h-328q-3 -17 -3 -23q0 -85 88 -85q67 0 97 60h133q-28 -89 -84 -132.5t-156 -43.5q-93 0 -149.5 54t-56.5 141q0 37 21 126q26 112 83.5 165.5t168.5 53.5q93 0 149.5 -54t56.5 -141q0 -39 -20 -121zM417 320v9q0 85 -88 85q-86 0 -109 -94h197zM514 651 l-264 -72l12 54l264 72z"/>
<glyph glyph-name="ecircumflex" unicode="ê" d="M525 214h-328q-3 -17 -3 -23q0 -85 88 -85q67 0 97 60h133q-28 -89 -84 -132.5t-156 -43.5q-93 0 -149.5 54t-56.5 141q0 37 21 126q26 112 83.5 165.5t168.5 53.5q93 0 149.5 -54t56.5 -141q0 -39 -20 -121zM530 579l-137 72l-167 -72l13 58l157 68l145 -77zM417 320v9 q0 85 -88 85q-86 0 -109 -94h197z"/>
<glyph glyph-name="edieresis" unicode="ë" d="M525 214h-328q-3 -17 -3 -23q0 -85 88 -85q67 0 97 60h133q-28 -89 -84 -132.5t-156 -43.5q-93 0 -149.5 54t-56.5 141q0 37 21 126q26 112 83.5 165.5t168.5 53.5q93 0 149.5 -54t56.5 -141q0 -39 -20 -121zM417 320v9q0 85 -88 85q-86 0 -109 -94h197zM223 607l17 76 h76l-17 -76h-76zM459 607l17 76h76l-17 -76h-76z"/>
<glyph glyph-name="igrave" unicode="ì" d="M499 0h-495l24 116h181l61 284h-132l25 116h263l-85 -400h182zM514 585l-264 72l10 48l264 -72z"/>
<glyph glyph-name="iacute" unicode="í" d="M499 0h-495l24 116h181l61 284h-132l25 116h263l-85 -400h182zM514 651l-264 -72l12 54l264 72z"/>
<glyph glyph-name="icircumflex" unicode="î" d="M499 0h-495l24 116h181l61 284h-132l25 116h263l-85 -400h182zM530 579l-137 72l-167 -72l13 58l157 68l145 -77z"/>
<glyph glyph-name="idieresis" unicode="ï" d="M499 0h-495l24 116h181l61 284h-132l25 116h263l-85 -400h182zM222 607l17 76h76l-17 -76h-76zM458 607l17 76h76l-17 -76h-76z"/>
<glyph glyph-name="eth" unicode="ð" d="M504 585h-63l69 -134q2 -3 6.5 -12t6 -12.5t5.5 -12t5.5 -13.5t4 -13.5t3.5 -16t2 -17t1 -19.5q0 -37 -21 -126q-26 -112 -83.5 -165.5t-168.5 -53.5q-93 0 -149.5 54t-56.5 141q0 37 21 126q25 108 79.5 161.5t159.5 57.5l-29 55h-127l9 43h96l-37 72h145l37 -72h94z M219 318q-26 -116 -26 -133q0 -35 21.5 -57t66.5 -22q43 0 71 25t38 71q26 116 26 133q0 35 -21.5 57t-66.5 22q-87 0 -109 -96z"/>
<glyph glyph-name="ntilde" unicode="ñ" d="M523 199l-43 -199h-132l44 205q25 117 25 121q0 85 -88 85q-43 0 -71 -25t-38 -71l-68 -315h-132l110 516h132l-11 -49q12 22 43 42.5t76 20.5q89 0 131.5 -57.5t42.5 -136.5q0 -44 -21 -137zM544 640l-113 -60l-91 66l-124 -66l14 63l113 60l91 -66l124 66z"/>
<glyph glyph-name="ograve" unicode="ò" d="M523 209q-26 -112 -83.5 -165.5t-168.5 -53.5q-93 0 -149.5 54t-56.5 141q0 37 21 126q26 112 83.5 165.5t168.5 53.5q93 0 149.5 -54t56.5 -141q0 -37 -21 -126zM219 318q-26 -116 -26 -133q0 -35 21.5 -57t66.5 -22q43 0 71 25t38 71q26 116 26 133q0 35 -21.5 57 t-66.5 22q-87 0 -109 -96zM513 585l-264 72l10 48l264 -72z"/>
<glyph glyph-name="oacute" unicode="ó" d="M523 209q-26 -112 -83.5 -165.5t-168.5 -53.5q-93 0 -149.5 54t-56.5 141q0 37 21 126q26 112 83.5 165.5t168.5 53.5q93 0 149.5 -54t56.5 -141q0 -37 -21 -126zM219 318q-26 -116 -26 -133q0 -35 21.5 -57t66.5 -22q43 0 71 25t38 71q26 116 26 133q0 35 -21.5 57 t-66.5 22q-87 0 -109 -96zM512 651l-264 -72l12 54l264 72z"/>
<glyph glyph-name="ocircumflex" unicode="ô" d="M523 209q-26 -112 -83.5 -165.5t-168.5 -53.5q-93 0 -149.5 54t-56.5 141q0 37 21 126q26 112 83.5 165.5t168.5 53.5q93 0 149.5 -54t56.5 -141q0 -37 -21 -126zM219 318q-26 -116 -26 -133q0 -35 21.5 -57t66.5 -22q43 0 71 25t38 71q26 116 26 133q0 35 -21.5 57 t-66.5 22q-87 0 -109 -96zM529 579l-137 72l-167 -72l13 58l157 68l145 -77z"/>
<glyph glyph-name="otilde" unicode="õ" d="M523 209q-26 -112 -83.5 -165.5t-168.5 -53.5q-93 0 -149.5 54t-56.5 141q0 37 21 126q26 112 83.5 165.5t168.5 53.5q93 0 149.5 -54t56.5 -141q0 -37 -21 -126zM219 318q-26 -116 -26 -133q0 -35 21.5 -57t66.5 -22q43 0 71 25t38 71q26 116 26 133q0 35 -21.5 57 t-66.5 22q-87 0 -109 -96zM544 640l-113 -60l-91 66l-124 -66l14 63l113 60l91 -66l124 66z"/>
<glyph glyph-name="odieresis" unicode="ö" d="M523 209q-26 -112 -83.5 -165.5t-168.5 -53.5q-93 0 -149.5 54t-56.5 141q0 37 21 126q26 112 83.5 165.5t168.5 53.5q93 0 149.5 -54t56.5 -141q0 -37 -21 -126zM219 318q-26 -116 -26 -133q0 -35 21.5 -57t66.5 -22q43 0 71 25t38 71q26 116 26 133q0 35 -21.5 57 t-66.5 22q-87 0 -109 -96zM222 607l17 76h76l-17 -76h-76zM458 607l17 76h76l-17 -76h-76z"/>
<glyph glyph-name="divide" unicode="÷" d="M267 479q0 17 12.5 29.5t29.5 12.5t29.5 -12.5t12.5 -29.5t-12.5 -29.5t-29.5 -12.5t-29.5 12.5t-12.5 29.5zM267 82q0 17 12.5 29.5t29.5 12.5t29.5 -12.5t12.5 -29.5t-12.5 -29.5t-29.5 -12.5t-29.5 12.5t-12.5 29.5zM507 258h-396v45h396v-45z"/>
<glyph glyph-name="oslash" unicode="ø" d="M59 -6l50 62q-44 52 -44 129q0 37 21 126q26 112 83.5 165.5t168.5 53.5q74 0 126 -36l48 59l36 -27l-50 -61q46 -52 46 -130q0 -37 -21 -126q-26 -112 -83.5 -165.5t-168.5 -53.5q-75 0 -128 36l-48 -59zM416 335q0 13 -3 24l-192 -237q22 -16 60 -16q43 0 71 25t38 71 q26 116 26 133zM219 318q-26 -116 -26 -133q0 -9 2 -23l191 236q-22 16 -58 16q-87 0 -109 -96z"/>
<glyph glyph-name="ugrave" unicode="ù" d="M281 109q40 0 67.5 25.5t37.5 70.5l67 311h132l-110 -516h-132l12 53q-11 -20 -43.5 -41.5t-75.5 -21.5q-81 0 -125 56.5t-44 132.5q0 48 19 132l44 205h132l-43 -201q-24 -107 -24 -121q0 -85 86 -85zM513 585l-264 72l10 48l264 -72z"/>
<glyph glyph-name="uacute" unicode="ú" d="M281 109q40 0 67.5 25.5t37.5 70.5l67 311h132l-110 -516h-132l12 53q-11 -20 -43.5 -41.5t-75.5 -21.5q-81 0 -125 56.5t-44 132.5q0 48 19 132l44 205h132l-43 -201q-24 -107 -24 -121q0 -85 86 -85zM511 651l-264 -72l12 54l264 72z"/>
<glyph glyph-name="ucircumflex" unicode="û" d="M281 109q40 0 67.5 25.5t37.5 70.5l67 311h132l-110 -516h-132l12 53q-11 -20 -43.5 -41.5t-75.5 -21.5q-81 0 -125 56.5t-44 132.5q0 48 19 132l44 205h132l-43 -201q-24 -107 -24 -121q0 -85 86 -85zM528 579l-137 72l-167 -72l13 58l157 68l145 -77z"/>
<glyph glyph-name="udieresis" unicode="ü" d="M281 109q40 0 67.5 25.5t37.5 70.5l67 311h132l-110 -516h-132l12 53q-11 -20 -43.5 -41.5t-75.5 -21.5q-81 0 -125 56.5t-44 132.5q0 48 19 132l44 205h132l-43 -201q-24 -107 -24 -121q0 -85 86 -85zM220 607l17 76h76l-17 -76h-76zM456 607l17 76h76l-17 -76h-76z"/>
<glyph glyph-name="yacute" unicode="ý" d="M180 4l-76 512h132l43 -325l182 325h151l-323 -565q-4 -7 -17.5 -31t-17.5 -30.5t-16 -23.5t-20 -22t-22 -14t-29.5 -11.5t-34.5 -2.5h-109l23 116h67q27 0 40 23zM511 651l-264 -72l12 54l264 72z"/>
<glyph glyph-name="thorn" unicode="þ" d="M304 700l-49 -233q12 22 42.5 42.5t75.5 20.5q83 0 128.5 -59t45.5 -135q0 -32 -21 -137q-23 -107 -76 -158t-144 -51q-98 0 -136 74l-53 -248h-132l187 884h132zM223 315q-24 -112 -24 -121q0 -85 88 -85q43 0 71 25t38 71q24 112 24 121q0 85 -88 85q-43 0 -71 -25 t-38 -71z"/>
</font>
</defs>
</svg>
